<?xml version="1.0" encoding="utf-8"?>
<!-- Generator: Adobe Illustrator 25.4.1, SVG Export Plug-In . SVG Version: 6.00 Build 0)  -->
<svg version="1.1" id="Layer_1" xmlns="http://www.w3.org/2000/svg" xmlns:xlink="http://www.w3.org/1999/xlink" x="0px" y="0px"
	 viewBox="0 0 109.29 242.35" style="enable-background:new 0 0 109.29 242.35;" xml:space="preserve">
<g>
	<path d="M30.65,0.64c0.81,4.6,1.76,9.18,2.38,13.81c0.31,2.29,0,4.66,0,6.99c0.01,8.68,2.26,11.1,10.98,13.09
		c7.22,1.65,14.49,3.31,21.42,5.84c8.83,3.22,13.49,9.9,14.88,19.46c0.54,3.75,3.13,7.76,5.91,10.51c6.14,6.05,13,11.37,19.54,17.02
		c1,0.86,2.11,1.75,2.72,2.86c0.56,1.02,1.08,2.75,0.59,3.47c-0.52,0.76-2.56,1.29-3.4,0.87c-5.14-2.56-10.44-4.98-15.08-8.3
		c-4.97-3.56-9.84-7.58-13.7-12.27c-3.7-4.49-6.65-9.86-8.81-15.28c-2.47-6.22-5.51-11.32-12.25-13.31
		c-5.57-1.64-11.12-3.38-16.76-4.76c-3.99-0.98-6.01,0.96-5.86,5.09c0.19,5.08,1.15,9.41,6.93,11.37c4.36,1.48,8.26,4.33,12.61,5.83
		c8.2,2.83,12.07,9.48,14.04,16.82c2.11,7.84,6.29,13.76,12.05,19.02c1.71,1.56,3.37,3.27,4.64,5.18c0.6,0.91,0.75,2.87,0.17,3.61
		c-0.57,0.73-2.5,0.99-3.56,0.64c-10.56-3.56-17.63-10.85-21.7-21.1c-2.7-6.81-4.93-13.95-12.43-17.24
		c-2.41-1.06-4.92-2.14-7.47-2.45c-0.8-0.1-2.72,2.3-2.74,3.56c-0.08,7.32,0.05,14.66,0.6,21.96c0.12,1.63,1.91,3.8,3.48,4.53
		c4.45,2.07,9.17,3.6,13.82,5.22c7.33,2.55,9.29,8.89,10.93,15.41c0.85,3.38,1.37,6.84,2.05,10.26c1.47,7.41-3.35,14.07-10.94,14.8
		c-3.47,0.33-6.99,0.23-10.49,0.22c-3.77-0.01-6.2,1.43-5.91,5.55c0.6,8.62,1.14,17.26,2.2,25.82c0.16,1.27,2.95,3.04,4.62,3.15
		c5.97,0.39,11.99,0.1,17.99,0.2c8.18,0.15,10.75,2.77,13.17,10.59c2.41,7.8,3.61,16.52,11.47,21.46c3.07,1.93,6.39,3.44,9.49,5.33
		c1.73,1.06,3.22,2.5,5.36,4.19c-4.66,2.69-8.54,2.16-12.14,0.49c-3.74-1.75-7.19-4.14-10.77-6.23c-7.44-4.34-8.43-11.92-9.64-19.33
		c-1.18-7.26-1.99-7.63-9.01-6.86c-4.68,0.51-9.5-0.13-14.25-0.33c-2.29-0.09-4.99-1.02-5.38,2.54c-0.36,3.19-0.03,6.18,4.19,6.51
		c1.66,0.13,3.33,0.16,4.99,0.17c8.65,0.05,13.8,3.97,16.3,12.31c1.24,4.14,2.53,8.27,4,12.33c2.37,6.58,7.43,10.74,12.96,14.66
		c2.01,1.42,3.02,4.25,4.49,6.43c-2.9-0.21-6.1,0.3-8.66-0.75c-12.99-5.34-18.85-16.36-22.78-29.05c-0.72-2.32-3.65-4.9-6.04-5.53
		c-2.33-0.62-5.11-1.45-7.54-0.29c-0.32,0.15-0.37,0.24-2.47,2.16c-3.52,3.2-3.9,3.49-4.41,3.47c-1.98-0.05-3.38-4.39-3.84-5.98
		c-3.57-24.48-3.99-35.76-3.45-41.27c0.32-3.27-0.38-6.81-0.7-13.97c-0.27-6.12-2.74-8.75-9.93-10.55
		c-9.62-2.4-17.15-11.9-17.67-21.83c-0.24-4.64-0.96-9.27-1.72-13.86c-0.51-3.1,0.42-4.68,3.59-5.2c5.74-0.94,11.42-2.28,17.18-3.07
		c3.58-0.49,5.54-1.92,5.42-5.68C26,80.82,25.45,70.68,25.45,60.54c-0.01-16.98,0.31-33.96,0.56-50.94
		c0.04-2.99,0.42-5.98,0.65-8.97C26.9,0.47,27.62,0,28.67,0C29.69,0,30.41,0.46,30.65,0.64z M51.53,136.6
		c7.89,0.1,8.63-0.81,7.35-7.88c-0.09-0.49-0.2-0.98-0.22-1.47c-0.38-10.7-4.91-17.7-16.3-19.37c-3.54-0.52-5.19,0.29-5.4,3.61
		c-0.23,3.63-0.12,7.29-0.11,10.94c0.04,9.86,2.44,12.62,12.11,13.96C50.11,136.54,51.27,136.58,51.53,136.6z M28.33,123.49
		c-0.01-0.37-0.01-0.73-0.02-1.1c0-1.21-0.03-2.84-0.13-4.77c-0.31-6.09-0.93-7.53-1.45-8.46c-0.39-0.7-1.05-2.55-2.95-3.25
		c-2.14-0.79-4.55-1.01-6.86-1.17c-7.6-0.54-9.3,1.16-8.97,8.68c0.06,1.33-0.09,2.69,0.12,3.99c1.06,6.65,2.53,12.77,10.12,15.52
		c6.36,2.31,9.74,0.74,10.13-5.95C28.38,125.83,28.33,124.66,28.33,123.49z"/>
</g>
</svg>
