<svg xmlns="http://www.w3.org/2000/svg" viewBox="0 0 212.7 278.6"><path d="M11.9,270.7c.2-.7.8-1.4.5-2.3s.3-1.2-.7-1-.3-.2-.2-.4.1-.5-.2-.5a2,2,0,0,0-1.1.2c-.2.2,0,.5.3.7s-.5.9-.5,1.4c-.1-1.2-1-2.4.1-3.6s-.1.6.2.8.4.3.6.2.3-.2.3-.5c0-2-.6-4-.7-6a3.5,3.5,0,0,0-.4-1.7c-.3-.7-.8-1.4-.5-2.2s-.6-.6-.9-.2-1,.1-1.1-.3-.6-.5-.7-1c1.4-.9,1-2.2,1-3.6h.9c.5,0,.9.5.6.8s.4,1.6-.7,1.9.1.4.3.5a3.5,3.5,0,0,1,1.1,1,2.7,2.7,0,0,1,1-1.9c.2-.2.6-.3.4-.7s.3-.3.4-.3-.1.2,0,.4.3.9.5,1.4.2-.1.3-.2h0c.1.2.3.5.2.7s.3,1.2,1.2.9,1.1.4.9,1-.1.6.2,1.1,1.1-1.6-.1-2.3a2.4,2.4,0,0,1,.6-.8c.1-.1.5,0,.7.1s.3.6.3.9-.4.3-.2.8,1.6.6,1-1l.3-.2H18c-.1.9,1.3,1.8.1,2.8s.2.5.3.8.7-1.2,1.5-1.2.3-.4,0-.6-.4-1.1,0-1.7l.5.5c.2.1.3.5.6.2a.5.5,0,0,0,.2-.6c-.5-.6.1-.7.3-.8s1.4-1.3,2.6-1.4l-.4-.3a1.9,1.9,0,0,1-1.5-.2c.5-.4.3-1.2,1-1.5s.9-.1,1.3-.6-.3-.1-.5-.2-.9.7-1.4.5.2-1.2-.8-1v-.3c.3-.2,1-.5.3-.7s-1-1.3-1.8.1c.2-1.1,1.1-1.3,1.1-2.1s-1.1.1-1.5.6-.3.1-.2,0-.5-.6.1-.6.7-.2.5-.6-.5.1-.8.1a1.3,1.3,0,0,0-1.1.5c-.3.4-.6.6-1,.3s-.6.1-.6.2-1.4.4-2.1.6-.4-.4-.6-.6,1-.9-.2-.6.1-.3.1-.5-.7-1.2,0-1.6,1.2-.3,2.1-.7l-.4.7c-.3.3-1.3.5-.8,1a1.5,1.5,0,0,0,2,.1c.1,0,.1-.1.1-.2,1.8.8.8-1.4,1.7-1.6s.4-.9.1-1.1-.4.3-.7.5-1.1.3-1.3-.3a1.9,1.9,0,0,0-.9-1.1h.5c.3,0,.6.8.8.4s1.1-.5.8-1.4.8-.9,1.3-1.2,1.1-.4.4-1,.7.2,1.1-.2-1.6-.2-2-.9h-.2c-.1,1.4-1.3.7-2,1s-1,.7-1.7.7-.4,0-.7-.6,0-.9,0-1.4l.7.6c.8.8,1.1.7,1.5-.5s-.7.6-1,.1.1-.8-.3-1-.4.7-.9.8-.6-.3.1-.9-.2-1-.8-1.3c1-.1,2.1-.3,2.8.9-.5-1.1.7-1.2.9-1.2s.7-.4.9-.7-.4-.8-1-.8-1,.2-1.3-.4.6-2.8,1-2.9,1.2-.8,1.7-1.2.8.2,1.1.5.3-1.6,1.5-1-.5-.8-.9-.7-1.2.1-1.5-.6-.5-.3-.8-.1-1,0-.9.8-.3.8-.8.4-1.2-2-1.6-3,.6-1.3.6-2h.1c.4-.2,0-.4-.1-.4s-.9-1.6-2-1.4-.3.4-.1.6.2.8-.5.9l.9,1c.3-.2.1-.9.8-.9a7.3,7.3,0,0,0-.9,2.6c-.2-.5.2-.9-.2-1.2s-.8.9-.9,1.6.2-1.4-.8-1.4a1.2,1.2,0,0,0,.2-1c0-.2-.1-.5-.4-.5s-.5.3-.5.5-.7,1-1.3,1.1H9c0,.2-.3.4-.1.5s1.6.3,2.2-.4.5.6.5,1-.4,0-.6,0-1.2-.2-.7.8l-.4.4a2.1,2.1,0,0,0-.2,2.4c.1.6.8,1.1.3,1.8s-.1.7.4.4.5-.1.7.3-.8,0-1.1.2-.6-.1-.5-.5.3-.5-.2-.5-.5-.5-.8-.2.4.4.2.7a4.3,4.3,0,0,0,.1.5c-1.4.3-1.1-.8-1.1-1.5s.2-.6-.3-.8-.6.2-.9.3.1.4.2.6.2.8,0,1.4,0-1.4-.9-1.4a10.4,10.4,0,0,1-.1-1.1c.1-.4.4,0,.6,0s.7-.2.7-.5-.4-.1-.5-.1-.1-.5-.2-.7a7.3,7.3,0,0,0-.3-3.3c-.7-1.7.9-2.7.8-4.2s.7-.9.9.1-.5,0-.7.5a18.9,18.9,0,0,0-.6,1.8,11,11,0,0,0,.9,5.9c.1.3.2.6.6.4s.3-.3.3-.6.2-2.1-.5-3a1,1,0,0,1,0-1.3c.1-.3.2-.7,0-.8s0-.7.3-.9,1.5-.6,1.4-1.6a1.4,1.4,0,0,1-1.7-.4c.9-.2.9-1,1.2-1.7s0-1.3.4,0,.8-.1.8-.5.3-.8,0-1.2.5.6.8.4,0-.6-.1-.7.4-1.1.3-1.7.5-.9,1.1-.3.3.3.5,0a.4.4,0,0,0-.1-.7c-.5-.4-.6-1.1-.9-1.6s-.7-.9.3-1,.1-.3.1-.5-.7-1,0-1.5.2-.1.1-.2.3-1.2-.3-1.6-.1-.8-.2-.9,2.4-1.5,2.3-3.2.3-.9-.5-1.1.3-.8-.2-1.2-.2-.5-.7-.5-.7-.8-.6-1.5,1.2-1.6.9-2.7-.1-.6-.5-.4-.8.2-.7-.4.1-.5-.1-.5-.5.1-.5.4-.3.9.2,1.3a.7.7,0,0,1,.2.9c-.4.6,0,1.1.5,1.4s-.5.2-.6.1-1.3-.3-2-.2h.1a2.9,2.9,0,0,0,.9-1.5c0-.5,0-1-.7-1.1l-.5-.5c.1-.2.3-.5.2-.6s.1-2.6-.6-3.8.1-.5.4-.6-.3.7.3.9c.8-1.3.7-3,1.6-4.3.2.2.4.8.9.7s.3-.8.3-1.2.8-2.2.9-3.3.4-2.6-.1-3.5-.1-1.5-.7-2h-.2c-.1.4.3,1-.5,1s-.4-.6-.5-1,.7-1.2-.1-1.5-.2,1-.9,1a1,1,0,0,1,.1-.9c.2-.3-.2-.5-.2-.8s-.8-.4-1.1-.2-.7.8-.4,1.1-.3,1.2.6,1.5.7-.6,1.1-.7.1,1.1-.6,1.5-.6,1,.3,1.7c-1.1-.1-1.8.3-2.5-.1s-.5-.1-.3.4a1.9,1.9,0,0,1-.3,1.3c-.6.6-.6,1.4-1.2,1.9s.5-.1.6,0,1.5.4,2.3.3.6.2.5.2,0,1.3,0,2-1,.5-.5,1.2c-1.1.5-.9,1.8-1.7,2.5s0-.4,0-.6-.2-.5-.5-.5-.4.3-.3.5-.9,1.6.4,2.1c-.5.4-.3,1-.5,1.5s-.2-.8-.8-.8l-.4,1.9c-.3-.1-.5-.2-.3-.6s.1-.2.1-.4-1.1.5-.8-.5.1-.8-.5-.9-.3-.4-.2-.5a3.1,3.1,0,0,0,.4-2.6c0-.2-.1-.5,0-.6a4.1,4.1,0,0,0,.9-2.8v-.8c0-.5-.2-1.1.4-1.5s.4-.8-.3-1,1.1-.3,1.7-.1.5.2.3-.1-.1-1.3-.9-1.3-.9.2-.8-.1-.5-1.3.3-1.6h.1c.6-.5.8-.5,1.6.1s.9.2.9-.3a24.8,24.8,0,0,0,.3-2.7c-.1-.5-.3-.6-.7-.6s-.2.4-.3.6-.3,1.3-1.2,1.5.5-.8-.2-.8-.2-.3-.2-.3.2-2.2.3-3.3a39.7,39.7,0,0,0,.7-4.8c.1-2,1-3.7.5-5.8a3.6,3.6,0,0,1,.6-2.7c.6-.6,0-1.7.9-2.3s0,.8.5.5.2-.5.1-.8.2-1.4.1-1.8.6-2.7.1-4c1,.5.2,1.5.7,2.1s1.1-.7.6-1.3a2.7,2.7,0,0,1-.6-1c-.2-.6-.5-.1-.7-.1s-.7-1.4.7-1.6.5-1.1.2-1.2-.4-1.9-.2-2.7,1-2.8,1.4-4.3,1.1-1.1.9-1.9l.2-.2c2.1.3.9-1.6,1.3-2.4s-.6-.1-1-.3c1.5-.8,0-1.8.3-3.1l.9,2.4c.7-.3,0-1.2.7-1.4h-.1c-.1.3-.1.5.3.7h.4c-.2,1.3,1,.6,1.5,1a21.3,21.3,0,0,0-.3-2.5c-.1-.8.4-1.7,0-2.6s.5-.1.7-.3.6,0,.5-.4a.9.9,0,0,0-.7-.6c-.5.1,0,.5-.3.7s-.9-1-1,.2-.1.7-.5.5-.2-.5,0-.7.4-.8-.2-1.1-.9-.7-.2-1.1.7.2,1,.4.2.9.7.5a.9.9,0,0,0,.2-1.1c-.4-1,.1-2,.5-3s.4-1.2-.3-1.7a1.8,1.8,0,0,1-.4-1.7c.1-.5.4-1,0-1.5s-.2-.2-.1-.3-.8-2.8.6-4.2.1.5.3.9.9-.6.9-1.1a20.2,20.2,0,0,1-.1-3.5c-.7.8-.3,2-1.2,2.6.5-1.7.4-3.5,1.3-5.1a1.8,1.8,0,0,1,.9-1c.2.9-.6,1.3-.9,2s.3,1.2.3,1.8a2.6,2.6,0,0,0,.5,2.1c.3.4.2.5-.1.8s-.1,1.5-.3,2.3.8.1,1.3-.2,0,1,.5.5a1.6,1.6,0,0,0,.5-1.9c-.7.2-.2,1-.8,1.2.1-2,1-3.8,1.3-5.7s1.2-2.1.8-3.4-.6,1.5-1.6,2c.6-1.2.1-1.2-.9-.9s1.6-.6.6-1.4.2-.6-.2-.6-.4.3-.5.6a1.4,1.4,0,0,1-.5.8,17.8,17.8,0,0,0,.7-3.9c.8.2.2.8.4,1.2s.1.6.5.3a3.1,3.1,0,0,0,0-1.9c-.9-.8-.6-1.8.6-2.1-.5-.6-1-1.1-.2-1.8s-.3-.8,0-1.3.1-2.8,1.1-4c.3.6.7.5.9-.2s1.6-2.6,1.1-4.2a.6.6,0,0,1,.1-.6c1.7-1.7,2-3.9,2.5-6.1.1-.3.2-.6.5-.7s.8-.2.4-.7-.3-.6.2-.7.3-.3.2-.6,0-2.8.4-4.1,1.6-3.2,2-4.9,1.3-1.9,1.2-3.1.2-.2.3-.2.4.2.3.3.2,1.4.5,1.8a2,2,0,0,1,.2,2.3,1.5,1.5,0,0,0,.4,2c.1,0,.1.3.1.4s-1.1,1.5-.9,2.5-.2,1.6,0,1.8a.6.6,0,0,1,0,.6c-.1.3-.1.3.3.5s.1.3.1.5-.3.5,0,.7.5-.2.5-.5.6-.9,1.2-.2.1-.6,0-.7-.4-1.1-.3-1.7,0-1.5,1.2-1.3.3-.4.1-.7-.9-1.2.3-1.6.2-.2,0-.5-.5-1.2.4-1.7a1.6,1.6,0,0,0,.7-1.8,12.3,12.3,0,0,1-.2-3.8l.6-4.6c0-.4-.1-1.3,1-1.4s0-.9-.2-1.4.6.2,1-.7.3-1.8.6-2.7,0-.6.1-.8-1.2-1,.3-.5.1-.3.2-.5-.1-1.2.7-1.4.2-.2.2-.2.3-1.3.2-1.9.8-2,.8-3,1-.8-.1-1V48c.2-.7.2-.9-.2-1.3s1.7-.1,1.9-1.2a1.7,1.7,0,0,0-.1-.7c0-.6-.9-1.5.5-1.7-.5-.7-1.1,0-1.7-.3.9-.4,2-.7,1.7-1.9s.2-1.5,0-2.3a1.1,1.1,0,0,1-.1-.5c.9-1.2.3-2.7.6-4.1s.1-3.1.3-4.6,0-.6.1-.7.5-2,.7-3,.6-2.3.7-3.5.4-1.6,1.8-1.1c-.4-.4-.2-.9-.7-.8s-.6.5-.4-.2-.1-.8.5-.5,1.5.1.9,1.3a1.3,1.3,0,0,0,.2,1c.4.4.3.3-.1.6s-.2,1.1.2,1.6a1.4,1.4,0,0,1-.6,2.1c.2.4.6.1.9.1s.3-.1.4.2-.4.5.1.5.4-.3.4-.6.1-2.3.8-3.3.7-.4.7-1,.1-2.2.1-3.2a4.1,4.1,0,0,0,.2-1.5c-.3-1.4.9-2.9-.1-4.3s-.1.5-.5.6-.5-.1-.7-.3,0-.5.2-.6a17.5,17.5,0,0,1,7.8-5c.7-.1,1.4.1,2.1,0a4.3,4.3,0,0,0,2.8-1.3c.5-.5,1.1-.8,1.2-1.8S66,3.2,66.7,2.4h.2a4.1,4.1,0,0,1,1.5,2.2c.2.9-.5.8-1.1.8h-.7c.2-.3.1-.8.6-.7s.6.1.5-.3-.5-.6-.6-.5-1,.2-.9.9.3,1.2-.1,1.7-.5.9.4.7.3.3.1.4-.4.4,0,.5.3,0,.4.2a2.1,2.1,0,0,0,1.1,2c.5.3-.3.6.1.8s.7.5,1.1.3a1,1,0,0,0,.5-1.2c-.1-.5-.7-1.1.5-.7s.6-.2.3-.6a7.3,7.3,0,0,1-.9-2.5,18.2,18.2,0,0,0,2.7,2.8c.4.4-.2,1-.2,1.6s-.2.5-.2.8a.5.5,0,0,0,.3.5c.2,0,.3-.2.4-.4s.3-1.4.3-2.1.8.5.6,1.1.3.6.5.7.7-.2.7-.3.3-1.8-.4-2.7a2.4,2.4,0,0,0,2.3-.6.8.8,0,0,1,1.2,0c.6.4,1.1-.2,1.5-.6s.4.4.8.3.8-.4,1.3-.3-.8.3-.5.8.5.4.8.3.6-.4.6-.6-.1-1.7-1-2-.2-.5-.3-.7S82.2,6,83,6.1s1.1-.1.4.7.7.5,1.2.5,1.1,0,1.2-.5-.5-.3-.7-.6.7-.2,1-.1.6.4.8,0-.2-1.1.4-1.7-.8,0-1-.5.7-.3,1-.2.9.2,1.4-.6.5,1,1.2.7c-.8.7-1.2,1.8-2.4,2,.5.5,1,0,1.3.5s.8.2.9-.1a2.7,2.7,0,0,1,.5-1.5.5.5,0,0,0-.4-.8c.4-.3.6-.6.4-1.1s-.8,1-.9-.2-.6-.4-1-.1l-.7.6a1.7,1.7,0,0,1-1.4,0c-.1,0-.2-.2-.2-.3a2.4,2.4,0,0,1,1.1-.6,2.8,2.8,0,0,0,1.7-.7,1.5,1.5,0,0,1,.9-.2A23.5,23.5,0,0,0,95,1.1c.7-.2,1.5,0,1.5,1.2a2.3,2.3,0,0,0,.8,1.8c.2.2.7.8.2,1.3s0,1.2,0,1.8,1.1.8,1.7.1.3-.2.5-.1.4-.1.4-.3-.3-.4-.5-.2-.8.3-1-.2-.6-.4,0-.4.7-.4.5-.7-.5.2-.9,0,.5-1.2-.5-1.5c1.1-1.1,2.5-.7,3.7-1.1L107.9.9l4.2-.9A1.8,1.8,0,0,1,114,2c-.1.1,0,.3-.1.3s-.5,1.2.7,1.6-.7-.7-.2-1.2.5,1.4,1.5,1.2a9.6,9.6,0,0,1-2,1.2c.9,0,.5,1.1,1.3,1.2s.5,1.1,1.2.8.2.3.3.3.4-.2.3-.4a.5.5,0,0,0-.7-.4c-.4.2-.7.2-.9-.3s2,.2,1.2-1.3c1.3.1.1,1.2.7,1.7s.1,1.3-.2,2,1.2-.1.9-.8a.3.3,0,0,1,.3-.5c.6.2.8-.3.7-.6s-.6.3-.9.1.1-.6.3-.8a.3.3,0,0,0-.3-.4c-.1.2-.2.6-.5.1s.1-.4.3-.5.2-1,.1-1.5-.6-.3-1-.2h-.9c-.1-.3-.1-.6.2-.7a2.5,2.5,0,0,1,2.4,1,18.6,18.6,0,0,1,.8,4.1,9.8,9.8,0,0,0,.5,1.6c.2.6.4,1.2-.3,1.6a.4.4,0,0,0-.1.7c1.3,1.3,1.2,3.1,1.6,4.7a4.9,4.9,0,0,1-.1,2.4c-.5,1.7.4,3,.9,4.5a6.7,6.7,0,0,1,.4,4.2,1.8,1.8,0,0,0,.4,1.7c1.3,1.1,1.5,2.7,2.1,4l2.1,4.4c.9,1.9,1.9,3.8,2.8,5.8s.3,2.3.9,3.4,0,.3-.2.5a1.3,1.3,0,0,0-.2,2c.8,1.1.2,1.9-.3,2.8s-1.4,1.9-.4,3a1.2,1.2,0,0,1,.1,1.3c-.7,1.2-.4,2.5-.2,3.8a1.3,1.3,0,0,1-.2.8c-1.1.6-.4,1.7-.7,2.4s.2.4.3.6,1.2,2.4,0,4a1.3,1.3,0,0,0,0,1.8c.6.5.7,1.3,1.1,1.9s-1-.1-1.3-.7-1,1.4.1,1.3.2.7.6.7-.9-.3-.7.5.2.6-.1.7-.1-.4-.3-.4-.7-1-1.1,0c-.2-2-.3-4-.6-5.9s-.4-4.1-.9-6.1c0-.2.1-.6-.2-.7a.8.8,0,0,0-.8.3c-.9.7-1.1,1.7-1.6,2.6s-1,1-1.3.1-1.6-1.5-2.4-2.2-.3-.4-.5-.1-.1.4.2.6a22.9,22.9,0,0,1,2.1,2.3c-.2.4-.7.4-1.2.3s-1.3.3-1.2,1.3a88.5,88.5,0,0,0,.9,9,9.6,9.6,0,0,1,0,1.7c0,.2-.7,0-.3.4s.4.5.7.2a.4.4,0,0,0,.3-.6c-.4-.8,0-1.8-.3-2.6a1.7,1.7,0,0,1,.4-1.9,11.4,11.4,0,0,0,2.6-4.2c.6.2-.1.9.2.7s.9.3,1.2.6.3.6.6.4.1-.6-.1-.8-.8-.7-.8-1.3h.5c1.1-.5,1.4.1,1.3,1.1a1.5,1.5,0,0,0,.2,1.3c-.3.3-.4-.3-.8,0,2,2,.5,4.9,1.9,7.3-.9-1.8,1.3-1.6,1.4-2.7s.1.5.2.5h2.4v-.3c0-.3-.2-.1-.4-.2s-2-.5-1.6-1.9,1-.4.9-1c.7.9,1.9,1,2.8,1.4a2.5,2.5,0,0,1,1.8,1.3c.3.6.6.5,1.1.3s1.1-.4,1.3.8.8,4.8,1.3,7.2c.1.5,0,.7-.5.7l-1,.2c-.7.2-1.1-.1-1.1-.9a7.3,7.3,0,0,0-.4-2.9c-.4-.9.6-1.5.8-2.3s0-.5-.4-1c.2,1.4-1.4,1.3-1.3,2.4s-.6-.2-.3.3a17.9,17.9,0,0,1,1.2,6.1c.1.6.7,1.1.5,1.9a5.9,5.9,0,0,0,.7,2.4,5.2,5.2,0,0,0-.2-2.5c-.2-.7,0-.8.6-.8a22.3,22.3,0,0,0,3.6-.5c.6-.1.8.1,1,.8s0,2,.6,2.8.2-.9.5-.8,1.6-.7,2.3.2,1.4.8,1.2,1.9a2.5,2.5,0,0,0,1.3-.4c1.1-1.2,2.4-2.4,2.5-4.2,0-.2.1-.3.3-.2s.7-.1.9.3a2.7,2.7,0,0,0,1.4,1.4,3.6,3.6,0,0,0-.6-1.9c-.4-.3-.3-1,0-1.1s1.3-1.9,2.4-2.5,1.5-2.1,2.3-3.1.2-.6.7-.4.3-.3.2-.5-.3-.8.7-1-.4-.5-.1-1a5,5,0,0,1,2.7-1.9c.4-.2.5.2.6.6s.4.6.7.4.3-.4,0-.7,0-.4.2-.4.3-.1.3.3.4,1.3,1.3.7.5,0,.7-.2.5.3.7-.1-.4-.4-.5-.5-.3-1-.5-1.5l.9-.2c.1.6.9.9.8,1.5s.3,1.2.4,1.9.9.4,1.5.2.8-.4.3-1-.2-1.5-.8-2.1-.1-.3.2-.3.7-.3.6.4.6,1.3.7,2.1.2.2.3.1.3-.4.4-.6-.6-.7.1-.7.4.3.3.7a1.1,1.1,0,0,0,.2.7c.5.7,1.4,1.2,1.1,2.3s.6.6,1,.9,1.6.7.9,1.8a.3.3,0,0,0,.1.5c.2.1.5.1.5-.2s.3.3.5.1.8.9.3,1.6.2.4.3.3.8-.3.3.4-.1,1.1.7,1.3-1.5.1-1.4.8-.2,1.4.6,1.7c.2-1.6.2-1.6,1.3-1.1-.5,0-1.1,0-.8.8s-.2.4-.4.5-.2.3-.1.4h.6c0,.5-1,.3-.7.6s.2,1.8,1.5,1.6a5.8,5.8,0,0,1-.8-2.2c.6-.3.7.3.8.7s.2,1.1.4,1.6-.3,1-.6,1.4-.4.1-.6-.2.6-.1.2-.7a1.9,1.9,0,0,1-2-1.3c-.1-.2-.3-.2-.5-.2s-.2.4-.3.6.1.9.5.8.9.6,1.3.9.2.3-.2.6-.2.3,0,.4.6.6,1.1.3l.2.5c-.2.5-.6,0-.9.1s0,.3.1.4,1.2.7,1,1.5.3,1.6,1.6,1.7c-.7.4-1.8.4-.9,1.5s-.4.4-.6.5-1.3.2-1.2-.7.3-.3.1-.6a.7.7,0,0,0-.6.9c.1.3.2.7.8.5s.7.3,1,.4.6,1.1.9,0,.6.1,1.1.4c-1.2.1-.9,1-.9,1.6s.7.6,1.2.6.3-.1.4.3a17.1,17.1,0,0,0,.9,3h0l-.7-.2c-.2-.1-.4.1-.4.3s.2.1.4.1.5.2.5.5-.3.2-.4.1-.7.2-1,.3,0,.7.5.9.4.4.6.6-.1-1,.2-1.4.9,1.7,1,2.5-.6-.1-1,.1.4,1.3.1,2.2,1.3-.9,1.5.2.3.8-.3.5-.4.3-.6.4a.2.2,0,0,0,.1.4c.2.1.5.1.6-.1s1.7-.2,1.3-1.4.2-.2.2-.2.4.2.3.4.8,1.8-.6,2.2-.1.3,0,.3,0,2.5,1,3.4.1,1,.1,1.5,0,1.1.7.9,1.5.1,1.3-1.1c.3.5.6.9.2,1.4s-.2.8.3.8.9.5,1.4.5.5,1.3,1.1,1.7-.3.9-.8.2-.3-.6-.5-.1-.8.3-.2.9,1.2.4.7,1.2.3.4.5.3,1.1,0,1.1.8a.8.8,0,0,0,.4.6c1.2.2.7,1.1.8,1.8s.8.6.6,1.4-.7,2.2.5,3.2c-.8,1-.1,1.5.7,2s.1.4-.1.6-.1,1.1.8,1.4l-1,.4c-.2.1-.4.2-.3.3s.4,1.2.5,1.8.3.4.5.3,1.4.2,1.5.9.6.3.4.8-1.4-1.2-2.4-1.3.3.7.6,1.1-1.6.1-2.3.1-.3.3-.4.4,0,.3.2.4a2.3,2.3,0,0,0,2.2.5c.4,0,.5,0,.4.5s.6.8.7,1.5a6.5,6.5,0,0,0,.6,3.3c.2.5.3.9.8.3s1-.5,1.1-1.3c1.4,1.7.3,3.4,0,5.1-.8-.6-.6-1.8-1.5-2.2s-.4-.8-.9-.4a1.8,1.8,0,0,0-.5,1.2c0,.3-.6,0-.5.4s-.2.7.1.9a.7.7,0,0,0,.7-.2c.2-.3.5-.2.8,0s-.1.4-.2.6.1.4.3.4,1.4.9,1.9,1.8c.3-.8-.7-1.9.7-2.1s.7.6,1,1.1-1-.7-.8.3-.5,1.6.4,2.2.4.4.6.1a.6.6,0,0,1,1,.1,1.3,1.3,0,0,1-.5,1.4c-.2.2-1-.2-.7.5s.7.2,1.1-.1.4-.2.6,1-1.5-.3-.8.9.3.8,1.3,1.2.2.4.2.6-.1.8-.6.9.3-.6.1-.6-.8-.9-1.5-.9a6.4,6.4,0,0,1,.3,2c0,.2,0,.5.3.5a.3.3,0,0,0,.3-.5c-.2-.6,0-.7.5-.6a1.5,1.5,0,0,0,.1.7c.1.3.1.7.4.7s.1-.6.4-.7.5.7.4.9-.6-.1-1,.2.2,2.4-.4,3.8c1.2-.9,1.4-.8,1.5.5a13.6,13.6,0,0,0,.2,2.1c.2.8.9,1.5.2,2.5s.2.4.5.3,1.7-.2,1.6,1.3.9.3,1.2.8.7.1,1.3.2a13.3,13.3,0,0,1-2.3,1c-1,.2-.4-1.3-1.2-1.3-.7,1.5-.6,1.7,1.5,2s1.2.1,1.3,1a1.6,1.6,0,0,0,1.3,1.5c-.2.4-1.1.6-.4,1.2s0,.3-.2.4-.7-.5-.5.2.4.2.7.2,1.2.9,1.1,1.8-.3-.8-.7-.9,0,.4-.1.7-.6.6-.2.6,1,.7,1.3-.1.1.5.2.8,1.1,1.7.3,2.6.1.4.3.6.9.9.2,1.6-.7.6-.1.9,1.5,1.4,2,2.2l.9,1.5c-.4-.4-1.1-.3-1.7-.8s-.3,1.7,1.1,1.7.4.9.3,1.2.1,1.3-1,1l.3-1c.1-.3,0-.6-.4-.5s-1.4-.8-2-1.3-.1-.4-.3-.4a.5.5,0,0,0-.4.5.9.9,0,0,1-.4,1.2c-.3.3.2.6.4.6s1.2.7,1.1,1.5-.3,1.1.4,1.5-1.1-.2-1.6.5a5.9,5.9,0,0,0,.1-1.1c0-.2-.3-.5-.4-.4s-.6,1-1,1.4.1.8.7.6.9.7,1.5.3,0,.8-.4.7a4.7,4.7,0,0,1-3.1-1.6c.3-.4,1.6-.6.2-1.2s.7-1-.3-.9a.8.8,0,0,0-.5.9c-.5,0-1.1.2-1.4-.3s-1.3-.5-.7-1.4.1-.1.1-.2c-1-1.7-.1-3.6-.5-5.4,0-.1-.2-.1-.4-.2a3.3,3.3,0,0,1,1-.6c.3-.1.3-.5,0-.8s-.5-.3-.6.2-.7.2-1,.4.8-.4.8-1,.6.1.3-.3a.4.4,0,0,0-.6-.2l-.9.9c-.4.6.2.5.4.5s-.2,1.1.7.9-.3,2.2-.4,3.3.1.7-.2,1-.6-.3-.9-.4-1.6-1.1-1.1-2.3.1-1.2-.6-1.2-.6.4-.6,1-.1,1.1-1,.6-.7-.2-.8.2.2.4.5.5.8.4.5,1-.5.9-1.1.7-2.8-.1-3.8-1.3-.8-.2-1.3-.1a7.7,7.7,0,0,1-3-.3,11.3,11.3,0,0,0-2.6.1c0-.6.4-.5.7-.6s.3-.6.4-.9,0-.2-.2-.3-.5.2-.6.5a2.5,2.5,0,0,1-.4.7c-.2.1-.3.6-.6.3s-.5-.2-.3-.6-.1-.5-.2-.8-.8-1.2.5-.8.3-.4.3-.6h.4c.5.2,1.7-.3,1.2,1.1a14,14,0,0,1,1-1.6c0-.1.2-.2,0-.4a2,2,0,0,1-.6-2.4v-.2c-1.5-1.2-1.1-2.9-1.2-4.4s0-.4-.2-.4-2-1.1-2.9-1.8-1.1-2.5-1.4-3.9,0-.3.1-.3,0-1.4-.2-1.8a4.3,4.3,0,0,0-1.2-1.1,1.9,1.9,0,0,1-.7-2.2c.1-.2.1-.4-.1-.5s-.4,0-.5.1-1.1.2-1.3-.1a5.8,5.8,0,0,0-2.1-2.3,1,1,0,0,1-.5-1.2c.2-.7.8-.6,1.2-.6a4.5,4.5,0,0,0,2.3-.8c-2.5-.3-4.7.7-7,1.4.2.2.2.3.3.2,2.2-.7,2.8,1.2,3.8,2.5a3.6,3.6,0,0,0,1.1,1c1.6.8,1.9,1.9,1.4,3.7a14,14,0,0,0-.9,2.9c0,.6.1.9.5.9s.4-.4.3-.8a.5.5,0,0,1,.5-.5h0c.4,1.1-.1,2.2-.4,3.3s-1.2.5-1.9-.1-.5-.1-.5.1-.5.9-1,.8-.5-.8-.5-1.2-.1-.2-.2-.4h1.1q-.3-1.3-1.5-.9c-.5.1-.5.1-1-.3s-.4,0-.5.1a3.6,3.6,0,0,1-.4.9c.1-.4-.9-.8.1-1.3s.1-.6-.1-.5-.6-.2-.8-.3-1,.1-.7.6,0,.7.2.9a1.6,1.6,0,0,1-.6,2.3c1.2-.1,1.8-1.2,2.8-.8s-.4-.6.1-.9.7,1.9.9,2.9-.7,2.8-.2,4.2.2.8.4,1.1a5,5,0,0,1,.9,2.9,1.6,1.6,0,0,0,.4,1.3,3,3,0,0,1,.2,3.5,3.5,3.5,0,0,0-.6,2.6,1.6,1.6,0,0,1-.8,1.6c-.3.1-.5.2-.4.5s-.5,2.2-.3,3.3a2.2,2.2,0,0,1-1.1,2.1c-.5.4-.6,1.2-1.5,1.3s-.7.9-.5,1.6.8.6.2.8-.6,1.8-1.7.6h0c1.5-1.1,1.5-1.1,0-2.1l-.2-.4c.1-.8-.3-.8-.9-.9s-.7.5-.8,1l-.3.2a2.2,2.2,0,0,1-.2-1.6c.1-.3,0-.6-.3-.6s-.4.3-.4.5,0,1.1-.9,1.1-.2.5-.2.8a.4.4,0,0,0,.5.5c.4,0-.2-.5.2-.7s.1.9.5,1.3-.1.5-.5.3l-2.9-1.4,1.4-.5c.1-.7-1.4-.8-.7-1.7a1.1,1.1,0,0,1-1.4-.3c-.8.7-1.4-.5-2.2-.3a4.4,4.4,0,0,1-2.7-.7c-.2-.2-.4-.3-.4-.6s-1.1-1.7-2.3-2.5c.4,1.1.4,2,1.4,2.4l.5.5c.4,1.4,1.2,2.8.8,4.4l-.9,4.4c-.3,1.2.2,2.4-.2,3.6s0,2.4.2,3.7a5.4,5.4,0,0,1-1.9,5.4,1.8,1.8,0,0,0-.3-1.2c-.1-.2-.6-.2-.5-.1s-.9.9-.8,1.7c.5-1,1.2.2,1.7-.4a2.8,2.8,0,0,1-1.6,1.4c-.3.2-.6.5-.3-.2s-.2-.2-.3-.2-.3.6-.5.9a.3.3,0,0,0,.3.5,1.3,1.3,0,0,1,1.3,1l.3.2c.1.2.6-.7.5.2s-.6.1-.8.4h-.1a1.5,1.5,0,0,1-.5,2.1c-.3.1-.3.1-.3-.2s.1-.3-.1-.2-.7.9-1.1,1.3,0,.6.5.7.1.3,0,.5-1.4,1.3-2.3.4.1-.3.3-.4,1-.1,1.1-.7-.9-.1-1.1-.6-.2-.4-.6-.3.2,1.3.3,2-.5.8-.2,1.7a1.5,1.5,0,0,1-1.3-.1c-.1-.1-.5-.1-.5.2s.1.3.3.4c1.8.8,1.8,1.7.1,2.9a1.3,1.3,0,0,1-1.2.5c-.2-.4-.6-.1-.9-.2s-1-1.3-2-.6-.2.7-.7.3-.2-.4-.1-.8a2.2,2.2,0,0,0-.7-2.2,2.2,2.2,0,0,1-1,2.6,2,2,0,0,0-.3,2.6.8.8,0,0,1,.2.5l-1.6-.5c-.1.7.4.7.7.9s.5.1.4.5-.4.2-.6.2-.6.1-.7.5-.4.5-.5.4-.4-.3-.4-.6.8.1.6-.2a4,4,0,0,1-.3-1.9c0-.7-.9.2-1.1-.4s-.6.3-.4.6-.1,1.8,1.2,1.7v.2c-.8.4-.8.4-1.2,1.3s-1.1-.7-1.1-1.4-.4.3-.3.5a1.1,1.1,0,0,1-.7,1c-.4.2-.5-.1-.7-.4l-.4-.2c-.3.1-.2.3-.1.5s-.5.6-.7.6-1.8.3-1.1,1.6l-.6-.5c-.2-.2,0-.7-.5-.5a.7.7,0,0,0-.2.9c.4,1.1-.4.8-1,.8s1.4.2,1.8,1.1c-1.2.1-1.9,1.8-3.5.9.5-.4,1.5.2,1.8-.8s-.8.1-1.2,0-1.5-1.1-1.2.5-.4.6-.7.1.4-1.4-.3-1.6-1.4-1-1.7.4h1.7c-.9.7-1.8-.2-2.4.5s-.1-.3-.1-.4a4.8,4.8,0,0,1,.5-1.1c-1.1.9-1.7.2-2.3-.3-.3,1.1-.3,1.1.6,1.2s-.9.4-.7,1-.9.7-1.5.5-.3.4,0,.7.4-.1.3.1-.4.2-.6.4-.1-.2-.2-.3.1-2.5.1-3.7a9.7,9.7,0,0,0,.2-2.4c-.2-1.2.3-2.3,0-3.4s.4-.9,1-.8l1.1-.2c.9-.2,1.7-.3,1.5,1.1s.6,1.3.7,2c-.1-2.2.3-4.3-.3-6.4a4.8,4.8,0,0,0-.7,2.6,3.1,3.1,0,0,0-1.9-.1c-.9.2-1.5.1-1.4-1.1s-.2-2.8-.2-4.3-.1-.8-.6-.7-.5.4-.3.8a3.4,3.4,0,0,1,0,2c0,.9.5,1.7.4,2.6s-.2,1.4-1.2,1.1-.2.1-.3.1c-1.7.1-1.9,0-2.4-1.8-.8,1.9-.4,3.6-.1,5.5,1-.6.5-1.5.5-2.2s.1-.7.5-.7a10.8,10.8,0,0,0,1.9-.3c1.2-.1,1.2.3,1.3,1.4s-1.9,3.5-2.9,5.2-.8,1-.9,1.8,1.1-1.7,1.7-1.9,1.1-1.3,1.6-1.9c-.2,1.7-.2,3.4-.4,5.1a26,26,0,0,0-.5,3.9c-.1.8-2.3,1.9-3.1,1.4a2.1,2.1,0,0,0-1.5-.4c-1.1.2-.9-1-1.6-1.3h0c-.1-.2,0-.5-.3-.6s-1-.1-.5-.8a.5.5,0,0,0-.3-.7c-.2-.1-.4-.2-.5-.1s-.5-.3-.8-.1a2.7,2.7,0,0,0,0,1.8,1.5,1.5,0,0,1-.6-1.4c0-1.7-.1-3.3-.2-5,0-.2.1-.6-.3-.6s-.3.3-.4.5c-.4,1.8-1.7,3-2.7,4.7-.3-1.3,0-2.5-.4-3.6s0-.4-.3-.4l-.4.4a5.5,5.5,0,0,0,.2,1.8,33.9,33.9,0,0,0,.2,4.5.8.8,0,0,1-.6,1.1,3.7,3.7,0,0,1-2.1,0c-.4-.2-.1-1,0-1.3a9.6,9.6,0,0,0-.1-3.4,28,28,0,0,1,0-2.9,1.1,1.1,0,0,0-.8,1.3c.1,2.8.1,5.6.1,8.4s0,4.2.1,6.4c.4-.6.8-.9.6-1.8s.1-1.6,0-2.5.5-.3.7-.3,1,.4,1.6.1a.4.4,0,0,1,.5.3c-.2.7.6,1.5-.4,2.4a11.1,11.1,0,0,0-2.7,2.6c-.4.6-1.2.6-1.4,1.3s.2-.6-.1-1-.4-.8-.6,0-.2.2-.4.1-.3-.2-.5,0,0,.4.2.5.6.2.1.4-.4.1-.3.4.1.3.5.2.5.2.2.4a11,11,0,0,0-2.6,3.1c-.7,1.2-2.5,1.3-3.8.5h-.1a9.3,9.3,0,0,0-4.7-2.2c-1.7-.2-2-1.3-1.9-2.5s-.6-.8-.7-1.4a6.7,6.7,0,0,0-2-3.3c.1,1.9-.5,3.7-.2,5.7a6.2,6.2,0,0,1-1.2-.8,4.9,4.9,0,0,0-3.3-1.6c-1.7-.3-3.5-.2-4.8-1.6s-1.1.1-1.5.4-4.3,1.1-5.6.2a1.1,1.1,0,0,0-1.1-.3,8.1,8.1,0,0,1-4.1-.1c-.8-.2-1.7.4-2.6-.3s-.4.5-.9.6-3.1.1-4.6.6a1.3,1.3,0,0,1-1.1-.3,1.3,1.3,0,0,0-1.2-.2c-1.7.6-3.4.9-4.8,2.2a5.4,5.4,0,0,1-2.2.9c-1.7.3-1.7.6-2.1,2.4a11.5,11.5,0,0,0-.3,2.6c0,.6-.7.7-1.2.8s.1-.7-.4-1a1.5,1.5,0,0,1-1.2.9,1.2,1.2,0,0,1-1.4-.7.7.7,0,0,0-.6-.3,3.4,3.4,0,0,1-2.7-1.5l-.3-.3c-1,.8-2.2.1-3.1.6s-.4.3-.7-.1-1.2-.5-.9-1.3.4-.3.6-.4h-.1a2,2,0,0,0,.4.8c.1.2,0,.8.6.5a.4.4,0,0,0,0-.7c-.7-.4.1-.3.1-.5s.6.3.7-.3.3,0,.3,0-.1.6.3.6a.4.4,0,0,0,.2-.7c-.1-.1.1-.3.2-.3a1.3,1.3,0,0,0,.3-2.3l-.8-.7h.6c.4,0,.7.8,1,.3s-.4-.6-.7-.9h-.2c-.3-.1-.6-.7-.9.2a1,1,0,0,0,.4,1.2c.6.8-.3,1.3-.3,1.9s-.3,0-.4,0-1.1-1.6-.5-2.1.2-.2,0-.4-.8-.9-1.2.1l-1-.8c-.9-1.2.6-.7,1-1.2s-1-1.1-1.5,0c-.1-1.2.6-2.2.5-3.4s-1.8.3-2.2-.9-.3-.2-.4-.2-.4.4-.3.5.2,1.9.4,2.9l.3-.2c.1-.2-.1-.5.2-.6s.5,0,.5.3-.2.3-.3.5-.8.4-1.3.5,1.1.5,1.4,1.1-.8.2-.7.7h0c-.3-.4-.5-1.1-1.3-.5s-.4-.3-.5-.4.3-.2.4-.4.4-.4-.1-.6-.6.4-.4,0-.3-1,.2-1.4.2-.6-.2-.7a1.4,1.4,0,0,0-.9,0c-.3.2.1.5.2.8s.7,1.2-.5,1.4-.6.3-.3.6h.1c-.2-.1-.5.5-.6-.1s-.2-.8.4-.8.6.1.6-.4,0-.3-.2-.3-.9-.2-.9.1-1.5,1.1-1.4,2.2a1.2,1.2,0,0,1-.1.8,3.3,3.3,0,0,1,.1-2.4c.1-.5,0-.9-.4-1s-.2.5-.2.8a11.8,11.8,0,0,0-.3,4.2c0,.3-.3.6-.7,1,.2-2-1-3.1-2.3-4.1.6-.3.4-1.4,1.4-1.3s0-.5-.2-.5a3.1,3.1,0,0,0-2.1.5c-.3.2-.2.9.1,1.3h-.4c-.2-.2-.1-.7-.6-.8a.3.3,0,0,0-.3.5c.2.4-.6.7.2,1.3s1.8.9,1.5,2a11.1,11.1,0,0,1-.5,2.5,1.9,1.9,0,0,0,.4,2.4c-.5.3-.6-.3-.9-.2s1,1.3.2,2a1.7,1.7,0,0,1-1.9,0c-.1-.1-.1-.3-.2-.3s-1.2-.5-1.1-1.7S12.1,270.8,11.9,270.7ZM105.8,6c-.2.1-.5.1-.4.5s.7.5,1.2.6.7.5.8,0-.4-.6-.8-.5-.8-.1-.8-.6.9.2,1.4.3.4-.2.5-.5a.4.4,0,0,0-.3-.4C106.9,5.6,106.2,5.6,105.8,6ZM17.2,158.6c-.5.3-.1,1-.4,1.3s-.4.3-.1.5h.5a1.3,1.3,0,0,0-.1-1.9.4.4,0,0,1,.7-.1c.2.4.4.2.5,0s.1-.5-.1-.5-1.1-.9-2-1.3C16.8,157.4,16.4,158.2,17.2,158.6ZM58.4,14.2c.3.4-.1.9,0,1.4s.6-1.2,1.1-1.5.4-.5,0-.7-.4.2-.5.3-.3.6-.7.6v-.6c-.7.2-1.3-.3-2,0s-.2.2-.2.5.2.3.4.3S57.8,14.7,58.4,14.2ZM38.2,69.7a4.6,4.6,0,0,0,.3-2.3c-.1-.2.3-.5,0-.8H38a.7.7,0,0,0-.3.8,3.4,3.4,0,0,1,.1,2c-.1.3.3.2.4.2s-1,.1-.5.7.2.6.1,1,.2.7.4,1S38.9,70.2,38.2,69.7Zm2.5,14.1c.5.3,1,.5.9,1.3s.5-.9.1-1.4-.9-1.4-.2-2.2,0-.3-.2-.4a.8.8,0,0,0-.7.1c-.1.3-.3.9-.1,1s.3,1.1.2,1.6-.7-.1-.9.3-.2.6.2.7.2.2.1.4-.4.6.1.9.3.1.4-.1a.8.8,0,0,0,0-1C40.2,84.5,40.3,84.2,40.7,83.8ZM13.6,215.6l-.2-.4c-.5.3-.9.4-1.3-.1s-.3.1-.4.1-.1.3-.1.4a2.3,2.3,0,0,0,.8,1.1c.4.2.7-.1.6-.3s.5-.5.6-.8.1,1.6-1.1,2.1l1,.2c.7.8.7-.1.7-.3s0-.8.8-.7a.5.5,0,0,0,.5-.3ZM26.4,103.8c-.4-.1-.7-.3-.7.4s.2,1.4-.6,1.9-.4,1.2.3,1.6a5,5,0,0,0,1-3.9c.2-.4.7-.9-.1-1.2a2.2,2.2,0,0,0-1.9.5c-.4.2.2,1.4.8,1.8s.2-1.2-.5-1.6C25.5,103.1,26,103.2,26.4,103.8ZM90.2,267.2c-.2.5-.4.6-.9.4s.2-1.2-.5-1.6-.3,1.6-.6,2.4.2.2.3.3h.3c-.2-1.2.5-.4.8-.4s1-.1,1.1-.7.2-.5.5-.4.6.1.6-.3-.3-.3-.6-.3-.6,0-.6-.5-.3-.7-.4-1.2-.6-.2-.9-.1-.3.5-.2.4.3.4.2.6,0,.3.2.3a.7.7,0,0,0,.4-.2c.2.2,0,.4-.1.6S89.4,267.3,90.2,267.2ZM28.2,85c-1.2-.2-1.7.2-1.5,1.4a1.7,1.7,0,0,1-.1,1,1.3,1.3,0,0,0-.1.6c.9-.5.6.6,1.3,1s1-1.5-.5-1.7c.4-.4-.2-1.2.4-1.5s.5-.4.4-.9.3.8.7.1.3-1.3.5-1.9H29ZM94.8,4.1c.7-.9-.9-1.2-.6-2-.9,1.3-.7,1.4-2.7,1.2-.2.5.8.4.5,1s.2.2.3.1,1-.2,1.5-.2-.7.9.2.8a7.4,7.4,0,0,0,2.1,0C95.6,4.7,95.4,4.1,94.8,4.1Zm56,187.1c-.3.4,0,.9.2,1.2a1.7,1.7,0,0,1,.3,1.8c-.1.4-.1.6.3.8s.8.8,1.3.5.7-.3.5-.7-.2-.9-.8-.6-.4.2-.6,0,.8-.3.4-.6-.3-1.5-.6-2.1-.4-.7-.9-.4-.1-.3-.2-.4-1.6-1.2-.3-2.1,0-.5-.2-.6-.5-.1-.5.2,0,.3-.2.4-.3,1.3-1,1.7,1,.8,1.7.8Zm-127-75.3c.1.8-.1,1.2-.9.8a.8.8,0,0,0-.9.2c0,.1-.1.2,0,.3s.2.2.2.1.7,0,1.1,0,.9-.7,1.2-1.2.2-.8-.4-.6.2-.7-.2-.7-.4-.4-.4-.6.4-.3.6-.2.5-.3.7-.1,1.1-.3.6.6.1.3.2.4a.5.5,0,0,0,.6-.3,3.2,3.2,0,0,0-.1-1.9c-1,1-1.7,1.1-2.9.2-.6,1.3-.5,2.1.3,2.5s-.8.1-1.2.5S23.3,116.4,23.8,115.9Zm80-112.6c-1.6-.5-1.7-.5-2.4,1.1s-.2.2-.3.2c-2-.8-.5,1.1-1.2,1.3s.8-1.1,1.7-.4,1.1-.4,1.6-.7.1-1.1.6-1.5.7.6.5,1.2-.6-.6-.6,0-.5,1.1-1,2.1c1.7-1.8,1,.4,1.8.3s1.6-1.5,1.2-2.9.9.1.5-.5-.7-.1-1.1,0S104.2,3.7,103.8,3.3ZM31.5,91.9c0-.3,0-.7-.5-.5s-.7-.1-.7.5a1.2,1.2,0,0,1-.8,1c-.2.1-.6-.1-.4.4s.2.9.7.4.5,0,.7.2-.6.4-.1.6.3-.4.6-.4.9.1,1,.7a1.6,1.6,0,0,0,.5-.9c0-.5-.1-1.1.2-1.4s.5-.5.1-1.1-.6-.9,0-1.3,0-.7-.2-1l-.7,1a4.9,4.9,0,0,1,.6-1.7c.2-.7.7-1.6.3-2.1s-.8.6-1.3.9h-.2c-.2-.2.3-.8-.4-.7s-.4.4-.2.8a2.3,2.3,0,0,1,.3,1.8c-.6,1.3.2,1.1,1,1S32.4,91.5,31.5,91.9ZM18.8,209.7c-.3,0-.2-.6-.6-.5s-.2.4-.2.7.1.8-.4,1.1-.4.4-.1.5a1.2,1.2,0,0,1,0,1.6c-.8,1.1-.3,2.2-.7,3.5.6-.5,1.3-.5.8-1.4s-.1-1.2.3-1.1,1.4-.8,1.7,0,.6.5.8.8l.2-.3c-.3-.3-.2-.8-.7-1.1a1.9,1.9,0,0,0-1.5-.1c.6-.3-.6-2.1,1.3-1.2a1.3,1.3,0,0,0-.7-1.8c-.3-.2-.2-.5-.2-.8s1.5-.1,2.3.1.5-.2.2-.5A1.9,1.9,0,0,0,18.8,209.7Zm22.3,58.7c1.2-.3,0-1.4.6-1.9s-1.2.3-1.1,1.1h-.3c-.3.6-.6.8-1.1.7a2.1,2.1,0,0,0-1.6.6c-.4.4.1,1,.5,1.4a1.7,1.7,0,0,1,.7,1.5c-.4-.4-.5-.9-.9-.8s.5.4.2.8l-.6-.3c-.1-.2-.2-.6-.5-.3s.1.4.2.6.6.8,1.2.5a9.6,9.6,0,0,0,2.1-1.4c.1,0,0-.1-.1-.1s-.6-1.3.5-1.7S41.2,268.7,41.1,268.4Zm84.3-90.8c-.8.7-1.7.1-2.5,0s-.1-.8-.1-1.2a.4.4,0,0,0-.1-.3c-.3-1,.1-1.2,1-1.2a10.4,10.4,0,0,0,3.5-.3c-.3-.5-.7-.4-1.1-.5a24.8,24.8,0,0,0-2.7.3c-.6,0-.8-.1-.8-.8a4.7,4.7,0,0,0-.1-1.7c-.1-.3.1-.9-.5-.8s-.4.6-.3.9.1,2.6.2,3.9a6.7,6.7,0,0,0,0,2c.4.8,1.2.5,1.9.6h.2c.9.4,1.5,0,1.4-1s.3,1.1,1,.9,2.3-.1,3.4-.7.6.1.4-.3-.4-.2-.6-.1a10.8,10.8,0,0,1-3.1.1c-.6,0-1.1-.1-.4-.8s0-.4-.3-.4S125.5,177.2,125.4,177.6Zm-.9-9.9c0-.2.2-.5-.2-.7a4.2,4.2,0,0,1-1.6-2.5c-.1-.3-.2-.7-.7-.8a4.2,4.2,0,0,0,2.5,4,.7.7,0,0,0,.4.7c.8.2,1.5.5,1.1,1.6s.2.6.6.7c.2-1.7.2-1.7,1.5-2.6l1-.7a3.6,3.6,0,0,0,.9-3.4c-.1-.1-.2-.3-.4-.3s-.3.3-.2.5-.2,1.2-.1,1.8-1.4,2-2.2,1.9-.4-.3-.4-.6a24.3,24.3,0,0,0,0-2.7c-.2-1.3.1-2.7-.4-4-.6,2.5,0,5-.4,7.4C125.4,168,125,167.6,124.5,167.7Zm29.1-43.8a1,1,0,0,0,.1-1.6c-.6-.5-.9.2-1.3.5s-.4.2-.2.4.3.2.4.1.8.2,1.1.6-1.2,1.4-2.1.8-.4-.1-.5.1-1.7.5-2.5-.1-.5-.7-1.3-.5,1.1.6,1.2,1,.9.7,1.6.7,2-.5,3-.7.6.8.9,1.2-.2.5-.6.5a24.7,24.7,0,0,1-3.8.5c-.8,0-2.1,1.2-2.6-.9-.4,1.8-.2,1.9,1.2,1.6a3.8,3.8,0,0,1,4,1.1c.2.1.1.5.6.2l-.9-1.7c1.1-.1,2.7-1,2.6,1.3.4-.1.5-.3.5-.6s-.6-2.7-.8-4S153.8,124.1,153.6,123.9ZM128.1,97c-.2-1.6-.4-1.8-1.8-1.4a4.9,4.9,0,0,1-1.7.1,27.3,27.3,0,0,1,1.4-5.8c1.3,1.1,1.7,2.9,2.9,4.1.3-.4.1-.6-.1-.8l-2.6-4.1c-.1-.1.2-.5-.3-.4s-.4.2-.4.5a36.9,36.9,0,0,1-1.1,4.5c-.1.8.2,1.8-.7,2.5s.1.5.4.5l1-.2c1.5-.5,1.5-.5,1.3.9h.2l.7-1.2c.5,0,.2.9.8.7.3,1.3,1.4,2.2,2,3.4s1.9,3,1.6,4.9c-1.3-.6-1.8-1.7-2.6-2.6s-.9-.9-.3-1.6.1-.6-.3-.7-.3.2-.4.5-.1,1.3-.2,2,.1.4.3.3.8.2,1.1.5,1,.9,1.2,1.5-1,.6-1.2,1.3.8-.3,1.1-.4.4-.4.8-.2,0,.6,0,.9-1.2,2.6-2.4,3.8.5.1.6,0a4.8,4.8,0,0,0,2.5-3.4c.2-1.3.8-2.5.3-3.8a32,32,0,0,0-2.9-5.1C129,97.9,128.9,97.1,128.1,97Zm15.7-.3c-.2-.3-.4-.7-.6-.8s-1-.6-.7-1.4-.1-.4-.4-.4-.2.3-.1.5,0,.3-.2.4L140,93.6a5.4,5.4,0,0,0,2.3,2.4c.4.3.8,1,1.5.6s1,1.5.3,2.3,0,.2,0,.3.7,2.5.6,3.7.1.3.2.3a.2.2,0,0,0,.2-.2c.2-.2.1-.5.1-.7s-.3-2.1-.1-3.2.7-1.1.9-1.8a12,12,0,0,0,.5-5.3c-.6.1-.1,1.4-1.2,1s-1.2.6-1.8.8-.4,1.8,1,2.2c-.3-1-.6-1.9.4-2.5h.7c.2.2.4.3.2.5S145.7,96.7,143.8,96.7ZM119.2,218.9c.4-1.2-.6-1.9-1.1-2.8s-.5-.1-.5.3-.6.7-.9.8.2-.6-.4-.8a7.3,7.3,0,0,1-1.5,3.2c-.8,1.1-.8,2.4-.8,3.9.6-.5.4-.8.5-1.2s.3-3.1,2.4-3.3l.4-.3c.3-1.9.9-.9,1.6-.2l.3.3a3,3,0,0,0,.5,1.6,8.1,8.1,0,0,1,1.3,5.1,1.2,1.2,0,0,1-.8,1c-.8.3-1.8,0-2.6.3a1.9,1.9,0,0,1-2.6-1.2c-.2-.3-.3-.7-.7-.6s-.1.6.1.9a1,1,0,0,1,.3,1.2,1.1,1.1,0,0,1-1.3.5,2.1,2.1,0,0,0-1.8.7c1.3-.4,2.7.2,4.1-.4s.6-.2.7.4,1.3.6,1.6.4,3.5-1.1,5.3-1.5c.2-.1.6.1.7-.3s-.4-.4-.7-.4a.7.7,0,0,0-.8-.1c-.7.3-.9-.2-.8-.8.3-2.3-.7-4.2-1.4-6.2S119.7,218.6,119.2,218.9ZM86.9,92.4c.4,0,.6-.1.7-.5a.5.5,0,1,1,.9.3c0,1.5.6,3.1.6,4.6s-.1,3.3-.1,5-.1.6.3.6.5-.3.4-.8a12.2,12.2,0,0,1,0-3.3,46.8,46.8,0,0,0-.4-6.6c-.1-.5-.6-1-.3-1.5a9.5,9.5,0,0,0,.9-3.4,11.6,11.6,0,0,0-.9-4.9,1.2,1.2,0,0,0-1.4-.9c-.6,0-.3.8-.4,1.2s0,.8-.1,1.2-.1.6.3.6.2-.4.2-.6l.3-1.4h.3a10,10,0,0,1,.3,7.4c-.3-.1-.3-.3-.4-.5a9.2,9.2,0,0,0-1.6-3.1c-.2-.1-.4-.6-.6-.1s-1,2.4-.9,3.7-.1.5.1.5a.5.5,0,0,0,.6-.3,13.8,13.8,0,0,0,.3-2,.4.4,0,0,1,.4-.6c.3-.1.3.3.4.4l1.1,2.1a1.4,1.4,0,0,1-.4,1.8c-.4.2-.8.6-.6,1.1s-1.6,1.2-2.6,1.9C85.8,94.2,86.7,93.7,86.9,92.4Zm74.6,73a.8.8,0,0,0,.6-1c-.1-.2-.2-.4,0-.6s.7-1.4,1-2.2.1-1.1.9-.6.6,0,.5-.3.3-.8-.2-.8-.5.1-.4-.3,0-.8.5-.8.5-.1.2-.4-.2-1.7.2-2.4a1.8,1.8,0,0,0,.2-1.4c-.1-.9-.6-1.7,0-2.6s.3-.5-.2-1.3v-.3c0-.3.8-.3.3-.5s-.9-.8-1.5-.4-.8.4-.1.7.4.6.1.8-.3,1-.1,1.2.2.5,0,.9a5,5,0,0,0-1,3.5c.2,1.9.1,2.8-1.3,3.7s-.5.9,0,1,.7.4.6,1-.2,1-.6,1.2-.6.6-.2,1a1.1,1.1,0,0,1,.5.9c-.5-.4-1-.5-.7.3s-.3,1,0,1.4.3-.6.7-.6.4-.4,0-.7S161.5,165.5,161.5,165.4ZM22.8,241.8l-.3.3c.1.6-1,.7-.6,1.5h-.4c-.4-.2-.7-.3-.5-.8s0-.4-.2-.5-.4.2-.5.3.6,1.7,1.7,1.4.4-.2.6,0a.5.5,0,0,1,.1.6c-.2.2-.5.5-.2.7s.5,0,.6.2-.4.5-.3.6-.3,1.6.6,1.9-.1-1.1.5-1.4-.3-1.2.3-1.7.2-.2,0-.4-.3-.4,0-.7.6,0,.5-.2.3-.7.5-1,.8-.3.3-.9-.1-.8.3-.9.8-.4,1.2,0-.3.5-.4.8.3.8.6,1.2.6-.1.9-.2v-.4c-1.2-.1-.6-1.2-.6-1.6s-1.3-1.5.2-2.5c-1,.2-1.5.3-2.1-.3s-1-.5-1-1.2-.6.8-.8.4-.8-.6-1.3-.6.6-.6.6-1.1-.3-.6.1-.7.2-.7.3-1-.1-.7-.4-.6-.4.4-.3.7.1.8-.5.5-.5,0-.5.2.3.2.4.4.3.3.1.5-.1.8.2,1.1-.4.1-.2.4a7.8,7.8,0,0,0,1,1.5c-.5-.1-1.2.2-1.2-.7s-.6-.3-.6-.2-1,1-1,1.8.1.6.3.6.7,1.1.7,1.8-.3.5,0,.6a.4.4,0,0,0,.4-.4c.1-.6.8.1.9-.4v.5ZM173.5,147a3.5,3.5,0,0,0-2.4,1.9c-.2.9-.5.9-1,.3A9.7,9.7,0,0,0,167,147c-.4-.2-1-.5-1,.3a4.1,4.1,0,0,0,.2,1.6c.9,1.8,1,3.9,1.7,5.7a43.7,43.7,0,0,1,1.2,4.9,4.4,4.4,0,0,0,.8,1.7,4,4,0,0,0,.1-1.5c-.1-.6-.7-1.3-.3-1.9s1-2.7,1.7-4,1.6-1.3,2.6-.3a4.3,4.3,0,0,0,1.8,1.5c.8.2.7.9.9,1.4s-.8,0-.9.5.3.3.4.3.9.5,1.1,1.1-.1,1.2.3,1.8.2.6.6.3a.4.4,0,0,0,.2-.6c-.6-1.9-.7-3.8-1.5-5.7s-.3-1.3-1-1.8a3.5,3.5,0,0,1-.1.6c.1.4.3.8,0,1s-.8-.2-1-.3-.7-.7-1.3-1a3.7,3.7,0,0,1,2.1-.7c.5,0,.5-.4.7-.6a.8.8,0,0,0-.2-.4c-.3-.2-.5-.2-.7.1s-1.3.6-2,.8l-4.6,1.2c-.4.1-.6,0-.8-.4s-.1-1.5.9-1.7a25.2,25.2,0,0,0,5.4-1.4c.5-.3.8-.1.8.5s0,.5.3.4.3-.2.3-.5-.5-1.9-.8-2.9-.1-1-.5-1a1,1,0,0,0-1,1.1Zm-47.8-10a6.5,6.5,0,0,0-1.7,2.6,1.2,1.2,0,0,1-2,.2,7.6,7.6,0,0,1-1.2-1.9c-.3-.5-.5-1.1-1-1.4s-.6-.6-.9-.3.1.6.3.8a9.2,9.2,0,0,1,2,3.1h-.6c-2.2.1-2.3,0-2.1-2.2a2.9,2.9,0,0,0-.3-1.1c-.1-.1-.3-.3-.4-.2s-.1.3-.1.4a22.6,22.6,0,0,0,.1,3.7,17,17,0,0,0,.2,3.9c.2,2.4.7,4.6.8,7a7.3,7.3,0,0,0,.7,3.3,45.7,45.7,0,0,1-.3-4.9c0-1.5,1.2-2.6,2.1-3.8s.4.7,1.1.6c-1.2-.9-.3-1.8,0-2.6s-.2-.7.4-.7a.9.9,0,0,1,.8.4,14.3,14.3,0,0,0,1.2,2.1c.4.5.6.8-.3,1.2,1.3-.1,1.8.9,2.1,1.7a9.1,9.1,0,0,1,.3,2.3c.1,1.1.3,2.2.4,3.2a2.3,2.3,0,0,0,.3-1.6c0-3.1-.6-6.2-.4-9.3,0-.9-.1-1.9-.1-2.8a35.7,35.7,0,0,1-.1-4.6c0-.3-.2-.3-.3-.3s-1,.5-1,1.2ZM8,175.1c-.4-1.2.2-2.7-1-3.9-.4,1.5.5,2.9-.4,4.5.7-.4,1-.6,1.4-.6s-.2.8.3.7,1.1,0,1.4-.5-.3-.5-.5-.8.5-1.6.6-2.4-.1.6.5.7l.2-.6c.5-.1.5.8.7.5s1.4-.3,1.4-1.2.8-2.3-.2-3.4a.2.2,0,0,1,.1-.4c.2.3.6.5.6.9s.2.6.6.5-.1-.4.1-.6-.3-1-.7-1.3a3.5,3.5,0,0,1,.5-.8,6.8,6.8,0,0,0,.7-2.8c0-.8-.9,0-1-.6l-.5-.5a.8.8,0,0,0-.4-.8c-.5-.3-1.1-.7-.6-1.5s0-2,1.5-1.9,0-.3,0-.4a21.9,21.9,0,0,0,.3-3.6c.2.6.3,1.2.5,1.7s.1.6.4.6.4-.2.5-.4.3-.4.1-.8a.8.8,0,0,1,.2-1.3c.5-.3.5-.5.2-.7s-1.1-1.6-.8-2.7.4-.5-.1-.6-.3.2-.4.5-.1,2.6-1.7,3-.2.3-.1.4-.7.6-.8,1-.5,1-1.1.3-.4.2-.3.4-.6,3.2-.2,4.8-.2.6-.3.8-.4-.2-.6-.3-1.1-.4-1.3.2-.4,1.4.3,1.9.7-.6.5-1.1-.5-.5,0-.7.5.3.6.6.1,1.5.6,2c-1.7.3-.5,1.4-.8,2.1a2.3,2.3,0,0,0,1.9-1c.1-.2.2-.5.5-.2l.3.2-.5.2-.3.3c.5.1.8.3.7,1s-.2,1.1.1,1.6a.6.6,0,0,1-.1.6c-.2.2-.2-.2-.3-.2s-.2-.2,0-.4.2-1.1-.6-1-.2-.2-.3-.3,0-.6-.3-.5a4.3,4.3,0,0,0-1,.9c-.1.2-.2.4,0,.5s.4,1,0,1.5-.8,1.2-.7,1.3,0,2.1-.1,3.1S8.9,174.8,8,175.1Zm130.1-16.6c.8-.1.4-.8.5-1.3s-.2-.5.2-.8.7.1.9.3l.7.2a1,1,0,0,1,.9,1.3c-.2,1.7-.3,3.5-.5,5.2s.1,1.4-.1,2.1c-.7,2.4-.5,3.1,1.4,4.6a.6.6,0,0,1,.1.8c-.4.6-.2,1.1.1,1.7s-.1,2.5.6,3.5,1,2-.2,2.9h-.3a19.8,19.8,0,0,0-1.4-5,2.4,2.4,0,0,0-.2,1.4,40.8,40.8,0,0,1,1.1,5.9c.1,1.3.4,2.6.6,3.9s.1.8-.5.7l-1.6.2c-.6.1-1,0-1-.8a46.2,46.2,0,0,0-.6-7.4,10.1,10.1,0,0,0-.5-2.5c-.3,1.1.7,13.7,1.5,14.9,0-1.3.7-1.3,1.6-1.3h.7c.9-.2,1.2.3,1.4,1.1a4,4,0,0,0,.8,2.2c-.2-1,.3-2-.2-2.9s.1-.5.3-.5,1.7,0,2.5-.4.4.3.4.6c.4,2.5.4,2.5,1.6,4a.4.4,0,0,1,.1.3c.1,1.2,1.2,1.9,1.4,3s.3,1.5,1.4,1.2l.3.3c.2,1.3,1.1,2.4,1.5,3.7-.1-.9.5-2-.7-2.6a1,1,0,0,1-.2-.8,2.3,2.3,0,0,0-1.7-2.4.4.4,0,0,1-.3-.4c-1.1-2.6-3.1-4.8-3-8a20,20,0,0,0-.8-5.9,4.9,4.9,0,0,1-.2-2.1c.2-2-.4-3.9-.7-5.8s-.6-1-1.4-.5c.8.4.8,1.1.7,1.8s-.1,1.1-.9.5-1.5-.2-1-1.4-.3-1.4-.1-1.9a2.4,2.4,0,0,0-.3-2.2c-.5-.7-1.4-1.4-1.3-2.3s-.3-2.5-.1-3.8.3-.8.3-1.4a15.1,15.1,0,0,1,.1-3,7.7,7.7,0,0,0-.3-3.7,7.2,7.2,0,0,0-1.7-2.9.8.8,0,0,1-.1-1,6.1,6.1,0,0,0,.7-2.4c0-.3-.1-.7-.4-.7s-.6.5-.5.8,0,.9-.1,1.4-.1,1-.6,1-.6-.5-.8-.8a10.5,10.5,0,0,0-.7-1.1,1.6,1.6,0,0,1,.2-2.4l.3-.5a2.3,2.3,0,0,0,.7-1.5l-.3-.3a1.6,1.6,0,0,0-1.1,1.3,1.2,1.2,0,0,1-1.2,1c-.6.1-.4-.7-.6-1s-1.2,1.3-.4,2.4.4.8,0,1.1-.3.4-.1.7a9.2,9.2,0,0,0,1.3,2.1,1.3,1.3,0,0,1,.4,1.4c-.4.9-.5,1.4.6,1.8s.7,1.5.8,2.3a2.3,2.3,0,0,0-.6,2.6C137.7,160.3,138.6,159.5,138.1,158.5Zm-4.2-29.8a4.8,4.8,0,0,0,0,1.7,3.7,3.7,0,0,1,.2,1.8,2.6,2.6,0,0,0,1.4,2.5c.7.5,1.1,1,.4,1.7s-.1,1.5-.5,2.1h-.1c-.9.2-.9.8-.5,1.4a1,1,0,0,1-.3,1.6.7.7,0,0,0,0,1.2c.9.5.4,1.1.1,1.6s-.3.5.1.7.5.4.9.2a.8.8,0,0,0,.4-.9c-.1-.8.3-1.4.3-2s1.2-1.1,1.2-2a35.3,35.3,0,0,0-.1-4.6,9.2,9.2,0,0,1,.2-3.3c.3-1.5,1.2-2.8,1.2-4.5a9.4,9.4,0,0,1,1.8-6.2c.6-.8.2-2,1.4-2.4-.4-1,.3-1.9.4-2.9s-.1-2.9.7-4,.1-2.8,1.1-4-.1-.4-.3-.5,0-.5,0-.7.8-2,1.3-3.1-1.3,1.3-2.2,1l-.2.3c-.1.4-.7.7-.9,1s-2.1,1.8-2,3.4a1.7,1.7,0,0,1-.4,1.6.9.9,0,0,0-.1,1.1c.5.6,1.2.9.5,1.8l.6.4c.8-.7.5.7,1,.5a1.1,1.1,0,0,1-.5,1,1,1,0,0,0-.7.7c-.2.8-.2,1.8-1.1,2.3a.7.7,0,0,0,0,.9c.6.5.2.9,0,1.4s-1.1.9-1.7,1.3-1.5.9-.3,1.8,0,.6,0,.8-.7.9,0,1.3-.1.2-.2.3-1,.6-1.7-.4a2.7,2.7,0,0,1-.7,2.6C134.3,129.5,134.3,128.7,133.9,128.7ZM97.1,206.3a10.2,10.2,0,0,0,5.5-3.8,2.4,2.4,0,0,0,.3-1.2,17.2,17.2,0,0,0-.8-3.8,31.1,31.1,0,0,0-2.9-6.1,1.2,1.2,0,0,1-.3-1c.2-.3.7-.2.9-.1s1.8-.5,2.7-.3.4,0,.4-.2-.1-.4-.3-.4h-.9a1.1,1.1,0,0,1-1.3-.7c-.5-1.3-1.2-2.5-1.7-3.8s-1.8-2.6-.7-4,.5-1.8.8-2.7a7.3,7.3,0,0,0,.7-1.9c.1-.8.4-1.2,1.2-1.1a.3.3,0,0,0,.5-.3c0-.1-.2-.3-.3-.4a1.5,1.5,0,0,0-.9-.2c-3.2-.3-6.3.7-9.5.7-.2,0-.4-.1-.5.3a2.5,2.5,0,0,0,2.2.3c.6-.2,1-.2,1.3.6a25.1,25.1,0,0,0,2.4,4.6,3.1,3.1,0,0,1,.2,3.2,31.7,31.7,0,0,0-2,5.1c-.2,1-.8,1.2-1.6.9a2.2,2.2,0,0,0-1.4,0c-.2.2-.7,0-.6.4a.6.6,0,0,0,.8.4c1.6-.4,3.3-.1,4.9-.2s.7-.4.9.1a17.7,17.7,0,0,0-1.2,1.7,8.6,8.6,0,0,0-.7,2.1,17.5,17.5,0,0,0-.8,7.5,2.3,2.3,0,0,0,.7,1.6C95.8,204.4,96.9,205,97.1,206.3Zm34.2-20.5a16.5,16.5,0,0,0-.2,2.1,15.7,15.7,0,0,1-.8,5.2c-.2.4-.5,1-1,.7a1.1,1.1,0,0,1-.4-1.3l.4-.6a3,3,0,0,0,.5-3.5c-.1-.4-.5-.6-.5-1.1s-1-1.3.4-1.5.5-.5.2-.7-.6-.7-1.1-.6-.1.4,0,.7-.1.3-.2.3-.2-.1-.3-.2-.9-.7-1.4-.8-.8.2-.8.8-.2.7.3.6,1.8.8,2.2,1.7,1.3,3.3-.1,4.9-.3.5-.7.3-.7-.2-.5-.6a3.4,3.4,0,0,0-.4-3.5c0-.1.1-.2,0-.3s-.7-1.8-1.5-2.4a4.7,4.7,0,0,0,.8,2.6c1,1.5.6,2.7-.2,4s-.3.3-.5.1-1.2-1.2-.8-2.2a11.6,11.6,0,0,0,.5-2.8,3.9,3.9,0,0,0-.5,5c.5.6.8,1.2.4,1.9s-.1,1.4.5,1.8l1.6.8c1.8.7,3.4,1.6,3.1,4,0,.1.1.3.1.4a7.1,7.1,0,0,1,0,2.9c-.1.6-.9,1-1.6,1.3a3.9,3.9,0,0,0-2.1,3.9.8.8,0,0,0,.3.8c.4.2.5-.2.7-.3s2.1-1.3,3-1.9,1.2,0,1.2.6,0,3.1,0,4.6v2.6h.5c-.2-1.6.8-3.1.5-4.7s.2-3.2-.9-4.5l-4.8,3c-.2-2.4,1.2-3.5,3-4.3s.8-.4.8-1a18.2,18.2,0,0,0-.1-3.3c-.2-1-.6-2.2.3-3.2a9.1,9.1,0,0,1,2.1-1.8c1.3-.9,1.4-1.1.8-2.6s-.9-1.1-.6-1.7.5-2.2.8-3.4a1.6,1.6,0,0,0-.4-1.9,1.6,1.6,0,0,0-.3,1.3,13.2,13.2,0,0,1-.2,2.8.7.7,0,0,1-.4.6c-.1.1-.2,0-.3-.2s-1.2-2-1-3.3A2.4,2.4,0,0,0,131.3,185.8ZM74.5,220.9H78c1.4.1,1.5.2.7,1.4a16.5,16.5,0,0,0-2.2,5.8,17,17,0,0,0-.7,5.5.8.8,0,0,1-.1.8c-.4.4-.2.8,0,1.2s2.4,2.5,3.6,3.7.4.2.5,0a.5.5,0,0,0,0-.7l-.6-.3a14.8,14.8,0,0,1-2.6-2.4c-.4-.6-.3-1.3.3-1.3s3.8.3,5.6.4.7.2.8-.4-.5-.3-.7-.3l-4.5-.5c.2-.6.7-.8.9-1.3s.9-.9,1-1.2.9-.3,1.1,0a13.7,13.7,0,0,0,1.9,2.3c1.3,1.1,1.2,2-.2,3.1a8.2,8.2,0,0,0-2.6,2h.3a6.9,6.9,0,0,0,4.1-3.4c.8-1.4,1.6-2.9.9-4.8s-.7-2.4-1.1-3.5-1.3-4.3-2.6-6.3H84c.4,0,.8-.1.8-.5s-.5-.4-.9-.4-2.1.4-2.7-.3-1.4.6-2.1.5H77A3.1,3.1,0,0,0,74.5,220.9Zm-20.8-73a.7.7,0,0,0-.4.6,52.1,52.1,0,0,1-1.3,7.9c-.2,1.3.1,2.6-.2,3.9a49.3,49.3,0,0,0-.7,6.6c0,.2,0,.5.3.5s.2-.3.2-.5a26.3,26.3,0,0,1,.6-3.9c.2-.7-.2-1.6.5-2.2a25,25,0,0,0,3.9-4.7c.2-.3.3-.4.6-.4s2,.4,2.2,1.8a13.8,13.8,0,0,0,1,2.2c.4-1.5-.9-2.4-1-3.6,2.3,0,2.3,0,2.3,2.2a6.5,6.5,0,0,1,0,1.4c-.1.3.4,1.2-.6.7s-.3.2-.1.5.5,2,.4,3.1a32.1,32.1,0,0,0-.1,6.2c1.5-7.2.9-14.6,1.3-22.1L59,150.9c-1.6,1.2-1.9,1.1-2.8-.6s-.9-2.4-2.2-3l2.3,4c-.7.2-1.1-.3-1.5-.2s-1-.7-1-1.3A4,4,0,0,0,53.7,147.9Zm46.3,18c-1.4-.8-.9-2.1-.9-3.3s-.2-3.1-.2-4.7-.4-4.4-.1-6.6a.4.4,0,0,0-.2-.5c-.1-.1-.2-.1-.4,0a7.1,7.1,0,0,0-3,3.6,1.3,1.3,0,0,1-2.1.6L92,153.8c-.7-.7-1-1.9-2.2-2.1-.2,3.2.3,6.3-.3,9.5,0,.2,0,.5.3.5s.7-.2.6-.5.2-1,.1-1.6.2-.8.8-.8a3.7,3.7,0,0,1,1.8.2c.1,0,.3.3.2.4s-1.5,3.1-3.2,4.1c0-.5.1-1-.5-1a36.8,36.8,0,0,1,0,4.7v4.7H90a14.6,14.6,0,0,0,.3-3.6c0-1.7-.7-3.5,1-4.9a8.3,8.3,0,0,0,1.6-2.1,14.7,14.7,0,0,0,1-2.2c.4-.8.9-.4,1,.1s1.5,2.3,2.5,3.3a2.3,2.3,0,0,1,1,2.1,18.1,18.1,0,0,0,.3,4.6c.6-.7.3-1.4.4-2S98.1,165.3,100,165.9Zm-23.2,6,.4-.6c.5-1.3-.2-2.7.3-4s-.1-.7.3-.6,2.2-.3,3.2-.2.8.2.7.9a9.8,9.8,0,0,0,.1,3.8,13.5,13.5,0,0,0,.4-2.8,35.5,35.5,0,0,0,.3-4.6,28.4,28.4,0,0,0-.1-4.1c-.1-1.9.3-3.8-.7-5.6a.9.9,0,0,0-.2,1.2.9.9,0,0,1-.2,1.2c-1.2,1.3-2.4,2.6-3.7,4.2v-6a1,1,0,0,0-.6.9,56.1,56.1,0,0,1-.1,5.8c-.2,2.1-.1,2.1-2.2,2s-1-.3-1-1.1,0-3.3,0-5a7.1,7.1,0,0,0-.1-1.4.3.3,0,0,0-.4-.3c-.1.1-.1.2-.1.4,0,2.6,0,5.2-.1,7.8s-.2,4.5-.4,6.7c-.1.5-.5,1.2.2,1.6.6-1.4.5-3,.7-4.5s.1-1.4,1.1-1.3,2.2.2,2.2,1.3S76.9,170.5,76.8,171.9Zm36.8-16c.5-.2.4-.5.4-.8s-.4-3.5-.5-5.2-.3-4.9-.5-7.4c0-.2,0-.5-.3-.6l-.4.3c-.6,1.1-1.7,1.7-2.4,2.6s-1.4,1-2.2,0l-.7-.8c-.2-.2-.4-.4-.6-.2a.5.5,0,0,0,.1.7c.1.2.4.3.6.5s.3.4,0,.7a1.8,1.8,0,0,1-2.7-1.1c-.1-.6-.1-1.1-.2-1.7s1.1.8,1.9.4a2.1,2.1,0,0,0-1.8-.9c-.5.1-.7.9-.6,1.4.1,2.1.3,4.1.5,6.1s.9,3.5-.5,5.5c1.1-.8,1.2-.4,1.2.3a9.6,9.6,0,0,0,0,2.4,5.6,5.6,0,0,0,.7,2.6c0-2.5-.3-4.6-.4-6.7s-.2-1.8.4-2.3a26.6,26.6,0,0,0,2.4-2.3,1.6,1.6,0,0,1,2.4-.1c1.8,1.8,3.5,3.6,3.1,6.5ZM99.7,86a1.7,1.7,0,0,0,0,1.2,34.2,34.2,0,0,1,.9,6.3,37,37,0,0,0,1,5.8c0,.2,0,.5.4.4h.3c0-.4-.3-.2-.4-.3s-.1-.4,0-.6-.7-3.3-.1-4.9-.2-2.2-.6-3.2.3-1.4,1.1-1.5a7.8,7.8,0,0,0,2.1-.4c.2-.1.3-.1.5.1s1,1.3,1.1,2a40.7,40.7,0,0,1,.5,6.1c0,1.4.2,2.9.3,4.4h.3c.1-.6.1-1.2.2-1.8a.6.6,0,0,1,.1-.4c.5-.4.6-.4.1-.9a.7.7,0,0,1-.2-.8,2.3,2.3,0,0,0,.1-1.6c-.6-2-.2-4-.6-6a17.9,17.9,0,0,1-.1-4c0-1.2-.2-2.4-.3-3.7h-3.7c-1.2.2-2.4-.2-3.6.2s-.7-.1-.7.3.4.5.8.5a.9.9,0,0,1,.7-.1c.7.3,1.7-.5,2.2.6a12.8,12.8,0,0,0,1.1,2c.2.3.5.7,0,1A4.7,4.7,0,0,1,99.7,86ZM60.6,175.8c-1.2,1.2-1.9,4.3-1.3,5.7l.3.6a3.1,3.1,0,0,1,1,3.5c-.2.5.1,1.3-.2,1.7s-1.2,0-1.7-.1h-.3c-1.1.4-1.3-.2-1.2-1.1s0-1.9-1.9-1.8c-.2,0-.5-.2-.6.1a.7.7,0,0,0,.8.5c1.4-.2,1.3.8,1.1,1.6a34.2,34.2,0,0,0-.4,4.5c-.1,2.3-.4,4.6-.5,6.9s-.6,4.7-.9,7c-.1.3-.1.6.2.6h3.1A1.2,1.2,0,0,0,57,205c-.7,0-1.7.1-1.5-1.1s.8-4.8.9-7.2a47.5,47.5,0,0,0,.5-5.3c0-1.2.2-2.3.3-3.5a54.1,54.1,0,0,0,9.7,1c0-.2-.1-.3-.2-.3a35.9,35.9,0,0,0-4.6-.5c-.9-.1-1.3-.4-1.1-1.2s.3-3.2,2.2-3.9a1.3,1.3,0,0,0,.9-1.1c-.7-.1-1.1.3-1.6.6s-.4.5-.7.2,0-.4,0-.6.8-1.7.7-2.7l.5-.6a3,3,0,0,0,.8-3.9c-.2.2-.1.4-.2.6s.5,3.1-1.8,3.2a3.5,3.5,0,0,0-.1.6,11.4,11.4,0,0,1-.5,3.3C58.5,180.6,60.6,178.2,60.6,175.8Zm42.8,66.9c0-.8.8-1.5.5-2.4s.4-.9,0-1.4a.3.3,0,0,1,.4-.4l.7.2c.4,0,.8-.1.8-.5s-.5-.1-.7-.1-1.3.3-.5-.7,0-.3-.3-.2-.4-.2-.3-.5a16.1,16.1,0,0,1,1-3.6,3.4,3.4,0,0,0-.1-3.5,8.8,8.8,0,0,1-1.3-2.8,17.2,17.2,0,0,1-.2-3.2c0-.3.2-.7-.2-.7s-.3.3-.3.6-.3,3.1-1.5,4.4a4.8,4.8,0,0,1-.4-1.5.5.5,0,0,0-.6-.6c-.6.1-.3.5-.1.8a1.3,1.3,0,0,1-.7,2.1q-.6.3-.6-.3c.2-2,.3-4,.5-5.9s.2-3.8.3-5.6a.5.5,0,0,0-.5-.7c-.4,0-.5.5-.4.8a2.6,2.6,0,0,1,.2,1.5c-.3,3-.6,5.9-.7,8.9a39.2,39.2,0,0,0,.1,4.8,1.3,1.3,0,0,0,.4-1.1,1.3,1.3,0,0,1,1-1.7c.2-.1.3-.6.7-.3s.1.6,0,.9a12.8,12.8,0,0,0-.7,3.5c.5-.2.5-.6.7-.9s.5-3.4,1.8-4.7.9-.3,1,.2a4.3,4.3,0,0,0,1.1,2.1,1.7,1.7,0,0,1,0,2.1C102.5,235.6,103.3,239.2,103.4,242.7ZM192,175.8c-.8-2.2.7-4,1.1-6,.1-.5.5-.4.7,0s3.2,2.2,3.5,4.3h.3c.1-1-.5-1.8-.6-2.7s-1-4.5-1.4-6.8c-.2-.8-.7-.9-1.4-.5a4.1,4.1,0,0,0-1.2,2c-.4.9-.8.9-1.3.1s-1-.8-1.3-1.4a.5.5,0,0,0-.8-.1c-.2.2.1.4.2.6l1.5,1.8c-.7-.2-1.3.1-1.2-.8a.8.8,0,0,0-.7-.5l-.4.4c.6.5.1,1.2.3,1.8s.6,2.4,1,3.6A12.8,12.8,0,0,0,192,175.8Zm-84.6,43.1c-.9-.4-1.2-.7-.9-1.4a1.2,1.2,0,0,0-.6-1.6c-1.8-1.1-2.5-3.2-4.2-4.3s-.8-1.1-1-1.1-.9.6-1.3.9l-.6.4c-2,1-2.6,3.1-3.9,4.6s-.1.2-.1.4,0,2.6,0,3.9a56.2,56.2,0,0,0,.3,8.2,4,4,0,0,0,.6,2.5c.1-1.7-.1-3.1-.1-4.5-.2-3.2-.1-6.5-.1-9.8a2,2,0,0,1,.3-1.1,7.7,7.7,0,0,1,3.2-3c.6-.3.9-1.4,1.6-1.2a3.3,3.3,0,0,1,1.6,1.5c.7.9,2.3,1.1,2,2.7h.3c1.2-.2,1.2.8,1.3,1.5s-.3,2-.2,3.1c.2,2.9.4,5.9.8,8.8.1,1-.1,2.2.7,3.1a73.4,73.4,0,0,0-.5-8.1l-.3-5.1C106.3,218.7,106.7,218.9,107.4,218.9ZM93.1,141.5a4.6,4.6,0,0,1-.1-2.6,3,3,0,0,0,.1-1.6c-.7-1.1-.3-2.4-.5-3.5a9,9,0,0,0-.6-3.7c-.7-1.6-.7-2.2.4-3.5a7.7,7.7,0,0,0,1.5-3c-1.5.9-1.7,2.6-3.3,3.2,1-1.4-.1-2.5,0-3.7-1.1,1.1-.1,2.5-.8,3.6l-1.6-2.6c-.1.5-.2.9.1,1.3s1.1,2.4,2,3.4a1,1,0,0,1,.1.9c-1.4,3.3-.7,6.8-1,10.2a.8.8,0,0,0,.6,1v-1.8c0-.6.2-1.1.9-1.1s1.3,0,1.3,1S91.9,140.9,93.1,141.5Zm-21,58.8c.1-1.7.4-3.3.4-5s.6-3.5.1-5.4.1-3,.1-4.5a3.5,3.5,0,0,1,2-3.5c1.1-.6,2.3-.9,2.9-2.2s.9-.8,1.5-.1a20.6,20.6,0,0,0,2.5,2.6,5.6,5.6,0,0,1,1.5,3.5c0,1.1-.2,2.1-.1,3.2.2,3.1,0,6.1,0,9.1,0,.6,0,1.1.4,1.4s.3-1.5.3-2.2c0-2.3.2-4.6,0-6.9s-.1-3.3-.1-4.9a3.8,3.8,0,0,0-.9-2.8,56,56,0,0,1-4-4.5c-.2-.3-.7-.6-.8-.3s-1,.8-1.3,1.4a4.7,4.7,0,0,1-2.3,2.1c-1.1.7-2.3,1.2-2.2,2.9s-.2,3.3-.1,5-.1,4.5-.2,6.7A13.1,13.1,0,0,0,72.1,200.3Zm4.5-4.9a43.8,43.8,0,0,1,.4-5.2c.2-1.7.4-3.3.5-5s.2-.8-.3-.8-.4.4-.4.7-.3,2.9-.5,4.4-.2,2.7-.4,4.1.1,3.5-.1,5.3a7.7,7.7,0,0,0,.5-1.9c.1-.4,1.3-1.6,1.5-1.4s.4.9.3,1.4a9.8,9.8,0,0,0-.1,2.5,3.1,3.1,0,0,0,.8-1.8,10.3,10.3,0,0,1,.4-3c.1-.5.5-.6.8-.7s.3.5.4.7a14.5,14.5,0,0,0,.9,2.5,1.7,1.7,0,0,1,.2,1.5,21.1,21.1,0,0,0-1.8,6.4c-.1,1.9-.4,3.8-.6,5.7a11.7,11.7,0,0,0,1.4-5.3,15.9,15.9,0,0,1,1-5,5.4,5.4,0,0,0-.1-5.1,10.1,10.1,0,0,1-1-4.8,1.3,1.3,0,0,0-.3-1.1,3.2,3.2,0,0,0-.4,2.7c.2.6,0,1.2-.6,1.2s-.3-.6-.4-.9.1-.4-.2-.5S78.7,195,76.6,195.4ZM112.7,73.3a33.8,33.8,0,0,0,.4,7.8c.4,2,.2,2.2-1.7,2.5s-.9-.2-.8-.7-.5-2.4-.2-3.7-.1-.7-.6-.6-.3.3-.2.7c.3,2.5.5,5,.8,7.5a19.7,19.7,0,0,0,.9,4.6,1.4,1.4,0,0,0,.2-1.5c-.3-.9,0-1.9-.4-2.7s-.2-1,.6-1l3.4-.3c1.8,0,1.9.2,2,2v.4a5.1,5.1,0,0,0,.9,2.6,45.5,45.5,0,0,0-.4-5.2,22.4,22.4,0,0,1-.5-5.8,5.8,5.8,0,0,0-.4-1.8h-.3a3.7,3.7,0,0,0-.1,1.8c.5,2.2-.1,3.2-1.9,3.2s-.6-.1-.7-.6c-.1-2.4-.3-4.7-.4-7A4.3,4.3,0,0,0,112.7,73.3ZM178,123.2c.4.9.7,1.8-.9,1.6s-.6.3-1,.2-.8.5-.7.9a20.1,20.1,0,0,0,1,3.5.4.4,0,0,0,.4.4c.3,0,.2-.3.2-.5s.5-.5.7,0,.2.5.5.4.2-.4.2-.6,0-.7.3-1a1.4,1.4,0,0,1,.8,1.3c0,.6-.5.6-1,.7l-1.7.6v.3h1.8c.9-.1,1.4.1,1.6,1.1s2,4.3,2.9,6.4a.7.7,0,0,0,.7.4c.2,0,.2-.2.2-.4a2.2,2.2,0,0,0-.9-1.9.9.9,0,0,1-.5-.8,10.5,10.5,0,0,0-1.2-3.1c-.7-1.5-.7-1.5.7-2.1s1.2-.2,1.1-.8-.8-.4-1.3-.2h-.6c-.4-.2-1.1.6-1.1-.5s-.4-1.3.7-1.5,1.3-.5.7-1.3a1.2,1.2,0,0,1-.1-.8c.3-1.4-.5-1.2-1.4-1.2s-1.4.5-1.4-.7S178.5,123.1,178,123.2Zm-66.8,40.9c-.4.1-.3.3-.3.4s.1,2.1.2,3.1-.2,1.6-1,1.5-2,.8-3.1.3-.5,0-.4.4.2.2.4.2a10.1,10.1,0,0,0,2.5-.2c1-.1,1.1.2,1,1.1-.4,2.5-1.1,4.9-.9,7.5s-.3,1.5-1.8,1.6a4.5,4.5,0,0,0-2.4,1h.6c1.6-.4,3.3.2,5-.4s.4.4.5.7-.1,1.2.7,1.1a.8.8,0,0,0,.4-1.1c-.1-.6.1-.8.7-.8a7.4,7.4,0,0,0,2.6-.2c.3-.1.7-.1.7-.5s-.7-.4-.8-.4c-1.8.4-3.6.1-5.3.6-.2,0-.6.1-.4-.3s-.2-1.5,0-2.4.8-4.8,1.3-7.5c1.3,1.7,1,4.1,2.5,5.6-1-1.3-.4-2.8-1.1-4.2s-.3-1.4.9-1.6,1.4.5,1.3-.3-1.3-.6-1.7-.5-1.1-.2-1.3-.9S111.9,165.2,111.2,164.1Zm2,27.8h-.4c0,1.5-.4,2.9,0,4.3s-.2,1.8-1.4,2l-3.9.7c-.3.1-.9.2-.9.6s.6.3.8.4,3.6,1,4,3.3,1.3.6,1.4.4,2.1-.8,3.1-1.2a1.7,1.7,0,0,1,2.3.8c.3-2.2-.3-4-.4-6-1.1.9-2.3.2-3.4.7s-.6-.4-.6-.6-.4-1.8-.3-2.8A26,26,0,0,0,113.2,191.9ZM79.2,115c.1,4-.2,7.8.6,11.6-.1-3.4.5-6.8.1-10.2-.1-1.1.5-1.3,1.3-1.4s.7.4.8-.1-.4-.6-.9-.7-1.2-.5-1.1-1.2a8.2,8.2,0,0,0,0-2.7c-.2-.8,0-1.3.9-1.1s.9.1,1.1-.5a5.1,5.1,0,0,0-1.7-.3c-.9,0-2,.3-2.8-.6s-.2-.7-.6-.4-.5.2-.5.3.4.5.6.8a1.1,1.1,0,0,0,.8.2,3.9,3.9,0,0,1,1.8.4c-.7,1.2-.3,2.5-.4,3.8s-.2.9-.8.6-2.5-1.2-2.5-2.9c0-.2.1-.7-.3-.6s-.4.3-.5.7.1,1,.1,1.5a17,17,0,0,0,.5,6.3,2.1,2.1,0,0,0,.2-1.9c-.3-.8.3-1.4,1.2-1.4A5,5,0,0,0,79.2,115Zm36.3-3.8a9.2,9.2,0,0,0,2.6,3.5c.3.3.5.5.4.9a14.9,14.9,0,0,0-.6,6.3,33.5,33.5,0,0,0,.8,5.4c.1.1,0,.4.3.4s.3-.2.2-.4a20.6,20.6,0,0,0-.3-2.6c-.1-.3,0-.8.4-.8a20.9,20.9,0,0,0,2.5-.1c1-.3,1.4.3,1.9,1.2.2-1.1.2-1.9-.5-2.5-.7,1.1-1.8.5-2.7.8s-1.6.1-1.7-1.2-.3-2,1.7-2.1,1.7.2,1.9,1.2.2.5.6.4a5.9,5.9,0,0,0-.6-1.6c-.3-.5-.4-1.5-1.5-.8s-1.1,0-1.7.3-.7-.2-.7-.7l.6-2.5a.5.5,0,0,1,.3-.3c.2-.1.3.1.4.3s.7,1,1.2,1.6a1.3,1.3,0,0,0-.3-1.6,1.1,1.1,0,0,1-.1-1.3,10.4,10.4,0,0,0,1.2-3.5c0-.2.7-.3.1-.6s-.6.1-.7.5l-.3,1a4.6,4.6,0,0,1-1.2,2.4c-.3-.5-.6-.8-.4-1.3a8.3,8.3,0,0,0-.3-2.7c0-.3-.1-.5-.3-.5s-.4.3-.4.6a5.1,5.1,0,0,0,.4,2.4.4.4,0,0,1-.2.5c-.2.2-.3-.1-.4-.2ZM60.8,78.1a13.6,13.6,0,0,0-1.2-4.5,2,2,0,0,1,.2-2.3,8.4,8.4,0,0,0,1.4-2.4c.1-.3.5-.6,0-.8s-.6.3-.6.5-1.2,1.5-1.4,2.4-.4.6-.6.1-1.7-2.9-.4-4.6.2-.7,0-1.2c-1.3,1.3-1.4,3.2-2.5,4.8l.7-.2c.4,0,.3-.6.7-.7,2.1,2.9.1,5.1-1.3,7.5-.1-.2-.3-.4-.3-.6s.2-.7-.3-.7-.2.5-.2.7a12.4,12.4,0,0,0,.4,4.3c.1.2-.2.6.2.6s.3-.4.4-.7-.3-1.7,0-2.3a38.8,38.8,0,0,0,2.5-5,36.7,36.7,0,0,0,1.6,4.7,5,5,0,0,1,.1,3.6c-.1.5-.2.9-.4,1.6,1.6-1.6,1.6-3.7,2.1-5.5.1-.1,0-.3-.2-.3h-.4C61.1,77.4,61.3,77.8,60.8,78.1Zm34.3,50.1c.4.6.3,1.3.5,1.8s-.4.6.2.6.4-.2.5-.6-.5-1.9-.3-2.9l-.4-.4a.7.7,0,0,0-.6.4L93.5,130a.9.9,0,0,0,0,1,5.1,5.1,0,0,1,.8,3.8,10.6,10.6,0,0,1-1.1,4.5c-.1.2-.2.6,0,.7s.5-.1.6-.3a8.6,8.6,0,0,0,1-1.6c.4.8,1.7,1.5.2,2.5s-.2.4,0,.6.4.2.5-.1l.7-.9,2.1,6c0-.5.7-.5.5-.9a52.7,52.7,0,0,1-1.9-5.6c-.1-.1-.6-.2-.3-.4s.3-2.7.8-3.9.2-.7-.2-.8-.4.4-.5.7-.1,2-.9,2.9c0-.8-.4-1.5-.4-2.1s-.7-3.1.2-4.5.3-.3,0-.5h-.4c-.2.2-.3.6-.7.4a.8.8,0,0,1-.1-1C94.6,129.7,94.4,128.9,95.1,128.2Zm9.9-9.8-.3.2c.6.7,1.1,1.6,1.7,2.3s.8,1,.5,1.6c-1.3,2.7-.4,5.5-.3,8.2a6.6,6.6,0,0,0,.6,3.1,10.8,10.8,0,0,0,.1-3.1c-.1-1.5,1.2-1,1.9-1.3s.4.7.5,1.1a18.5,18.5,0,0,0,.4,2.3,1,1,0,0,0,.3-.8c-.4-3.1-.3-6.3-2-9.1-.5-.9-.7-1.6.4-2.3a3.2,3.2,0,0,0,1.2-2.3c-1.3.4-1.4,1.7-2.2,2.4a14.2,14.2,0,0,0-.8-4c-.6,1.4.3,2.7-.1,4Zm58.5,9.1a1.4,1.4,0,0,1,.3,1.5c0,.3,0,.6.4.7s1.1.4.9,1.3a4.4,4.4,0,0,0-.2,3.2c.2.6-.6,1-.2,1.6s.6,2.6,1.1,3.9.1.4.4.4.3-.3.2-.5a5,5,0,0,1-.2-1.2c-.2-1,.3-1.3,1.1-1.4s.4.9.8,1.3.2.8.3,1.2.1.5.3.3.4-.2.2-.5a22.5,22.5,0,0,1-.5-2.2,12.9,12.9,0,0,0-2.1-6.7,1.7,1.7,0,0,1,.1-1.9c.3-.4,1.2-.9.8-1.4s-.7.7-1.4.9a4.2,4.2,0,0,1-.3-1.2c0-.3,0-.8-.5-.7s-.2.6-.2.9.4.7.1,1.1S164.3,127.3,163.5,127.5Zm-90.9,8c-.4,2.4.3,4.7.2,7,0,.3.2.5.6.4a21.9,21.9,0,0,1,3.6.3.6.6,0,0,1,.5.6v3.6c0,.4-.1.5-.6.5l-2.9.2c1.1.8,5.3.9,7,.1a3.5,3.5,0,0,0-2-.1c-.8,0-1.1-.2-1-1a10.5,10.5,0,0,0,0-2.5c-.1-.9.4-1.2,1.2-1.1h2.5c.6,0,1,.1.8-.8a7.8,7.8,0,0,1-.1-3.4c.3-1.2-.3-2.1-.2-3.2s-.6.5-.5,1,0,3.1.1,4.6,0,1.4-.8,1.2-2,.3-2.7-.2-.1-1.8-.3-2.7v-.3c0-.2.1-.5-.3-.5s-.5.3-.3.6a4.1,4.1,0,0,1,.1,1.9c.1.9-.3,1.2-1.1,1.1l-2.8-.5c-.6-.1-.4-.6-.4-.9V137A1.7,1.7,0,0,0,72.6,135.5ZM54.7,232.2a2.9,2.9,0,0,0,.4,1.6,5.9,5.9,0,0,1,.5,3.7c-.4,2.4-.6,4.8-.8,7.2a6.6,6.6,0,0,1-.9,2.7c-.4.7-1.2,1.1-1.6,2.1a23.6,23.6,0,0,0,6.4-7.7,2.1,2.1,0,0,0,.2-2.4,39.8,39.8,0,0,1-3.5-6.4C55.2,232.7,55.2,232.2,54.7,232.2ZM98,67.9a3,3,0,0,0,2.3-1.9,1.9,1.9,0,0,1,2.4-1.4c1,.2.4,1,.5,1.6.2,3.2.3,6.5.5,9.7.1,1,.7,2.1-1.1,1.9a.3.3,0,0,0-.3.5c0,.1.2.2.2.2a11.5,11.5,0,0,1,2.6-.1.5.5,0,0,0,.5-.3c0-.2-.1-.4-.3-.4s-.8-.8-1-1.4.1-1.3,0-2a86.7,86.7,0,0,1-.6-8.9c-.1-.9.2-1.3,1.2-1.3s.9,0,.8-.4-.6-.4-.9-.3-1.2-.2-1.4-1,.5-1.1,1.2-1.3a2.1,2.1,0,0,0-2.6,0c1.3,0,.7,1,1,1.6s-.6.8-1.1,1.1a.8.8,0,0,1-1.2-.7c.1-.7-.4-1-.6-1.5C100.4,64,100.2,66.2,98,67.9Zm76.1,47.9c.8-.9,1.1-.2,1.4.1a8.2,8.2,0,0,1,1.8,3.9c0,.3.2.7.4.6s.9-1,1.4-1.5-.2-.3-.3-.3-.7-.2-.6-.9.4-1.6-1-.8-1-.2-1.1-.8a1,1,0,0,0-.4-.9,1.2,1.2,0,0,1-.2-1.8,1.1,1.1,0,0,0,.3-.8,2.4,2.4,0,0,1,.7-1.6c.6-.6,1-.3,1.5-.4s.6.2.7-.3a3.1,3.1,0,0,1-2.7-2,.5.5,0,0,0-.7-.3c-.3.2-.2.5-.1.7a2,2,0,0,1,.4,1.3,11.1,11.1,0,0,0-.7,2.6c0,.2-.1.5-.4.5s-.5-.2-.5-.4-.7-1.4-1.3-1.9-.5-.5-.3-.9.1-.8-.2-.8-.6.3-.7.7a22.6,22.6,0,0,0,.1,2.6l.3.3c.3.1.4-.1.3-.3s-.3-.4,0-.5a.4.4,0,0,1,.6.2C173.4,113.2,174.7,114,174.1,115.8Zm-58.2,16.6c-.1-2.2-.9-4.1-.1-6,.4.7.4,1.5,1.3,2.1-.3-1.5-1.1-2.7-.8-4.2.7.5.5,1.5,1.2,1.8a1.1,1.1,0,0,0,0-.8c-.6-2.2-1.3-4.3,0-6.5a.9.9,0,0,0,0-1c-.6-.8-.5-1.8-.9-2.7s-.2-.6-.7-.6a7.8,7.8,0,0,1-.2,1.6,3.2,3.2,0,0,0-.1,2.7c.6,1.2.4,2.6.7,3.9s-.1,1.3-.5,1.3,0-.7-.3-1-.1-.4-.2-.6-.1-.6-.5-.4-.2.4-.1.7.8,1.8.5,2.9a7.4,7.4,0,0,0-.3,3.6C115.2,130.2,115.1,131.2,115.9,132.4ZM57.3,91.2a.6.6,0,0,0-.1.7c.1,1.1-.3,1.2-1.3.9a11.7,11.7,0,0,0-2.7-.4c-.3,0-.6,0-.7.3s.4.4.6.4l3,.6c.6.1.9.3.9,1.1-.1,3.5-.1,6.9-.1,10.4,0,.3-.2.8.3.8s.4-.5.4-.8,0-3.6.1-5.3V95.1c0-1.2.4-1.1,1.1-.9l3.4.5a.4.4,0,0,0,.5-.3c.1-.2-.2-.4-.4-.3s-1.9-.7-3-.8-2-.1-1.6-1.6S57.7,91.3,57.3,91.2ZM63,17.8l-.9-1.3c-.1-.1-.1-.4-.4-.2s-.3.3-.1.5a6.6,6.6,0,0,1,.9,1.9c.2.3.7.7.1.9s-1.2.6-1.4-.4-.3-.5-.6-.1-.9,2.5,1.1,3.2h.9a2.3,2.3,0,0,0,2.9-2q.3-1.2-.9-.9a1.4,1.4,0,0,1-1.4.1c.5-.7,1.3-.7,2-1.1a.7.7,0,0,0,.3-.9c-.2-.5-.5,0-.8,0l-1,.5c.2-.8.7-1.4.2-2.2S63.6,17.3,63,17.8Zm42.2,103.4a11.6,11.6,0,0,0,.4,1.8c0,.2-.4.5,0,.6s.5-.3.5-.6a3.9,3.9,0,0,0-.6-2.1c-.2-.2,0-.8-.5-.6a1.6,1.6,0,0,0-.7.7c-.9,1.4-.6,2.8-.3,4.3s.4,2.5.6,3.8a.7.7,0,0,1-.5.8c-.4.1-.4-.4-.4-.6s-.5-1.3-.7-2-.3-.4-.5-.3-.3.3-.3.6l.3.5c.4,1.1,1.4,2,.7,3.4a4.5,4.5,0,0,0-.8,1.7c0,1.7-.3,3.3.3,5-.1-1.2.6-2.4.4-3.5a5.7,5.7,0,0,1,.2-2.3c0-.2.3-.5.5-.6s.4.3.5.5.3,1.1,1,1.3a1.1,1.1,0,0,0-.3-1.1c-.7-.9-.6-1.5.3-2.2V130c-.1-.3-.1-.6-.2-.9s-.9-3.4.1-5.1h-.1c-.4-.1-.4.4-.8.4S104.2,122.2,105.2,121.2Zm58.9,69.5c.4-1.2.4-1.2,1.7-2.3s.6-.4.4-.7-.1-.4.1-.5.3.2.5.3a.9.9,0,0,1,.1,1c-1,2.2-.5,4.4-.6,6.6-.1.2,0,.4.2.4l.3-.2a2.9,2.9,0,0,0,.2-.9,19.9,19.9,0,0,1,.5-5.9,1.9,1.9,0,0,0-.5-1.9c-.7-.6-.7-1.2-.2-2.1-1.1.2-1.4-.4-1.5-1.1a3.7,3.7,0,0,1,.1-1.8c.2-.4-.1-.6-.4-.7s-.5.1-.4.4,0,2.6.5,3.9.6,2.5-1.1,3.4c-.2,0-.3,0-.4.2s-.8,1.1-1.8.4l.5,1.6C163.6,189.8,163.6,189.8,164.1,190.7Zm9.3-49.6a15.9,15.9,0,0,1-2.7-7.7c-.9.8-.3,1.8-.8,2.6-.3-2-1-3.8-1.3-5.7a4.8,4.8,0,0,1,0-1.2,2.5,2.5,0,0,0-.2-.7c-.1-.4-.4-.3-.6-.1a2.5,2.5,0,0,0-.1,3.1,4.2,4.2,0,0,1,1,2,9.7,9.7,0,0,1,0,3.8c.6,0,.5-.9,1-.6a.9.9,0,0,1,.2,1.3c-.2.4,0,.9,0,1.5l.3-.3c.2-.4.4-.7.9-.6s.3.5.5.7S172.1,140.9,173.4,141.1Zm-116-29.4c-.9,1.5-.3,3-.7,4.4a27.5,27.5,0,0,0-.2,4.1c-.4,3.5-.4,3.5.1,4.1l.3-2.5c.3-1.4.3-2.9,1.8-3.9a18.9,18.9,0,0,0,3.2-3.7c.2-.2.4-.4.2-.6a.4.4,0,0,0-.6.1c-.7.9-1.6,1.4-2.3,2.3s-.1.8-.9.5-.7-.5-.7-1.1S58,113,57.4,111.7ZM188,157.4c-.1-.4.4-.9-.4-1s-.7.1-.7.5,0,3,.6,4.5.3.6.7.5l5.2-1.1c.6-.2.7-.4.4-1a8.4,8.4,0,0,1-.5-1.7c0-1.1-.7-1.5-1.8-1.2l-.8.2c-.5.2-1.6.3-1.5.7s1-.1,1.5-.1,1.4-.1,1.6.3.6,1.9-1.3,2.4h-.3c-2.2.3-2.6,1-2.7-2.1C188,158.1,188.2,157.7,188,157.4Zm-19.5,31.3c.6-.9.3-1.7.2-2.6s-.5-3-.4-4.6.6-.3.2-.8-1.7-1.8-1.3-3.3v-.3c-1.6-.4-2.6-2-4.2-2.4s-.5-.4-.6-.1.1.4.3.5l3.4,2.1c.3.1.5.2.5.6a6.5,6.5,0,0,0,.2,2.4A41.5,41.5,0,0,0,168.5,188.7Zm24.8-5.5c-.8,1.1-.3,2.2-.4,3.2s.1,1.5,1.3,1.7a15.5,15.5,0,0,0,7.1-.5,1.1,1.1,0,0,0,.8-1.4,7.7,7.7,0,0,1-2.6,1.2,16,16,0,0,1-4.9-.2c-.9-.1-.8-.5-.9-1.1s.2-1,.9-.9a4.8,4.8,0,0,0,1.2,0,10.9,10.9,0,0,0,4-.7c-1.2,0-2.3-.5-3.5-.1a7,7,0,0,1-2.5.1C193.4,184.5,193.8,183.7,193.3,183.2ZM77.3,68.4a7.3,7.3,0,0,0-3.1,1.3c-3.3,1.8-4.8,4.5-3.1,7.5.6,1.2,1.1,2.5,2.6,2.9a3.6,3.6,0,0,0,2.3-.5c1-.4,2.5-.2,2.5-1.9,0-.2.4-.4.1-.6a.4.4,0,0,0-.6.3c-.5,1.8-2.2,1.7-3.4,2s-3.3-1.6-3.2-2.7-.5-2.7.5-4a8.6,8.6,0,0,1,2.9-2.8C75.6,69.5,76.6,69.5,77.3,68.4Zm-7,20.5a1,1,0,0,0,.8.4c1.2-.1,2.4.2,3.5.2s.8.2.8.8a56.1,56.1,0,0,0,0,5.8v5.3c0,.4-.2.9.4,1.3a13.6,13.6,0,0,0,.4-4c-.2-2.2-.3-4.5-.3-6.7s-.5-2.6,1.6-2.6c-.7-.6-1.3-.7-1.6-1.3s-.5-.4-.6-.2-1.8.9-2.8.8A3.4,3.4,0,0,0,70.3,88.9ZM18.2,139.2c-.1-.5-.1-1.1-.6-.9s.1.4,0,.7.5,1.9-.3,2.5-.4,1.6-.6,2.4.1.4.2.3.6-.3.4.2-.6.4-.3.6.5-.2.7-.4.2-.4.4-.3h.1c-.3.5-.1,1.1-.4,1.6s-.5.9-.2,1.2.3.4.5.3.3-.3.4-.5.1-1.4.3-2.1.8-1.4-.7-1-.3-.5-.2-.7a9.5,9.5,0,0,1,1-4.1c.2-.4.4-1.1.9-1.1s.8-.9,1.1-1.4.2-.6-.2-.7-1.1-.6-1.1.5,0,1-.1,1S18.7,138.5,18.2,139.2Zm38-127.3c.6.1,1.6-.3.8.9s-.1.5.3.5.2-.2.3-.5.8-.7.9-.3,1,.3,1.5.8-.8-.5-.9-1,.4,0,.6,0,.7-.4.3-.6-.2-.8-.5-1.4.7.8,1.2.7.4-1.6-.9-1.7L59.6,9c.1-.4.3-.1.5-.1s.4.1.4-.3-2.7.4-4,.6a.9.9,0,0,0-.7.4c.1.4.4.4.8.4a2,2,0,0,1,1,1.3c.4-.6.4-1.3,1.1-1.3s-.4.4-.4.8-.3,1.3-1.1.7S56.5,11.7,56.2,11.9Zm1.9,78.6h1.1c.8.2,1.3.1,1-.9s.1-.4.1-.6c0-2.5,0-2.5-1.7-2.9s-2.9-.6-3.4,2.4a2.5,2.5,0,0,1-.2.7c-.1.6,0,1,.8,1.1A19.5,19.5,0,0,0,58.1,90.5Zm31,27.7h.3c.1-.4.4-.7.3-1.1-.1-2.9.4-5.7.1-8.6,0-.4.2-.9-.2-.9s-.6.5-.6.9,0,2.1,0,3.2c-1.7-1.1-2.5-2.9-4.2-3.8a17.6,17.6,0,0,0,3.2,3.9c.6.6,1.2,1.2,1,2.2S89.2,116.9,89.1,118.2ZM52.6,136.7a10.5,10.5,0,0,0,3.8,1.2,54,54,0,0,0,5.8,1c.5.1,1.1.3,1.3-.8a19.7,19.7,0,0,1,.3-2.4,17,17,0,0,0,.3-5c0-.3,0-.7-.4-.6s-.3.3-.4.6.5,1.2.3,1.9-.3,3.4-.6,5.1-.5.9-1,.7a37.3,37.3,0,0,0-5.8-1.2C55.1,137,53.8,137,52.6,136.7Zm-37.6,3c-.5,1-1.3.7-2,.7s-.9-.2-.6.4-.1.9-.5,1.3-.3.2-.2.4l.3.2,1.7-.8c.4-.3-.3-.6-.3-1s1.9,1.5,1.1,2.7.2,1.5-.6,2H14c.3.4.2-.6.6-.1s-.4.5-.4.8.1.8.2,1.3a13.6,13.6,0,0,1,2.1-2.8c-.2-.4-1,0-1-.9s.7.5.8.1-.4-.3-.6-.4a.5.5,0,0,1-.2-.7A5.6,5.6,0,0,0,15,139.7ZM87.7,67.9l-1.8-4.2c-.2-.6-.6-1.4-.9-1.4s-.6.9-.6,1.3-.7.5-.2,1a.5.5,0,0,0,.5-.4c.2-1,.5-.5.7-.1.9,1.9,2.1,3.7,1.6,6.1.5-.5.8-.7,1,.1a10,10,0,0,0,1.6,3.8A18,18,0,0,0,88.3,70a2.2,2.2,0,0,1,0-2.2c.6-1.2,1.1-2.6,1.7-3.9s.5-.7,0-1.2Zm48.6,53.2c.4-1-.2-1.5-.6-2s-2-2-2.9-3.1-1.4-1-2.2.2l-.7.9c-.6.9-1.6,1.7-1.5,2.8s.3,4.1.5,6.2a1.5,1.5,0,0,0,.6,1.4c-.1-2-.3-3.9-.5-5.8s-.3-1.9.4-2.8l1.4-2.2c.5-.7,1.2-.8,1.6-.2S135.5,119,136.3,121.1Zm12-8c.1-1.4-.4-1.8-1.6-1.3s-.9,0-.8-.7a1.5,1.5,0,0,1,.7-1.6c-.6-1,.1-1.7.6-2.4a.6.6,0,0,0-.1-.7c-.2-.1-.5-.1-.6.1s-2.1,1.1-.9,2.5c-.5,2,.2,3.9.5,5.9s.3.7.9.5,1.6-.6,2.1.7c.3-1-.2-1.5-.5-2.1s-1.3,1.1-1.9.5-.9-1.2-.3-1.8S147.8,112.1,148.3,113.1Zm-29-7.7a18.7,18.7,0,0,0,.1-3.3,31.5,31.5,0,0,0-.5-4.3c-.1-.2,0-.4-.2-.5s-.4.2-.4.5a10.6,10.6,0,0,0,.2,2.5c.1.3.2.7-.1.9s-.6-.1-.9-.3a6.9,6.9,0,0,0-1.3-1.1c-.8-.4,0-1.1-.2-1.3s-1.2.6-1.5-.3a.5.5,0,0,0-.5-.3l-.4.4a11.8,11.8,0,0,0,.8,1.2c1.4.2,2.1,1.6,3.3,2.1a1.8,1.8,0,0,1,1,1.6C118.8,103.8,118.4,104.7,119.3,105.4ZM53,224.7a2.2,2.2,0,0,0,1.8.6c.9-.1,1.3.4,1.1,1.3s.2,2.8-.4,4.1.7-.3.7-.6a14.3,14.3,0,0,0,.3-2.9c-.1-1.3.2-1.5,1.5-1.5s1.9.5,3,.1a3,3,0,0,0-2-.5c-2,0-2.3-.3-2.3-2.2s.2-1-.3-1.5a2.4,2.4,0,0,0-.3,2c.1,1-.2,1.3-1.1,1A4.6,4.6,0,0,0,53,224.7Zm54.3-109.8h.3a.4.4,0,0,0,.1-.3v-9.2a.3.3,0,0,0-.3-.3c-.2,0-.2.1-.2.3s-.3,2.6-.4,3.9c-1.5-.5-2.3-2.2-4.3-2.3,1.2,1.3,2.5,1.8,3.6,2.7a2.3,2.3,0,0,1,1,2.1C107.1,112.8,107.2,113.8,107.3,114.9Zm16.5,87.9a21.7,21.7,0,0,0-3.9-3.5c-.2,3.3.5,6.5,1,9.6.5-2.6-.5-5.2-.1-8A8.9,8.9,0,0,0,123.8,202.8ZM14.7,164c.5-.7,1.5-1.2.9-2.3s.2-.4.6-.4.7.1.6-.5-1.3.1-.9-1,0-.8.1-1.3,0-.8-.4-.6-.7-.3-1.3-.5A28.9,28.9,0,0,0,14.7,164ZM112,63c-.1-1.3-.3-2.3-.4-3.3s0-.6-.3-.6a.6.6,0,0,0-.4.7,14.9,14.9,0,0,1,.2,2.1c.3,1.6.3,1.6-1.3,1.7s-1,0-1,.5.6.2.9.3h.5c1.1-.2,1.4.3,1.4,1.3s.2,2,.3,3,0,.5.4.4.3-.2.2-.4.2-1.4-.2-2.1S112.6,63.9,112,63Zm38.2,52.3c.4-.1,1.1-.3.9-.6s0-1.4-.4-1.3-.9-.6-.9-1.1a7.7,7.7,0,0,1,.3-4c0-.2-.1-.3-.2-.3s-.6-.4-.9-.7-.5-.4-.7-.1a4.1,4.1,0,0,0-.7,1.5c0,.5.6.6,1.3.9l-.5-.6c-.1-.2-.3-.6,0-.7s.5.3.7.5-.1.6-.2.8-.5.2-.3.6a3.3,3.3,0,0,1,.5,2.7,1.3,1.3,0,0,0,.2.8C150.2,113.9,150,114.7,150.2,115.3ZM155,96.6c.7,1,1.3,2.1,1.9,3.1a17.8,17.8,0,0,1,1.7,4.1,6.5,6.5,0,0,0,1.4,2.9c-.1-.9-.3-1.5-.4-2.1-.4-2.2-1.6-4.1-2.1-6.2-.1-.4-.3-.5-.6-.5a.9.9,0,0,1-.8-.5A1,1,0,0,0,155,96.6Zm28.2,48.6a1.9,1.9,0,0,0,1,1.4c1.1.9,2.5,1.6,2.9,3.2.1.1.2.4.4.3s.3-.4.2-.7-.8-3.3-1.3-5-.1-.6-.4-.6a.5.5,0,0,0-.3.8c.4.8.1,1.7.7,2.4C184.9,147.1,184.5,145.5,183.2,145.2Zm-132-8.6c.9-.5.9-.5.9-1.4s.4-2,2.2-1.8a38.7,38.7,0,0,0,4.9.5v-.2c-2.2-1-4.6-.7-6.8-1.4a.4.4,0,0,0-.5.3C52,134,50.9,135.2,51.2,136.6ZM31.5,82.8c.9-.2,1-.4.8-.5s-.1-1-.4-1.4-1,1.2-1.3,1.9.5,1.7-.9,1.9c2.4,1.3,2.4,1.3,2.9.6s-.5.4-.8,0S32.5,83.5,31.5,82.8Zm123.9,75.4a7.2,7.2,0,0,0-.1,6.7c.1.2.4.4.4.3s2.1-.5,3.1-1.2c-.8-.4-1.4.5-2.1,0l1.2-3.2c-1.2,1-1.4,2.6-2.2,3.9a8.5,8.5,0,0,1-.7-3.3C155.1,160.3,155.3,159.3,155.4,158.2ZM46,161.5c.2,1-1.1,2,0,3.1s.4.8-.1,1-.8,1.2-.7,2a.8.8,0,0,0,.7.8c.4-.1.5-.5.5-.9s-.2-.8-.1-.9.5-1.7.5-2.5A3.4,3.4,0,0,0,46,161.5Zm-17-72c-.7.2-1.1.7-.8,1.4s.7-.1,1,0-.5-.2-.3-.6,1.5-.5,1.3-1.7-.2-2.1-.3-3.2c-1.6.5-.7,2.3-1.5,3.2S29.1,89,29,89.5Zm3.1,5.6c-.3.4.7.8.1,1s-.1,1.1-.9,1.1-.1,1-.7,1.2-.5.2-.4.4.3-.1.5-.1.5.4.4.7-.6.4-.1.6.6,0,.8-.3l.3-1.2c.3-.7.1-1.8,1.3-1.8a.3.3,0,0,0,.3-.3c-.1-.7.4-1.3.1-2S32.8,95.3,32.1,95.1ZM12.7,191.7H14l.2-.3c.1-.1,0-.2-.1-.2s-1,.5-.8-.5-.4-1,0-1.4.3-.3.1-.5l-.4-.2c-.3.1-.5.3-.4.5s-1.1,1.6-.4,2.6-.8.9.4.8.2.2.1.2.2,1.3-.8,1.2-.7.4-.8,1.2c.8-1,2.1,0,2.3-.8A2.8,2.8,0,0,0,12.7,191.7ZM15,205.2c-.2.6.3,1.4-.4,1.9s.1-.8-.2-1.2a1.7,1.7,0,0,0-1,1.3c.9,0,.5.8.6,1.2a1.5,1.5,0,0,0,1.1,1.2c.3-.7.6-1.3-.5-1.8,1.4.1,2-.6,1.9-1.9C15.2,207.2,15.7,205.2,15,205.2Zm107.5-5.9a1.7,1.7,0,0,0-.6-1.2c-1-1.3-2.2-2.5-2-4.4s-.2-1.1-.2-1.7-.1-.4-.3-.4-.3.1-.4.4.1,1.1.1,1.7C119,196.3,120.7,197.8,122.5,199.3ZM13.8,173.4c.6.1,1.2.1,1.4.8s.3.6.7.2.6-1.2.3-1.3-1.2-1.4-1.6-2.4c-.2.5,0,1-.5,1.2s.6-1.4.3-2.2h-.2c-.2.6-1.6.7-.8,1.8-.9.5-.5.6.2.7S14.1,172.9,13.8,173.4ZM82.6,261c-.2-1.1.6-1,1-1.2a2.8,2.8,0,0,1,2-.1c.4.2.8.1.8-.4s-.3-.5-.7-.5a9.7,9.7,0,0,0-1.7,0c-.6.2-.4-.7-.7-.6s-.5.8-1,.8a5.9,5.9,0,0,0-1.9.5C80.9,260.4,82.4,259.5,82.6,261ZM122.9,84.8h.1c1.3-.5,2.5-1,3.9-.3s.4,0,.6-.2.4-.5.8-.2.7.1.7-.2-.3-.3-.6-.4-3.3.4-5,.5-1.5-.4-2.1.3-.3.1-.3.3.2.3.4.2a1.3,1.3,0,0,1,1.5.9c.1.2.3.5.6.2S123,85.2,122.9,84.8ZM36.6,95.6c-.2.2.1.7-.4.8s-1.1.7-.4,1.5.4.8-.4.5-.6.5-.6.8.3.3.5.1.4.1.5.1.1.1,0,.2-.6.3-.2.6.4-.3.6-.4.4-1.3,1.4-.9.4-.1.4-.4-.4-.1-.5-.2-1.4-.2-1.4-1.2.4.8.7.4S37.6,96.1,36.6,95.6ZM24.3,140.7c-.7.1-.2,1-.9,1s.1-.6-.2-.8-1,.7-.2,1.3,0,.3-.3.3-.5.5-.3.9,1,1.4-.1,2c.8.3,1.1,0,1.1-.7s0-.3,0-.5.1-1.8,1.8-1.7.3-.3.4-.4,0-.5-.1-.5S24.5,141.1,24.3,140.7ZM35.9,269.2c.2.5.2.9.7.9s.3-.5.4-.8-.3-1.2-.8-1.6l-.5-.3c-.4-.3.3-1.2-.5-1.1s.2.8-.3,1.1-.1.6.3.8.5-.1.8.3-1.1-.4-1.3.3a2.2,2.2,0,0,1-.5,1.2C34.9,270.2,35.8,270.9,35.9,269.2ZM76.7,73.5c.3,1.1,1.2,1.8,1.4,2.8s.3.5.6.4.3-.4.1-.7A9.6,9.6,0,0,0,77,72.7a7.6,7.6,0,0,0-2.3,3.4c-.1.2-.5.5-.1.7s.5-.1.6-.4Zm8.8,180.7c.7.1,1,0,1.1-.3s-.5-.2-.7-.4a2,2,0,0,0-1.1-.2l-4.7.4a.6.6,0,0,0-.6.6c.1.4.5.2.8.2C82.1,254,84,254.6,85.5,254.2Zm35.4-147.5c-.1.7.4,1.2.6,1.7s.6.7.9-.2a7,7,0,0,1,.6-1.9.8.8,0,0,0-.1-1,.7.7,0,0,0-.7-.2A2.9,2.9,0,0,0,120.9,106.7ZM78.9,257h.8c1.9.2,3.8-.6,5.7,0,.2.1.5.1.5-.3a.5.5,0,0,0-.6-.6H82.8A7.4,7.4,0,0,0,78.9,257Zm84.8-113.6c-.4,1.7-.1,3.4-.5,5s.3.7.7.7.4-.4.2-.8a1.3,1.3,0,0,1,.1-.9c1.1-.5.4-1.3.2-1.7s.6-1.4-.2-2ZM78.2,10c-.6-.6-1.2,0-1.7-.3.4,1.4-1.8,1.4-1.4,2.8,1-.3,1,.2.8,1s1.5-1.3.7-1.8,1.2-.1.9-.8S77.7,10.2,78.2,10Zm94.9,111.8c1.2-1-.3-1.9.3-2.9a2.5,2.5,0,0,0,.4-2.8c-.4.7-.7,1.9-.9,1.9a.9.9,0,0,0-.8,1.2A22.4,22.4,0,0,0,173.1,121.8ZM20.6,223.5c-.1.6-.3,1-.9,1.1s-.2.7-.3,1.1.8.5,1.2.9.8.3,1.4.2.2-.6.3-.9-.5-.6-.6-.6-.8-.4-1-.9S21.1,223.9,20.6,223.5ZM131.4,119.3c.2,3.1.1,6.2.9,9.2C131.7,125.5,132.5,122.3,131.4,119.3Zm32.1,0c.3-.4.6-.6.4-1.1a28.8,28.8,0,0,0-.9-4c-.1-.3.1-.7-.4-.6s-.1.4-.1.7a6.6,6.6,0,0,1,.3,2.4c-.4.1-.7-.5-1.2-.1S163.5,117.9,163.5,119.3ZM29.3,109.4c.3-.4,1.2-.1.8-.9s0-1.1.7-1.4c-1.2-.5-1.2-.5-.8-1.2a.9.9,0,0,0-1,.2c-.2.2-.4.3-.6.1s-.8,0-1.2.1,1.2,0,.9.8-.1.5.2.6a.4.4,0,0,0,.3-.4.6.6,0,0,1,.3-.6C29.7,107.4,29.1,108.4,29.3,109.4Zm97.1-63.6c.4.8.8,1.2,1.5.3a5.2,5.2,0,0,1,1-1.1c.1-.2.2-.4,0-.4s-.7-1-.6-1.7a.5.5,0,0,0-.5-.6c-.2,0-.4.1-.3.5s-.8,1.5-1.4,2.1.7.2,1,0,.5-.9.9-.2-.3.7-.5,1S126.8,45.5,126.4,45.8ZM186.1,180a2.3,2.3,0,0,1-1.8-.5c-.4-.3-1.1-.5-.8.5s-.5.4-.7.6.3.3.4.4,1.3-.7,1.1.6a1.7,1.7,0,0,1,1.3.5l.3-.2c.1,0,.2-.2.1-.2S186,180.6,186.1,180ZM55.1,96.9c-.1-.6-.7-.2-.8-.7l1-.2c.2-.1.7-.3.5-.7s-.3-.5-.9-.3-1.1.2-1.1,1.1-.5,1.4-.1,2,.5.5.6,0A2.1,2.1,0,0,1,55.1,96.9Zm63.6,92.3c.1-.8-.5-1.3-.4-2s.5-.5,0-.8-.4,0-.5.2-.7.9-.4,1,.2.8,0,1.1a1.9,1.9,0,0,0,.2,1.9c.1.2.5.1.5,0S119,189.8,118.7,189.2ZM85.5,78c.6-.1.5-.5.4-.8s-.7-1.9,0-2.8,0-.5-.1-.6-.4.1-.5.2-.4.5-.7.3-.2-.5-.5-.2-.1.5,0,.7a11.9,11.9,0,0,1,1.2,2.9Zm87,112c-.5,1.3-.5,1.3.1,2.4s.1.1,0,.2.2.9.2,1.6.8-.2,1.1-.5-1-.9-.7-1.5S172.9,190.7,172.5,190Zm5.9-23.1c.7,0,1.8-.2.8,1s0,.5-.1.7,0,.4.3.5.4-.1.5-.3a2.5,2.5,0,0,0,.2-.7c0-.9.1-1.7,1.2-1.9s.2-.3.2-.3a.5.5,0,0,0-.4-.3C180.3,166,179.1,165.7,178.4,166.9Zm-49.7,17.3c.3-.5,1.4,1.3,1.3-.6h.2c.6.6.7-.4,1.3-.2s.2-.6.2-1-.1-.3-.4-.3A2.8,2.8,0,0,0,128.7,184.2Zm1.6-7.2v-5.6c0-.1-.1-.3-.2-.3l-.4.2c-.3.3,0,.5,0,.9a4.5,4.5,0,0,1,0,2c-.1.2-.9.2-1.4.3v.2a.4.4,0,0,0,.4.2c1-.3,1.5-.1,1,1.1S129.8,176.6,130.3,177ZM14.2,193a3.7,3.7,0,0,0-.3,2.7,1.4,1.4,0,0,1,.1,1.1c-.1.3-.5.6.1.7s.6-.3.5-.6S15.5,194.3,14.2,193Zm2.9-41a5.9,5.9,0,0,0-.7,2.5,1.2,1.2,0,0,0,.9.9c.3.2.7-.3.7-.6A3.5,3.5,0,0,0,17.1,152Zm134,2.9c1.5.4,2.7-.4,4.1-.3-.2-.3-.5-.6-.7-.5s-.8-.2-.6-.8a2.2,2.2,0,0,0,0-1.6c-.3,0-.4.2-.4.3s0,2.5-1.7,2.4A.7.7,0,0,0,151.1,154.9ZM67.7,175.5c0-.5.1-.7-.2-.9a.6.6,0,0,0-.7.4c-.5,1-.5,2.2-1.4,3s-.1.5.2.6.6-.1.7-.2S67,176.2,67.7,175.5ZM81.6,9.2h1.1c.7.2,1.5-.3,2.1.1s-.1.3,0,.5h.3c-.3-.6,1.4-.1.5-.9s-.1-.3.2-.4.5-.4.2-.6-.7-.3-.9.2-.7.5-1.3.5S82.1,8,81.6,9.2ZM9.2,222.8c.4-.4.8-.1,1.1-.2s-.5-.5,0-.8.8-.2.5-.4,0-1.3-.1-1.9.3-.5,0-.8-.3,0-.5.1-.3.4-.4.8A5.3,5.3,0,0,1,9.2,222.8Zm134.7-62.4a1.2,1.2,0,0,1,1.5-.2c.1,0,.3,0,.3-.2a1.7,1.7,0,0,0-.1-.7c-.1-.2-.2-.2-.4-.2s-.3.2-.3.1-.3-.4-.5-.5-.1.4-.3.5-1.2,1.9.6,2.3c.1,0,.1.2.4.1s-.3-.9.3-1S144.3,160.9,143.9,160.4ZM102.5,221c0,.2-.1.6-.1,1s.2.4.4.5a.4.4,0,0,0,.4-.4,23.1,23.1,0,0,1,.3-3.7.3.3,0,0,0-.3-.5c-.3-.1-.3.2-.3.4A5.7,5.7,0,0,0,102.5,221Zm28.1-36.2c.5-.2,1-.7,1.2.2s.7.4.8,0a5.4,5.4,0,0,1,.9-1.2c.2-.3.2-.5-.2-.5a.7.7,0,0,1-.6-.4c-.1-.2.1-.8-.5-.5s-.2.5-.2.9.3.6.3.9S130.9,183.4,130.6,184.8ZM95.5,269.9c-.6-.1-.3-1-1-1s-.8-.2-.8.2-.3.9-1,.6-.5-.1-.5.2.1.4.4.4l1.7.4C94.8,270.7,95.1,270.3,95.5,269.9ZM63.8,183.5c1.7-.4,2.7-2.4,2-3.6s-.2-.4-.4-.3l-.3.3C65.3,181.3,64.6,182.3,63.8,183.5Zm7.4,74.1c.2-.5-.6-1,.3-1.2a.3.3,0,0,0,.3-.3c-.1-.4-.3-.2-.5-.2s-1.4.5-2.3-.1c.5,1,1,1.8.2,2.5s.1.3.3.3.4-.1.4-.3S70.5,257.4,71.2,257.6ZM79.4,7.8A2.5,2.5,0,0,1,79.6,9c.1,1,.8-.5.9.2s.2.4.1.7.1.9.2,1.4l.3.3c.1,0,.2-.2.2-.2a8.6,8.6,0,0,0-.1-2.8C81.1,8.1,80.2,7.9,79.4,7.8ZM17.1,147.3a.6.6,0,0,0-.2-.8c-.4-.1-.4.3-.6.5s0,1.7-.6,2.4.7.1,1,.5.4-.2.4-.5ZM29.9,95.6c.4.3-.7,1,.3,1.1s1.2,0,.9-.5.3-1.6-.9-1.1-.7.3-.6-.4-.1-.4-.3-.3a.4.4,0,0,0-.4.3,7.6,7.6,0,0,0,.1,1.5c0,.2.4.6.6,0A.6.6,0,0,1,29.9,95.6ZM7.7,185.8c-.4-.1-.6.2-.5.3s-.3,1.2-1.1,1.4-.2.9-.4,1.3.3.3.4.3.4,0,.4-.3.7-.8,1-.8.2-.8.7-.6v-.6C7.3,186.8,7.8,186.1,7.7,185.8Zm34.6-71.9c.7,1.4-.5,2.6,0,4s-.3.6.2.6.5-.1.4-.7a3,3,0,0,1,.2-2.1C43.9,114.6,42.9,114.4,42.3,113.9Zm160.2,70.5c.6-.9-.2-1.6-.1-2.4a.4.4,0,0,0-.4-.6c-.4,0-.2.4-.3.6s.1,1.6.2,2.4-.1,1.3.5,1.2S202.5,184.8,202.5,184.4Zm-48.6-79.3a20.3,20.3,0,0,0,2.9-4.3c.1-.2.1-.4-.1-.5s-.2-.1-.3.1A19.2,19.2,0,0,0,153.9,105.1ZM79.8,186.5c-.2-.8.2-1.5.1-2.3s.1-.6-.2-.6-.5.2-.5.5-.2,2-.2,3-.2.9.2.9.6-.6.7-.9S79.8,186.7,79.8,186.5Zm17.7,32.8c.6-1.3.5-2.6.9-3.9s.1-.6-.3-.6-.4.2-.4.5l-.6,3A1,1,0,0,0,97.5,219.3Zm30.3-115.7c-.5,1.2-1.1,2.2-1.5,3.4s.4.7.6,1,1.1-.7,1.4-1.4h-1.1A4.2,4.2,0,0,0,127.8,103.6ZM48.5,156.1c-.9,1.9.2,3.7-.4,5.4A6.3,6.3,0,0,0,48.5,156.1ZM62.2,70.5a6.7,6.7,0,0,0-.5-4.6A10.2,10.2,0,0,0,62.2,70.5Zm93.5,63.7c.3-.7-.3-1.5.4-2-1.1-.2-.6-1.2-.9-1.9s-.1-.3-.3-.2-.3.1-.3.4A6.2,6.2,0,0,0,155.7,134.2ZM37.4,267.8c.3.5.5.1.7.1s1.4.7.9-.7V267c0-.1.7.2.3-.3s-.3-.7-.7-.2-.3-.1-.4-.2.2-.8-.3-1.1.4-.4,0-.4-.6,0-.4.5l.3,1.5C39,267.6,37.9,267.7,37.4,267.8ZM14.3,142.9c-1.5-1.1-1.7.2-2.3.6a.5.5,0,0,0-.3.5c.2.4.7-.1.9.2s-.8.3-.6.7.5.3.8.3.3-.4.3-.7S12.9,142.9,14.3,142.9Zm92.6,29.6c-.2-.3-.3-.6-.6-.7s-.4.2-.4.5.4.6-.2.6-.3-.5-.3-.7.1-.6-.3-.6-.4.2-.5.5a1.2,1.2,0,0,0,.4,1.4c.3.3.5.4.9.2S106.3,172.6,106.9,172.5ZM23.6,145.3c.4-.2,1.3,1,1.2-.5h.1c1.1.4.7-.6,1-1s-.3-.5-.5-.6a.7.7,0,0,0-.8.2C25,144.4,24,144.6,23.6,145.3Zm3.6,100.9c0-.1,0-.3-.3-.3l-.4.2a4.4,4.4,0,0,1-1.4,2.8c-.1.2,0,.7.2.5s1.3-.7,1.6-1.2S26.9,247,27.2,246.2ZM124.3,51.5c.8.6.3,1.4.1,2s1,.9,1.1,1.6a4.2,4.2,0,0,1,1-.7c-.7,0-1-.1-1.1-.7S125.6,51.8,124.3,51.5ZM66,16.9c.9-.4,1.8-2.8,1.3-3.4s-.4-.3-.5.2S66.4,15.7,66,16.9ZM27.5,106.8c-.5.3-1.3.9-1.2,1s.5,1.2.2,1.9-.2.6.3.7.3-.3.4-.5A6.5,6.5,0,0,0,27.5,106.8ZM20.8,221.1c.7-.4.6-.8.2-1.3s-.1-1.2,0-1.8-.5-.5-.7-.4-.3.5-.1.7a1.4,1.4,0,0,1,.2,1.5C20.1,220.4,20.5,220.7,20.8,221.1ZM122,246.9c-.4-.5-1.3-.2-1.2-1.1a.4.4,0,0,0-.6,0,4.3,4.3,0,0,0-.2,2.5.5.5,0,0,0,.7.3.4.4,0,0,0,.2-.5C120,246.7,121.2,247,122,246.9Zm68.3-55.1a.7.7,0,0,1,.5.8.9.9,0,0,0,.6.7c.2.1.2-.2.3-.3s0-.7-.3-.9l-.3-.3c0-1.2-1,.1-1.1-.6s-.7.8-.3,1.3.1.4.4.4.4-.3.3-.6S190.2,192,190.3,191.8ZM166.6,207c1,.1,1.9,0,2.2-1s-.2-.7-.7-.6S166.6,205.9,166.6,207ZM16.5,222.7c-.2,0-.3.1-.3.2s-.1.6.2.6l2.3.4c.2.1.4.1.5-.1s-1.2-.8-.5-1.6-.4-.1-.5.1S17.4,223.8,16.5,222.7ZM104.6,11.6c1.3.4,1.7-1,2.6-1.1s0-.6-.1-.5-1-.7-1.6-.5S105.6,11.1,104.6,11.6ZM17.2,203c-.4-.6-1.2-.6-1.4-1.2s.4,1.5-.3,2.2.1.4.5.4h.4C16.5,203.8,16.5,203.2,17.2,203ZM156.5,92.7a8.7,8.7,0,0,1,.7,4.5.3.3,0,0,0,.3.3h.3C158.3,96.6,157.5,93.5,156.5,92.7Zm-82.3,99c.1-.3.4-.5,0-.7s-.4.1-.4.3l-.6,3.2a.5.5,0,0,0,.5.5c.3,0,.3-.3.2-.5S74.8,192.6,74.2,191.7Zm-45,57.7c-.5-.4-1,.8-1.2-.3s-.2-.5-.5-.2a1,1,0,0,0-.5.6c-.1.2.2.4.4.4s.9.6,1,1.2a1.2,1.2,0,0,0,.7,1.1C29.1,251.2,28.1,250.2,29.2,249.4Zm-15.5,9.3c-.2.5-.4.7-.4,1s.1.5-.2.3-.4-.3-.5,0-.2.7.2.7a1,1,0,0,1,.8.8c.1.3.4.3.7.1s.5-.2.3-.4S14.1,259.7,13.7,258.7Zm83.9-35.8c-.9,1-.6,2.2-.9,3.3s0,.7.3.7a.4.4,0,0,0,.4-.6,7.8,7.8,0,0,1,.4-2.2A1.1,1.1,0,0,0,97.6,222.9Zm74.5-37.7c.2-.2.5-.3.3-.5a2.3,2.3,0,0,1,.1-2.6c0-.1.3-.3,0-.5h-.3c-1.1.6-1.2,1.4-.6,2.7S172,184.8,172.1,185.2Zm-12.5,15.2-.2.2c-.4,1.5,1,2.5,1,3.8h.3c.1-.1.2-.2.2-.3S160.5,201.5,159.6,200.4Zm-43.4,52.2c-1.8,1.1-2.4,1.8-2.2,2.9s.2-.4.3-.5.6-1.3,1.4-.5.6.1.7-.2,0-.6-.4-.5-.3,0-.1-.2S116.1,253.1,116.2,252.6ZM36,223c1-1,.4-2.2.5-3.3a.4.4,0,0,0-.5-.4.6.6,0,0,0-.3.7c.1.3.5.6.2,1.1A1.9,1.9,0,0,0,36,223Zm-18.6-3.4c.1.1-.3.7.4.5s.6-.2,1,.2.4.2.6,0a.9.9,0,0,0,0-1,1.9,1.9,0,0,0-1.6-.5C17.5,218.9,17.1,219,17.4,219.6Zm127.8-62.8c-.1-.7-.3-1.4-.6-1.2s-1.4.4-1.5.9,1,.3,1.3.9S145.4,157.2,145.2,156.8ZM24.5,96c-.8.1-.8.9-1.3,1.2s-.7.6,0,.7.2.3.2.4.4.4.7.5.3-.1.3-.2-.2-.3-.4-.5-.1-.3.1-.5S24.6,96.7,24.5,96Zm11.2-2.4c.6.3.7-.3.8-.7a2.9,2.9,0,0,0,.1-1.6c0-.1.5-.4.1-.5s-.4.3-.4.5-.2,1.7-1.4,1.6-.3.4-.4.7,0,.3.1.3.4-.1.5-.3S35.4,93.3,35.7,93.6Zm17.6,77.9c.1-.7-.7-.6-.8-1.2s-.3-.2-.4,0a.8.8,0,0,0-.1,1c.2.4-.1.6-.2.9s-.1.6.2.7.4-.3.4-.5.1-.3.4-.2S53.1,171.7,53.3,171.5ZM17.6,126.8v3.3c0,.1.2.2.4.2s.3-.2.3-.4A2.8,2.8,0,0,0,17.6,126.8Zm-5,21.2c0,.3-.1.7-.1,1.1s.7.7,1.1.8.7-.2.8-.5-.4-.5-.7-.7Zm141-49.5.2.6a.3.3,0,0,0,.3.3c.1-.1.3-.2.3-.3a6.1,6.1,0,0,1,.3-3,.4.4,0,0,0-.3-.5c-.4-.1-.4.3-.4.5S153.8,97.5,153.6,98.5ZM81.8,10.4c-.4.8,0,.9.6,1s.5-.1.5.1.5.2.6,0-.3-.6-.5-.8-1,.4-.4-.4.1-.8-.4-.8S81.8,10,81.8,10.4Zm96.9,127.4c1.1-1,.4-2,.2-3a.5.5,0,0,0-.5-.4c-.2,0-.2.2-.2.4A18.7,18.7,0,0,0,178.7,137.8ZM13.3,258.3c.6-.4,1.7.4,1.8-.4s-1.1-1.4-1.3-1.3S13.7,257.7,13.3,258.3ZM40.5,62.1c-.4-.1.2-1-.5-.8s0,.6,0,.9,0,.4.1.5a2.4,2.4,0,0,0,.8.6c.1.1.6-.1.5-.4s.2-1.3-.2-1.9S41.1,61.9,40.5,62.1ZM24.8,251.7c.1.9-.2,1.7.4,2.4s.1.4.4.4a1,1,0,0,0,.4-.5C26.3,252.9,25.8,252.3,24.8,251.7Zm125.3-67.9.3-.2c.3-.1.2-.9-.1-1.1s1.1-.7,0-1h-.1c-.4.3-1.1.2-1.3.9s.5.2.7.4a4.3,4.3,0,0,0,.4.7A.8.8,0,0,1,150.1,183.8Zm-136,26.3c-.2.4,0,.8-.3,1.1s.2,1.2.4,1.3.5-.3.2-.6h.2C15.5,211,15.4,210.7,14.1,210.1Zm-.4,52.4a5.1,5.1,0,0,0-1.1,3.1C14.6,265.2,13.4,263.5,13.7,262.5ZM91.5,120.4c.7,0,1.6.8,2.1-.4s-.4-.6-.7-.7S91.6,119.5,91.5,120.4Zm12.7,39.9c-1.1.9,0,1.9-.3,2.9s.5-1.1,1.3-.6.4-.2.4-.4-.2-.5-.5-.3-.7-.3-.7-.8A.9.9,0,0,0,104.2,160.3ZM29.1,102.8c-.6.3-.4.8-.9.9s-.3.7-.2,1a1,1,0,0,0,.9.8c.3,0,1-.5.6-.7S29.1,103.6,29.1,102.8ZM91.4,74.2c.1-.1,0-.2-.2-.3s-.4,0-.4.2L89.9,77c-.1.2-.2.4.1.5s.4-.1.4-.3A21.1,21.1,0,0,0,91.4,74.2Zm36.4-19.8c.3-.9.1-1.3-.4-1s-.8,0-.7-.6-.1-.5-.4-.4-.6,0-.5.1-.2,1.2.5,1.4ZM78,68.8a26.2,26.2,0,0,0,2.1,3.4C80.2,70.9,78.8,68.8,78,68.8ZM96.1,13.3c-.4.7-.1,1.9-1.6,1.6a3.4,3.4,0,0,0,1.1.7c.3.1.8,0,.8-.2s.6-.6.5-1S96.5,13.6,96.1,13.3Zm-70,232.4c-.3-.4.1-1.2-.6-1.3s-.6.9-.7,1.3.4,1.2.8,1.2S25.9,246.2,26.1,245.7Zm152-139c.4-.3.4-.8.5-1.2s-.2-.8-.5-1.1-.7,0-.7.1a.8.8,0,0,0,.1,1.1C178,105.8,177.5,106.4,178.1,106.7ZM16.1,262.1c.4-.5.2-1,.8-1.3s-.1-.6-.4-.7-.7-.4-.6.3-.3.2-.6.1.1-.7-.5-.7S15.8,261.2,16.1,262.1Zm-4.2-113-.6.6c-.2.2-.2.4,0,.5a1.1,1.1,0,0,1,.6.9c0,.4.2.7.6.3s.8-.3.5-.6S12.1,149.8,11.9,149.1Zm99,38.9c-.1.5-.1,1,.5,1s.7-.6.8-1.1.1-.9-.6-.8S110.7,187.4,110.9,188ZM98.4,140.6c.3.1-.6.8.3.7s.2-.4.2-.7-.1-.5.2-.3.4-.2.5-.4.3-.4,0-.6-.5-.1-.8,0A.9.9,0,0,0,98.4,140.6ZM124,33.7c.2.5-1.8,1.6.4,1.6.2,0,0,.2,0,.3s.2.4.3.6l.4-.2c.2-.2.2-.5,0-.6S124.6,34.2,124,33.7ZM105.3,14.2c.2.3-.2.7.4.8s.4-.1.3-.4a3.1,3.1,0,0,1,.2-2.1c.1-.5-.3-.5-.5-.6s-.3.3-.4.4S105.7,13.6,105.3,14.2Zm-86,106.1v.3c.1.5-.2,1.1.7,1s-.2-.5.2-.7a.5.5,0,0,1,.1-.3,1.1,1.1,0,0,0-.3-1.2h-.3A1.4,1.4,0,0,0,19.3,120.3ZM116.2,63c-1.5-.2-2.5-.1-3.4.8C113.8,63.6,114.9,63.9,116.2,63Zm-91,47.9c0-.9.1-1.8-1.1-1.9.5,1-.7,1.8,0,3l.3-1.5Zm90.1-89.5c-.1.5.6.4.4.7s-.4.3-.6-.1l-.6.4c-.2.2-.1.4,0,.4a4.7,4.7,0,0,0,1.6.2c.7-.2-.1-.8.2-1.3S115.7,21.5,115.3,21.4Zm80,173.1-.3-.3c-.6.1-.8-.3-1-.7s-.3-.5-.6-.3a1.5,1.5,0,0,0-.5.6c-.1.3.3.3.5.4a10.5,10.5,0,0,0,1.1.7C194.9,195.2,195.1,194.9,195.3,194.5ZM19.2,139.6a10.9,10.9,0,0,1-.5,1.4.7.7,0,0,0,.2,1c.4.2.5-.2.7-.5S20,140.2,19.2,139.6Zm93.3,112.8c.4-1.7,2.1-.3,2.6-1.6C113.3,250.4,112.3,250.8,112.5,252.4Zm39.2-65.6c-.7-.1-.4-1.2-1.1-1.1s-.3,1-.8,1.3a2.6,2.6,0,0,0,1.2.5C151.1,187.6,151.4,187.1,151.7,186.8ZM90.2,61.5A14.2,14.2,0,0,0,91.7,65C92.1,64.2,91.4,62.6,90.2,61.5Zm35.6,42.4c.1-1.5.2-2.9.3-4.5A5.5,5.5,0,0,0,125.8,103.9Zm.6-64.6c-.1-1-.7-1.8-.9-2.8C124.4,37.9,125.2,38.7,126.4,39.3ZM75,184.5a8.4,8.4,0,0,0-1,2.9c0,.2.1.4.3.3l.3-.2C74.7,186.5,75.5,185.7,75,184.5ZM154.4,149c1.5-.5.6-1.6.7-2.5s-.6.5-1,.5S153.9,148.3,154.4,149ZM12.2,160.6c.2.2.7.2.6.7s.3.2.5.2.2-.4.1-.6-.5-.9,0-1.4.3-.6-.2-.7-.6,0-.6.2A1.6,1.6,0,0,1,12.2,160.6Zm6,45c-.3.4-.7.5-.5,1s0,1.3.5,1.8-.3.4.1.5h.3l.3-.8C17.9,207.5,18.5,206.5,18.2,205.6Zm139.2-50.4c.5-.5-.7-.4-.1-.9s.6-.1.4-.5-.6-.1-.8,0-1,.1-1.4.6ZM39,91.9c-1.4-.3-2.1.2-2.2,1.4s-.1.4.2.5.5.1.5-.3S38.2,92.3,39,91.9ZM54.8,14.4c.7,0,1-.2.7-.9a3.5,3.5,0,0,1-.3-1.1,1,1,0,0,0-.1-.4.7.7,0,0,1-.8.5c-.1,0-.2.3,0,.4S54.7,13.9,54.8,14.4Zm69.5,233.5a1.4,1.4,0,0,0-.1-2.2c-.3-.2-.6-.1-.6.4S124.1,247.2,124.3,247.9Zm-7-38.4c-.1-.4-.3-.5-.7-.6a.6.6,0,0,0-.6.8c.1.4-.1,1.1.5,1S117,209.9,117.3,209.5ZM71.6,10c-.1-.2-.1-.5-.2-.5a1,1,0,0,0-.9.4c-.2.4-.6.9-.3,1.3s.7,0,1-.1S70.6,10.1,71.6,10ZM119,13.2c-.1-.5-.1-1.1-.8-1s-.9.9-.6,1.9A1.3,1.3,0,0,1,119,13.2Zm-94.5,161a2.3,2.3,0,0,1-.8-2.9C22.5,173.6,22.5,173.6,24.5,174.2Zm1.7-79.1c.5-.3.4-.9,1-1.1s.6-.4.4-.7-.6-.1-.8.1-.1.2-.3.1-.8-.2-.9.2.5-.2.5.2a.3.3,0,0,1,0,.4C26,94.6,25.9,94.8,26.2,95.1Zm2,6.9c-.4-.4-1.3-.4-.6-1.2s-.1-.4-.4-.4-.3.1-.3.2-.5,1.7.6,2.6C27,102.2,27.6,102.1,28.2,102Zm-5.8,95.8a.4.4,0,0,1-.1.3c-.3.8.8.2.7.7s.2-.8.8-.8-.1-.7-.6-.4a.2.2,0,0,1-.3-.1c-.1-.2,0-.7-.4-.4S22.1,197.5,22.4,197.8Zm44.8,65.9c-.3-1.8-.3-1.8-1.4-.9h-.1c-.3-.1-.5,0-.4.3s.3.1.4.1A3,3,0,0,1,67.2,263.7ZM43.6,215.2c-.3-.6,0-.9.3-1.2s-1.3-.7-1.5,0S43.2,214.7,43.6,215.2Zm2.8-1.4c-1.2-.5-.7-1.4-.7-2.2-.5.7-1,1.2-.5,2.1S45.9,213.9,46.4,213.8Zm-10,50.3a1.4,1.4,0,0,1-.3,1.1c-.2.2-.1.4.1.5s.3,0,.3,0,1-.9.5-1.8.1-.6-.4-.5S36.2,263.7,36.4,264.1ZM147.5,131.2a1.4,1.4,0,0,0,.5,1.2c.4-.9,1.3-1.5,1.4-2.6S148.7,131.4,147.5,131.2Zm18.7,12.6c-.1-1.1-.4-1.6-1.5-1.3a.5.5,0,0,0-.4.6c0,.4.3.5.6.3S165.7,143.6,166.2,143.8ZM40.2,247.9c-.4-.7-1-.1-1.4-.4s-.4,0-.3.2.1,1.1.9,1.1S39.6,247.9,40.2,247.9ZM65.3,12c-.6.6-.5,1.3-.7,1.9s-.1.5.2.5.4-.1.5-.3A1.8,1.8,0,0,0,65.3,12ZM27.8,111.9c.4-.8,1-1.3.6-2.1s-.2-.5-.4-.5-.3.3-.3.5A3.8,3.8,0,0,0,27.8,111.9ZM159.4,154c.4.2.7-.2,1-.2a.6.6,0,0,0,.5-.9c-.4-.6-.4.3-.7.2s-.6.4-.8.3-.7-.1-.7.3S159.1,154.1,159.4,154ZM26,232.8l-.8-.2c.2-.3.6-.6-.1-.6a.5.5,0,0,0-.5.8c.3.5-.3,1.1.2,1.3s.5-.7.9-1Zm-7.6-42.5c-.5,1.1-2.2.3-2.2,1.9.8-.3,1.3-1.3,2.3-.5S18.6,190.9,18.4,190.3ZM41.6,64.4c.3-.6-.3-.8-.4-.7s-.4.9-.8,1.3.2.6.5.5A.9.9,0,0,0,41.6,64.4ZM96.4,245.6c0,.3-1,.5-.7,1.2s.6.4.9.3S95.5,246,96.4,245.6Zm9.5-228c-.1-.7.9-.9.8-1.4s-1,.2-1.2-.6A2.3,2.3,0,0,0,105.9,17.6ZM46.6,67.8a.7.7,0,0,0-.6-.6c-.6-.1-.7.4-.8.7s-.1.7.4.8S46.3,68.1,46.6,67.8ZM14.5,221.3c1.5-1.5,1.5-1.5,0-2Zm102.6-6.8c-.1-.4-.3-.9-.6-.8s-1,.2-1,.8.4.5.7.6A.9.9,0,0,0,117.1,214.5Zm16.9-94c-.1,2,.1,3,.8,3.5C134.5,122.9,134.8,121.7,134,120.5Zm31.8-41.7c-.2-.5-.3-1.1-.5-1.5s-.2-.5-.5-.3-.2.3-.1.6l.3,1.3c.1.2.2.5.5.4S165.8,79,165.8,78.8ZM52.1,168c-.3.2.5.8-.4.9s0,.4.2.7.2.3.4.2.5-.1.6-.5S52.8,168.2,52.1,168Zm126.6-24.6a4.1,4.1,0,0,0-.1-2.9A5.7,5.7,0,0,0,178.7,143.4ZM24.1,168.7c-.5,0-.5,1.5-1.5.5s-.3.1-.4.3.1.4.2.3.3.9,1,.3S24.3,169.6,24.1,168.7ZM66.4,72.2c0,.5.2.9-.3,1.2s.1.5.2.8.2.2.4.2l.2-.3c-.8-1.1.4-.8.9-1.2S66.9,72.5,66.4,72.2ZM120,17.9c.3-.3.8-.5.8-.7s-.8-.3-1.1-.7-.7.3-.7.7S120,17,120,17.9ZM56.4,216.3c-.2-.8-1-1-1.6-1.3s-.4.2-.3.3a5.1,5.1,0,0,0,1.6,1.3ZM78.2,65.4a7.4,7.4,0,0,0-.2,2.5.3.3,0,0,0,.3.3c.1,0,.3-.2.2-.2S79.1,66.3,78.2,65.4ZM62.9,13.1a.4.4,0,0,0-.5.1A1.8,1.8,0,0,0,62,15c0,.2.2.2.3.1a1.3,1.3,0,0,0,.5-1.5C62.8,13.4,62.9,13.3,62.9,13.1ZM110,235.3a1.4,1.4,0,0,1,.5-1.7.6.6,0,0,0,0-.9c-.2-.1-.6-.1-.6.2S109.1,234.5,110,235.3Zm55.4-30.7c0-.5.1-1.3-.5-1.3s0,.7-.1,1.1h0c.2.4-.3,1.3.4,1.3S164.9,204.9,165.4,204.6Zm-13.7-88.8c.2,1.1.2,2.3,1,3.2A6.3,6.3,0,0,0,151.7,115.8ZM24.6,209.3a5.5,5.5,0,0,0-2.2-.1.5.5,0,0,0-.4.5.2.2,0,0,0,.2.2C22.9,209.6,23.9,210.2,24.6,209.3ZM118.3,20.2c.1,1.5.2,1.7,1.5,1.7s.3.4.4,0,0-.4-.3-.5A2,2,0,0,1,118.3,20.2ZM93.9,213.5a2.3,2.3,0,0,0,.2-1.4c-.1-.6-.7-.1-1-.4s-.4.1-.4.3.2.5.5.5S93.4,213.3,93.9,213.5ZM35.7,80.1c-.8.5-.7,1.1-.4,1.8s.5.2.7.1.5-.4.1-.7S35.8,80.6,35.7,80.1Zm122.7,61.2c-.9.1-1.5.6-2.2.5s-.3.3-.3.5.2.3.4.2S157.9,142.4,158.4,141.3ZM13.6,201.2c.7-.2.6-1.3,1.5-1.2s0-.5-.1-.5l-1.1-.3c-.2,0-.2.5-.1.8S13.5,200.7,13.6,201.2ZM108.9,16.8c-.3-.5-.6.6-.9,0s-.4-.1-.6-.1-.5.3-.3.6.6.7.7.5S108.9,17.4,108.9,16.8Zm-.5,213.8c.5.8,1,.7,1.5.4s-.5-.4-.2-.8V230c.1-.2.4-.5-.1-.6a.4.4,0,0,0-.4.5C109.3,230.5,109,230.7,108.4,230.6ZM22.7,194.8c0-.1.5-.3.3-.4s-.2-.6,0-.9.1-.3-.1-.4-.5.5-.9.4-.2.6-.2.8S22.2,194.8,22.7,194.8Zm109.6-65.9a6.1,6.1,0,0,0,.3,3l.7-1C132.2,130.7,132.8,129.5,132.3,128.9ZM17.3,257.8c.1-.2.3-.3.3-.5s.5-.7,0-.8-.5-.8-.9-.3.1.6.2.9S16.9,257.6,17.3,257.8Zm27.9-99.6c0,.6,0,1,.4,1.1s.6-.6.5-.7.2-1.2-.6-1.4S45.2,158,45.2,158.2Zm-4.4,62.2c-.5.3-1.3-.5-1.3.7s-.3.8.2.7S40.7,221.3,40.8,220.4Zm95.3,16.5c-.2.4,0,.8-.2,1.2s.2.5.4.7.6,0,.8-.3S137.1,237,136.1,236.9ZM21.6,200l-.5-.5c-.1-.2-.2-.1-.4,0s0,.8,0,1.2a.7.7,0,0,0,.5.7.3.3,0,0,0,.4-.3C20.8,200.7,21.4,200.4,21.6,200Zm64-126.6a3.4,3.4,0,0,0,1.2-3.2ZM100.7,6.7c-.3.9-1.3,1.2-1.2,2.2s0,.4.2.5h.3C99.6,8.3,101,7.8,100.7,6.7ZM14.8,164.2c-.7.8-.1,1.7-.5,2.4l.3.3c.2.1.3-.1.3-.3A5,5,0,0,0,14.8,164.2Zm2.3,18.1c0-.2-.3-.3-.5-.2s-.2,1.2-.8,1.5.2.4.3.4S16.9,183,17.1,182.3Zm2.1-32.2c0-.4.3-.8-.2-1s-.7,0-.5.5-.3,1.3.4,1.4S19.2,150.4,19.2,150.1ZM27,172.6c-.1-.3-.2-.6-.5-.5s-1.1.4-1.2,1.1.2.3.3.2S26.8,173.3,27,172.6Zm-.5-60.8v-.2c-.3-.7-1.1.4-1.4-.3l-.4.2c-.1.1,0,.3.2.3s.6.8,1.2.4S26.5,112.1,26.5,111.8ZM173,196.4c.7,0,.8-.8,1.2-1s.6-.3.3-.7-.5.6-.8.1-.6,0-.5.3S173,195.9,173,196.4ZM28.9,259.8l.7-.5c-.4-.3-.2-.9-.6-1.3s-.5.7-.5,1.1S28.5,259.6,28.9,259.8Zm123.9-67.4c-.4,1.7,1.1.9,1.7,1.5C154.4,192.7,153,193.3,152.8,192.4Zm-43.4,42.8c-.1-.8-1,.4-1-.5s-.6.3-.6.6.6.6.8.6S109.1,235.4,109.4,235.2ZM34.1,92.2c.2-.2.3-.7-.3-.7s-.4.6-.3.9.2.3,0,.5-.4.5,0,.6.6-.1.6-.4ZM61.3,177c.9,0,1-.5.9-1.2s-.3-.5-.5-.4A1.4,1.4,0,0,0,61.3,177Zm-47.8,7.6,1.5-1.2c.1-.1.2-.5.1-.4s-.7-.8-.9-.2S13.5,183.7,13.5,184.6Zm133.4,48.9c-.4.3-1.1,0-1.3.7s.3.5.6.4a1.3,1.3,0,0,0,1.1-.8C147.3,233.6,147.2,233.4,146.9,233.5ZM143.5,90.6c-1.7.8-1.7,1-.8,2.2C142.3,91.6,143.6,91.5,143.5,90.6ZM127.2,239.7l-.5,1a.8.8,0,0,0,.4.9c.2.2.3.1.4,0s.2-.6.1-.9ZM22.7,173.9a2.1,2.1,0,0,1-.1-.6c-.1-.3-.2-.7-.6-.5s-.1.3,0,.5-.1.2-.1.3-.3.5,0,.7h.4C22.6,174.2,22.7,174,22.7,173.9ZM93.9,14.4c.5-.9,1.5-.4,1.9-1.3S93.8,12.5,93.9,14.4Zm24.6,149.4c.3-.2,1.1-.1.9-.8s-.4-.7-.8-.5S118.6,163.4,118.5,163.8ZM80.8,14.4c1.2-.5.6-1.2.6-1.7s.4-.5,0-.8h-.3a.8.8,0,0,0-.2.8C81.4,13.3,81.1,13.7,80.8,14.4Zm-56,215.9c.8-.2,1.1-.7,1-1.2s-.6-.4-.9-.2S25.3,229.8,24.8,230.3Zm68.6,17.1c-.1.5-1.1.6-.5,1.4s.3.5.6.2S93.4,248,93.4,247.4ZM17.9,170v.3c.3,0,.7,0,.8-.2s-.1-.9-.5-1.3-.2-.5-.5-.2-.3.4-.1.5S18.6,169.6,17.9,170Zm-1.6,54.3c.4.2.1,1.2.9.9s.7-.4.6-.6S16.8,224.6,16.3,224.3Zm154.1-38.9c-.8.5-1,.8-.6,1.5a.4.4,0,0,0,.7.1C171.3,186.4,169.9,186.1,170.4,185.4ZM129.1,95.6c.8.4,1.3,0,2.2-.3C130.4,95,129.7,94.5,129.1,95.6ZM24.6,158.7c.4.7.8,0,1.1.2s.3.7.5.1.3-.7.1-1-.4.2-.6.3ZM119.8,19c-.6.2-.1.9-.5,1.2s-.4.3-.1.5.4.4.7.2.3-.3.2-.6ZM83.6,13.4c-.7.3-.8-.2-.9-.6s-1.2.6-.4,1.2S83.1,13.6,83.6,13.4ZM15.3,214.6c.3-.6-.5-.8-.1-1.3s-.2-.5-.4-.5l-.7.3c-.2.3.3.3.3.5S15.1,214.2,15.3,214.6Zm174.6-80.1c-1.2,1,.2,1.3.2,2h.4c.3-.1.1-.3.1-.5S189.9,135.2,189.9,134.5ZM41.8,265.8c-.3-.4-1.1-.1-.9-.9a.3.3,0,0,0-.3-.3.4.4,0,0,0-.2.4,4.2,4.2,0,0,1,.1,1.6C41,266.3,41.3,265.9,41.8,265.8ZM100.9,239c-.3,0-.8-.3-.8.2s.2,1-.6.8-.1.2-.1.3a.8.8,0,0,0,.8.3c.3,0,.3-.2.4-.4A5.3,5.3,0,0,1,100.9,239ZM129.1,60.7c-.5-.1-.8.4-1.2.1s-.4.2-.4.4.1.5.5.5S129,61.4,129.1,60.7Zm1.7,66.5c-.4,1.3-.4,2,.2,2.7A12.3,12.3,0,0,0,130.8,127.2Zm28.9,54.4c-.9.3.2,1.2-.6,1.6s.2.3.3.4.3,0,.4-.2S160.2,182.1,159.7,181.6ZM39.9,63.7c-.1-.3-.2-.4-.5-.4s-.9,1.3-.7,1.6a.2.2,0,0,0,.4.1C39.5,64.6,39.3,63.9,39.9,63.7ZM36.7,75.9a.9.9,0,0,0,.7-1c0-.6-.7-.3-1.2-.8Zm85.2,4.9c.4-.7.1-1.6.9-1.9s.1-.3-.1-.4h-.6C121.9,79.3,121.4,79.9,121.9,80.8Zm23.2,149.1c.1.1.5.4.5-.2s-.5-.6-.9-.6-.5,0-.5.4S144.5,230.1,145.1,229.9Zm-137-70c-.2.4-.4.6.1.6s.7-.2.8-.7-.6-.6-.6-.6S8.1,159.7,8.1,159.9Zm115.7-32.8c.3-.7.5-1.5-.4-2.1A3.6,3.6,0,0,0,123.8,127.1Zm-81,38.4c1.1-.2,1.1-.2,1.3-1.9C43.1,163.9,43.6,165,42.8,165.5Zm-8.5,70.7c.4-.3,1.2-.5.6-1.3s-.2-.4-.4-.3S34.2,235.7,34.3,236.2Zm15.4-62.3c.2.8-.9,1.4.1,2.2C49.8,175.3,50.9,174.7,49.7,173.9ZM107.3,2.6c-.1.4.6.5.4.9s-.2.5.1.5.3-.2.5-.4.1-.5,0-.8S107.7,2.5,107.3,2.6ZM24.5,217.3c-.3-.7-.9-.7-1.5-.6s-.3.1-.1.3S23.8,217.6,24.5,217.3ZM14.1,190.5c.5.4.8.2,1-.2s-.3-.4-.5-.7-1.1,0-1.1.7S13.9,190.7,14.1,190.5ZM65.2,41.6c-.6.3-.3,1-.6,1.4s.2.5.4.4.3-.9.7-1.3ZM28.3,257c0,.7-1.2,1.1-.7,2.2A2.7,2.7,0,0,0,28.3,257Zm116.4-89.8h-.1c-.2,0-.8-.2-.6.2s1.2.2,1.4.9.3-.3.2-.5S145.3,167,144.7,167.2ZM67.3,71.8c.3-.1.8,0,.7-.4s-.1-.7-.6-.8-.4.2-.4.5S66.8,71.8,67.3,71.8Zm110.1,29.5c-.5-.2-.3-1.1-1-1.2s-.4.1-.2.4.4,1,.9,1.2S177.4,101.6,177.4,101.3Zm-19.6,86.9c.2.2-.2.8.4.8s0-.8.3-1.2.1-.4-.3-.4S157.9,187.9,157.8,188.2Zm-116.9,73c-.9.2-.7.9-.9,1.4s.1.5.3.5.3-.3.3-.5S40.8,261.8,40.9,261.2Zm59.5-151.3c-.4,0-.6.4-.8.6s-.7.4-.4.8.7-.1.9-.3S100.7,110.4,100.4,109.9Zm45.8,12.7c-.1.5-.3.9.1,1.2s.7,0,1-.1A2,2,0,0,0,146.2,122.6Zm-28.9,98.1c.5,0,.5-.5.7-.8s.1-.5-.1-.6-.3.4-.5.5-.1.4-.2.2-.3-.7-.5-.1S117,220.5,117.3,220.7Zm12-164.6c-.3-.3-.4-1-1-.6s-.8.2-.6.6S128.7,56,129.3,56.1Zm42.2,131c.2-.5.5-1.1,0-1.5a.3.3,0,0,0-.5,0C170.6,186.3,171.3,186.6,171.5,187.1ZM55.7,262.5c-.3-.1-.5,0-.4.2s1.1.2,1.4.9.5-.2.4-.4S56,263,55.7,262.5Zm74.5-142a3.6,3.6,0,0,0,.1,2.5A3.1,3.1,0,0,0,130.2,120.5ZM46.6,173.4c-.1-.6.2-1.1-.2-1.6S45.1,173,46.6,173.4ZM191,139.6c.2,0,.5-.2.4-.3s-.1-.9-.7-1-.4.2-.5.4S190.6,139.4,191,139.6ZM20.5,256.9a1.4,1.4,0,0,0,1.4,0c-.1-.3-.2-.9-.6-.9S20.8,256.6,20.5,256.9Zm13.9,7.5c-.8-.1.2-1.2-.8-1.3s-.5.1-.4.3.1,1.1.7,1.4Z"/><path d="M2.3,222.4a85,85,0,0,1,0-10.1c.8,1.3-.3,2.7.5,3.9s-1,2.6.2,3.8.2-.5.2-.7,0-.7.5-.4.7,0,.7-.4a10.1,10.1,0,0,0-.9-3.8c1,.4,1.1.4,1,1.5s-.1.5.1.5.6.8.5,1.2-.4,2-1.3,2.7-.3.2-.5,0-.3-.4-.6-.2a.8.8,0,0,0-.2.7,5.3,5.3,0,0,1-.1,3.3,8.2,8.2,0,0,0,.2,4.1.3.3,0,0,0,.5.3c.3-.1.5-.4.3-.5s-.3-.5.2-.8.6-1.2.7-1.9-.2-.9.5-.8.3.9.7,1.2a3.8,3.8,0,0,0-1.1,3.3c0,.1.2,1.6-1.1,1.6s-.3,1.5-.7,2.3.4,1.5.9,2-1.6-.1-.6,1.1-.5,1.2-.2,1.7-.2,2.5,1,3.4,0,.3,0,.5-.9.8.2,1c-.5.7,0,2-.5,2.3a1.1,1.1,0,0,0-.4,1.6c1.4,1.2.3,2.4.3,3.6s-.1.8.3,1.1.8.7-.2.9,0,1.1-.6,1.4-.4,1.2.4,1.7a1,1,0,0,0-.1.4c-.4-.6-.7.5-1,0s-.3-.6-.7-.6l-.5,1.4a22.5,22.5,0,0,1,.6-3.6c.6-2.1,1.4-4.4-.2-6.6a4,4,0,0,1-.1-1.6c0-.9.1-1.9.1-2.8s-.2-1.9,1.3-2.1c-1.9-.6-1.5-1.7-1.1-3a8.5,8.5,0,0,0,.3-2.3c0-2.6-.1-5.2-.1-7.7,0-.7-1-1.2-.2-1.9s-1,.4-1.5.3c.2-2.7.7-5.4.2-8.1a2.9,2.9,0,0,1,.2-.9c0-.3.2-.5.5-.4s.2.3.2.5.6,1.1-.2,1.5H.8C2,219.2,1.1,220.9,2.3,222.4Z"/><path d="M3.7,262.2c.2,0,.5,0,.4.4s.2,1,.8,1.3.8,1,1.1,1.5-.3.7.1.8a.9.9,0,0,0,1-.6,2.5,2.5,0,0,0-.1-2.2c-.4.2,0,.6-.3.7s0-1.2,0-1.9-.9-1.2-.2-1.9.6,1.1.8,1.6.2,3.3.2,4.9-.3.4-.5.6-.4,1.2-.4,1.8.1.2.2.3,1,.4,1.3,1.5.2.4.1.6v.4a10,10,0,0,1-2-2.1c-.6.4-.4.8,0,1.2a1.4,1.4,0,0,1,.6,1.6.7.7,0,0,0,.6.9c.4,0,.6.1.6.4s-.1.8-.6.3-.3.1-.3.2-.8.6-1.2.3a.9.9,0,0,1-.1-1.3c.4-.8,1.1-1.6-.1-2.4s-.5-.5-.2-1,0-1.4-.5-2a6.4,6.4,0,0,1-1.3-1.9c.5-.4,1.2.2,1.4-.5a1.5,1.5,0,0,0-.7-1.6c-.2-.1-.4-.4-.6-.1s-.5.5-.2.8a.5.5,0,0,1,.1.7.5.5,0,0,1-.5.4c-.3,0-.1-.3-.2-.5A7.2,7.2,0,0,0,.9,262c-.3-.2-1-.9-.1-1.5s.2,0,.1-.2-.6-.5-.1-.7.6.5.9.7-.2.2-.3.4-.6.5-.2.8.6,1.3,1.5.9A.7.7,0,0,0,3.7,262.2Z"/><path d="M2.1,199.7c.6.4.1.8.4,1.3.4-1.2,1.3-2,.1-3.2s-.1-1.8,0-2.7.5,1.1.9.1h.6a.6.6,0,0,1,0,.6.6.6,0,0,0-.3.7c.7-.6,2.3-.3,1.8-2,.2-.2.3,0,.4.1s.1.2.1.3.3,2-1,2.3-.2.2-.2.3.2.2.4.1h.4a.4.4,0,0,1-.1.7c-.8.3-.3,1.9-1.3,1.6s-.5.2-.6.5-.1,2.2.1,3.7c-.5-.6-.6-1.1-1.1-1.1s-.2.3-.2.5.8.8,1.4,1-.3.7-.6.8-.6.4-.1.7h0a2,2,0,0,0-.1,2.1l-.3.2c-.2.1-.3,0-.3-.2v-.5a7.2,7.2,0,0,1-.5-5.4c0-.2-.1-.6.4-.4s.4-.3.2-.4S2.3,200.4,2.1,199.7Z"/><path d="M10.6,244.9c-.1.1-.3,0-.4.2a3,3,0,0,1-1,2c.5.4.8.1,1.4-.1s-.3,1.4-1.5,1-1.3.7-1.8,1.4a1.7,1.7,0,0,0,0,2.5c-1,.2-.8,0-1.1-.7a5.3,5.3,0,0,1-.3-2.2c0-.2,0-.6.4-.6s.2.3.1.5v.2c.2-.1.5-.1.6-.4A3.5,3.5,0,0,1,8.9,246c1-.5.6-1.4,1-2a.5.5,0,0,0-.2-.6c-.3-.1-.2.3-.4.3s-1.7,1-2.8.6-.5,0-.5.2.1.8-.5.4a1.1,1.1,0,0,1-.7-1.2,1,1,0,0,1,.4-.5,2.3,2.3,0,0,0,1.4-2.5,5.4,5.4,0,0,1,1.8,0c.5.2.9.4,1.4-.2-.1.9-1,1-1.2,1.7s.4-.6,0-1-1-.2-1.1.3.4,1.3.6,1.9.9-.5,1.1-.8,1-.5,1.4,0,.4.3,0,.7a1.1,1.1,0,0,0,0,1.7Z"/><path d="M6.2,238.5c.2.4.4.8,1,.6s-.5-.8-.8-1.2-.5-.2-.5,0-1.5,1.2-1.2,2.3,0,.7-.4.8-.5-.4-.6-.7a2.8,2.8,0,0,1,0-2c.4.3,0,.8.4,1.1s.3-.4.3-.6a2.7,2.7,0,0,1,.8-1.7c.9-.9.6-2.2.3-3.3a2.5,2.5,0,0,0-.2-1.2c-.7.8-1.2-.1-1.8-.1s1-.6,1.6-.3.5-.3.5-.7-.4-.4.1-.5.5.4.3.6-.1.7.3.7.8.8.6,1.5a9.7,9.7,0,0,0,.7,4.8c.1.4.5.1.7.3a.5.5,0,0,1,.2.8c-.4.4-.1-.3-.4-.2s-1.3-.3-1.7.4-.5.5-.8.2,0-.6.3-.7S5.8,238.8,6.2,238.5Z"/><path d="M13.3,273.5c.2,1-.2,2.1.7,3s0,.6.3.5.8-.3.6-.7,0-.6.4-.6h0c.2,2.1-1.8,2-2.8,2.8s-2.8-.6-2.6-1.5-.1-1.3.8-1.4h-.1l.7,1c.6.8,1.2.4,1.9.2-1.1,0-1.2-1.1-1.8-1.4h0c.3,0,1-.1.9-.5S12.9,273.9,13.3,273.5Z"/><path d="M107.4,250.1c-.1,1.6.4,3.1.1,4.6a2.1,2.1,0,0,1-2.4,1.5c-.3-.2-.2-.4-.2-.7a4.1,4.1,0,0,1,.9-3.2C106.3,251.6,106.8,250.8,107.4,250.1Z"/><path d="M11,182.9c-.7.9-.7.9.8,1.2s-.5.3-.5.6a.6.6,0,0,0-.1.4h.3c.1,0,.1-.6.4-.2s-.1.4-.2.6-1.1.8-1.1,1.7a2.7,2.7,0,0,1-.5-1.9,2.6,2.6,0,0,0-1.7-2.3c-.2,0-.5-.2-.6.2s.1.4.5.4.5.2.4.6-.5-.3-1.2-.1.1-.6,0-.8.2-1.7,1.3-1.8.6-.4.7.1-.1.4-.2.7-.8.2-.2.6.4,0,.6-.3,1-.9.6-1.6-.1-.4.2-.4.4.1.4.3a4,4,0,0,0,.1,1.9Z"/><path d="M10.7,275.6c-.7-.6-.6-1.7-1.5-2.2s-.4-.7,0-1.3-.2-1.5.2-2.3H9.3c-.1-.3-.7.4-.5-.2s.5-.2.9-.1,1.2,1.1,1.9,1.4-.7.6-.8,1.1-.6-.9-1-.5.3.6.6.9l.5.2c.3.2.6,1.3.4,1.4s-.5,1,.1,1.5h0l-.8.2Z"/><path d="M9.9,248.5c.8.5,1.5,1.5,2,0s.5-.2.7-.1.8.5,1.3.3.4-.3.5,0-.2.6-.4.6a4.7,4.7,0,0,0-2.5,1.4c-1.1,1.8-1.1.3-1.7-.3S10.2,249.2,9.9,248.5Z"/><path d="M104.1,257.7c0,1.2-.8,1.7-2.3,1.6a.6.6,0,0,1-.7-.8c.3-.5-.1-1.3.3-1.4s1.2-.1,1.7-.6S104.4,256.8,104.1,257.7Z"/><path d="M111.4,254.6c-.2.3-.7.4-.4.9s.2,1.9-1.3,1.2-.8.6-1.2,1a1.3,1.3,0,0,1,.2-1.2c.3-.4-.1-.7-.1-1.2s.8-1.1,1.6-1l1.2.3Z"/><path d="M9.2,196l.5.5a8.4,8.4,0,0,0-.6,1.4c0,.4-.6,1.1.4,1.2H9.4c-.2.3-.5.5-.3,1.1a2.5,2.5,0,0,1-.1,2.5c-.2.2-.1.6-.4.9a22.5,22.5,0,0,0,0-2.6c-.1-.7.3-1.5-.2-2.2s-.1-.3.1-.4.3-.5-.2-.4-.6-.4-.9-.7.2-.8.9-.6S8.8,196.1,9.2,196Z"/><path d="M184.4,186.1c.2.8-.4,1.7.8,2s.5,1.2.8,1.8a.5.5,0,0,1-.3.3h-.2a7,7,0,0,1-2.7-6.2c.3.1.8,0,.6.6a2.2,2.2,0,0,0-.1,1.1C183.2,186.6,183.7,186.5,184.4,186.1Z"/><path d="M10.6,245c.4-.5,1.3-.1,1.4-1s.8.8.9,1.4-.4,1.4.4,2.1H11.2c.3-.3.2-1.8-.2-2s-.4-.3-.4-.6Z"/><path d="M106.2,259c-.3-.3-1.4.7-1.3-.6s1.3-1.2,2.2-1.3.5.5.6.9S107.2,259.1,106.2,259Z"/><path d="M9.7,228.9a2.1,2.1,0,0,1,.2-2.4c0,.4-.1,1,.7.4a1.9,1.9,0,0,1,.8-.3c.3.1.5-.1.2-.4s-.5.1-.2-.2a.6.6,0,0,1,.7-.2c.2,0,.3.2.2.3s.2.7.2,1.1-.6-.1-.8.3.1.3.3.5.4.2.1.4-.4.2-.7.1-.8-.9-1.4-1S10.1,228.5,9.7,228.9Z"/><path d="M10,238c-.4,0-.9-.1-.6.7s-.2.3-.3.4l-.3-.3c-.1-.5.4-1.1-.5-1.1s-.3-.7-.1-1.2a3.8,3.8,0,0,0-.1-2.1.6.6,0,0,1,.1-.7h.5a.4.4,0,0,1,.2.6c-.4.9.3,1.8,0,2.8s.6.7,1.1.6.5-.1.6.1S10.3,238.1,10,238Z"/><path d="M4,255.4c.5.6,1,.9.5,1.7s.2,1.2.5,1.8.2.5.1.7-.4-.1-.6-.2a1.4,1.4,0,0,1-1-1.5A7,7,0,0,1,4,255.4Z"/><path d="M18.4,252.6c-.4-.8-.8-1.2-.6-1.8s0-.2,0-.3.6-1,.7-1.6.7-.9,1.2-1.2.2.3.1.4-1.5,1.3-.4,2.3.1.6-.1.9A1.8,1.8,0,0,0,18.4,252.6Z"/><path d="M137.7,86.2c-.3-.3-1.1.7-1.2-.5s.8-.9,1.4-1,1.5-.1,1.4.8S138.3,86,137.7,86.2Z"/><path d="M28.4,264.8l1,.8a.7.7,0,0,0-.1,1.1,1.4,1.4,0,0,1,0,2.2h.1c0-.3-.2-.6-.1-1s-.2-.9-.7-.9-.7-.1-.7-.6-.8-.1-.9-.7S27.8,265.1,28.4,264.8Z"/><path d="M7.2,217.7c-.5-.2-.4-.7-.6-1.1s.1-1.3-.8-.6-.3.2-.4,0-.1-.6.1-.8.4-.4.5-.1a.8.8,0,0,0,.7.3c.3,1.1,2,.9,2,2.3s0,.4-.2.4-.2-.2-.3-.3S7.6,217.1,7.2,217.7Z"/><path d="M184.8,191.8l-.3-.4c-.2-.3-.8.5-1-.3a4,4,0,0,1-.3-2.7,6.5,6.5,0,0,0,1.9,2.1c.7.7-.2.9-.3,1.3Z"/><path d="M12.7,229.5c.2.6.2,1.1-.5,1.3s-.3.3-.2.4-.5,1.3-1.3,1.6.9-.8.7-1.5.2-1.3-.6-1.8a1.8,1.8,0,0,1,1.9,0Z"/><path d="M81.2,4.9a2.9,2.9,0,0,0-1.8,1.9c-.5-.1-1-.1-.3-.8s.5-.5.3-.8-.1-.5.3-.6.5-.2.4-.3.8-.9,1.4-.8S80.5,4.3,81.2,4.9Z"/><path d="M12.4,202c-.2.8.7,1.1.8,1.7s.5.5.1.8-.7.6-.8.3-.8-.3-.5-.9-.3-.2-.4-.2-.4-.4,0-.6.7.1.6-.5-.1-.4-.2-.5-.3-.5,0-.8h.3C12.7,201.5,12.5,201.7,12.4,202Z"/><path d="M83.5,264.4c.9,1.1.9,1.5.5,2.2s-.1.3.3.5.4.8.5,1.3-.2.3-.5.2a.9.9,0,0,1-.8-1.1C83.6,266.6,83.5,265.6,83.5,264.4Z"/><path d="M140.1,243c.3.1,1-.3.9.7s.5.3.7-.1.3-1.2.9-1.5.2,1,.8.9a10.9,10.9,0,0,1-2.7,1.9C140.7,244.2,140.2,243.7,140.1,243Z"/><path d="M12.7,229.5c.3-.2.4-.4.3-.7s-.7-.2-.1-.5.3-.2.4-.1.1.4,0,.6v.4c.8-.1.6-.9.9-1.3a.6.6,0,0,1,.3.9c-.5.5-.1,1.1-.2,1.6a.1.1,0,0,0,0,.2c.2.4,1-.9.7.3s-.8.5-1.1.9.7-2.3-1.2-2.3Z"/><path d="M26,264.8c.5.6.4,1.1-.3,1.4s-.6.5-.9.8-1,.2-1.3-.4a.4.4,0,0,1,.1-.5c.4-.3.1.2.3.3s.4.1.4-.2.4-.9,0-1.4h0c.9-.4.3.9,1,.9l.7-.9Z"/><path d="M176.3,93.6l-.2-.5a1,1,0,0,1,1.2-.8,1.5,1.5,0,0,1,.7,1.3,1.3,1.3,0,0,0,.1.6c.2.2.4.3.2.6l-.3.2a.7.7,0,0,1-.4-.7c.1-.1.2-.3-.1-.4s-.2.2-.3.2S176.9,93.2,176.3,93.6Z"/><path d="M178,178.3c-.4-.8.4-1.3.3-2.1s-.4-1.2.3-1.6,1.1,1.3.1,2.5a1.8,1.8,0,0,0-.2,1c-.1.5-.4.1-.5.1Z"/><path d="M24.3,264.8c-.4.3-.9.9-1.6.2.7.9.1,1.5-.1,2.2s-.2.3-.4.1-.1-.2,0-.4-.2-1.5.3-2,.1-.9.2-1.3h-.1c.3,0,.8-.5.6.3s-.1.8.2.6.7.1.9.3Z"/><path d="M1.2,211.7c.1-.3-.6-.6-.1-1a.4.4,0,0,1,.5.1,1.1,1.1,0,0,1,.2,1.3c-.3.6-1,1.4-.1,2.2s0,.3-.3.5-.2-.2-.4-.3-.6-1.1-.1-1.7A3.5,3.5,0,0,0,1.2,211.7Z"/><path d="M107.3,260.2c-.8.8-1.9,1.1-2.3,2.2.1-.8-.5-1.8,0-2.1A2.3,2.3,0,0,1,107.3,260.2Z"/><path d="M8.5,259.6c.4-.1.8.2.7.4s.7,1.4.4,2.2.4,1.1.4,1.8.1.7-.2.8-.3-.4-.4-.7S9.2,261.1,8.5,259.6Z"/><path d="M143.9,242.6l-1-.8c.4-.2,1.5.1.6-.8a.4.4,0,0,1,.2-.5c.3-.1.2.2.2.2s.5-.2.8-.1.7-.2.9.2A9.6,9.6,0,0,1,143.9,242.6Z"/><path d="M83.7,4.8c-.6.3-.8-1.3-1.5-.2s-.3-.2-.3-.3a2,2,0,0,1,.1-.5c1,.2.6-.5.4-.9s.4-.5.6-.6.5.1.6.5S83.3,4.2,83.7,4.8Z"/><path d="M4.6,208.5c.2.3-.1.6.2.9s.3-1.1,1.1-1.3,0,1.4-.4,2-.6.7-1,.5-.3-.7-.3-1A4.9,4.9,0,0,1,4.6,208.5Z"/><path d="M12.7,253.5a1.6,1.6,0,0,1,1.9-.9c.9.3,1.7,0,2.5.4-.8-.1-1.6.5-2.5.1s-.8.6-.9,1.3-.5-.8-1-1Z"/><path d="M121.2,250.2c.3.1.5-.2.8-.4s.3-.4.3-.1,1.1.5,1.5,1S121.7,251.9,121.2,250.2Z"/><path d="M3.7,262.2a.7.7,0,0,1-1,.2c-.4-.4-.9-.8-.1-1.2s-.1-.7.3-1.1Z"/><path d="M11,182.9c.8-.6.2-1.6.7-2.5s.7.8.4,1.2.3.8.2.9,0,.8-.3,1-.6-.6-1-.6Z"/><path d="M123.5,252.7c-.4,1-1.5,1.1-2.3,1.4l.8-.8c.6-.3-.9-.4,0-.8s.6.6,1.1.2Z"/><path d="M167.3,209c-.1.6.8,1.2.1,1.7s-1.1-.3-1.2-.4S167,209.5,167.3,209Z"/><path d="M15.1,240.9a2.3,2.3,0,0,1,2-1.5.3.3,0,0,1,.2.5c-.2.4-.6,1-1,.6S15.5,240.6,15.1,240.9Z"/><path d="M111.6,257.9l.4-.7c.3-.3-.9-.1-.2-.6a3.1,3.1,0,0,1,1.9,0c.1,0,.1.6-.2.5S112.4,257.7,111.6,257.9Z"/><path d="M212.7,202.3c-.7-.6-1.1.4-1.6.3s1.3-.9.1-1.4-.2-.3,0-.3.6-.2.8.1A8.3,8.3,0,0,0,212.7,202.3Z"/><path d="M14.6,134.9c-.8-.4-.3-.9-.2-1.8.3.9,1.6.7.9,1.8s-.5-.4-.8,0Z"/><path d="M201.1,197.8c-.1.1-.1.3-.4.2a1.2,1.2,0,0,1-1.1-1c0-.3.3-.3.5-.3A1.2,1.2,0,0,1,201.1,197.8Z"/><path d="M180.3,105.7c1.1-.3-.1-.9.2-1.7.3,1.2,1.4,1.5,1.8,2.4s-1.4-.3-2-.7Z"/><path d="M195.1,144.1c.1-.4-.5-.2-.4-.6l.2-.2a2.1,2.1,0,0,1,.7,1.2c.1.2-.1.3-.3.3s-.9-.6-1.7-.8C194.3,143.7,194.6,144.4,195.1,144.1Z"/><path d="M20.2,248.7c.4-.2,1-.2.9,0s1.1,1.2.5,2.1C20.9,250.2,21.2,249.1,20.2,248.7Z"/><path d="M108.4,259.4c.5-.7,1.3-.7,1.4-1.4s.2-.3.3-.2l.5.4c-.2.1-.1.4-.4.5Z"/><path d="M22.7,270.6c.5-1,1.2-1.6.7-2.6C24.3,269.3,24.3,269.4,22.7,270.6Z"/><path d="M13.9,251c.6-.5,1.3-.2,2-.6S15.4,251.4,13.9,251Z"/><path d="M25.5,268.9l1-2c.1-.2.3-.5.6-.3h.1c.1.4-.3.1-.4.3a6.1,6.1,0,0,0-.7,1.7C26,269,25.8,268.9,25.5,268.9Z"/><path d="M15.3,275.7c.1-.8-.8-.3-1.1-.9s1.4-.2,2.2-.4-1,.7-1.1,1.3Z"/><path d="M145.8,178.8c-.2,1.5.4,2.6.5,3.8a24,24,0,0,1,.3,2.8c0,.2,0,.4-.2.5s-1.4-.3-2.1-.2-1.1-.5-1.1-1.3a17,17,0,0,0-.4-2.2c-.3-1.4.5-2.4,1-3.4s.3-.4.4-.6.2-1.2.9-1a1.3,1.3,0,0,1,.7,1.5Z"/><path d="M141.2,188.3c-.4-.1-.9.2-1.3-.2a1.1,1.1,0,0,1-.2-1c.1-.3.5-.4.8-.4H142c.6-.1,1,.1,1,.9s-.5.7-1,.7Z"/><path d="M144.9,188.4c-.4-.3-1.2,0-1.2-1s.6-.8,1.1-.7,1.7-.6,1.9.8.1.7-.3.6A4,4,0,0,0,144.9,188.4Z"/><path d="M94.8,199.8a25.8,25.8,0,0,1,1.5-6.8c.3-.8,1.1-1.2,1.3-2.2s.7.1.8.4a13.5,13.5,0,0,1,1.5,2.6l2,4.5c.6,1.2.3,2.3.3,3.4s-.5.9-1.1.3l-2-2.5a2.8,2.8,0,0,1-.8-3.6.3.3,0,0,0-.3-.5c-.3-.2-.3.1-.3.4a10.9,10.9,0,0,0-.5,2.6,4.6,4.6,0,0,1-1.7,3l-.5.3c-.3-.1-.2-.4-.2-.6Z"/><path d="M97.2,183.2c.9,1.8,1.8,3.5,2.6,5.2s.1,1.1-.8,1.1a14.6,14.6,0,0,0-3.6.3c-.9.4-1-.3-.8-.7a16.4,16.4,0,0,1,1.4-3C96.6,185.3,96.5,184.2,97.2,183.2Z"/><path d="M96.9,181.3l-2.6-4.9c-.3-.6-.4-.8.5-1.1s2.2-.1,3.2-.3,1.3,0,.8,1.1a14,14,0,0,0-1.3,4.1A6.4,6.4,0,0,1,96.9,181.3Z"/><path d="M101.1,203.1a10,10,0,0,1-3.2,2.3c-.5.3-2.5-1.9-2.3-2.5s.7-.4,1-.3S99.5,202.6,101.1,203.1Z"/><path d="M100.5,202.1a11.7,11.7,0,0,0-3.7-.2c-.8.1-.4-.1-.4-.5s1.1-1.2,1.4-1.9.3-.1.4.1Z"/><path d="M131.7,190.7c1,1.4,1,1.5-.4,3.9.7-.1.8-.8,1.1-1.1s.6-.5.9,0,.8,1.3-.5,2.3l-1.7,1.6c-.3.2-.6.5-.9-.3s-.7-2.7.6-3.9S131.1,191.5,131.7,190.7Z"/><path d="M127.4,195.3l-1-1.4a.5.5,0,0,1,0-.8c.3-.4.3.2.6.3s1.3.1,1.6.7a13.6,13.6,0,0,1,1,3.6l-3.7-1.7c-.4-.2-.8-.4-.6-.9s.1-.7.4-.7a1.1,1.1,0,0,1,1,.6C126.8,195.3,127,195.4,127.4,195.3Z"/><path d="M81.9,229.9c-.3-.7-1.1-1.3-.6-2.1a.5.5,0,0,0-.3-.3c-.3.1-.3.3-.4.6a11.5,11.5,0,0,1-3,5.1c-.3.3-.5.9-1,.6s-.3-.8-.2-1.2l.6-3.2a35.5,35.5,0,0,1,2.8-7.7,1.2,1.2,0,0,1,1-.8c.4,0,.5.4.7.8,1.3,3.1,2.8,6.2,3.4,9.6a5,5,0,0,1-.2,2.1c-.1.4-.3.9-1,.2s-1.7-2.3-2.7-3.4-.2-.4,0-.5S81.4,230.2,81.9,229.9Z"/><path d="M61.7,154.1c.3,1.3-.2,1.5-1.4,1.4s-4.1-.7-6.2-.8c-.6,0-.9-.3-.8-.9a6.2,6.2,0,0,0,.1-1.3c0-.5.3-1,1.1-.8a38.4,38.4,0,0,0,5.9,1.1C61.3,152.9,62.3,152.7,61.7,154.1Z"/><path d="M56.2,155.4c-1.1,1.9-2.5,3-3.6,4.4.2-1.2.1-2.3.2-3.4s.4-1.4,1.4-1.2S55.3,155.7,56.2,155.4Z"/><path d="M61.9,149.6c0,.2.1.3.1.4,0,2.6,0,2.6-2.7,1.8A7.8,7.8,0,0,1,61.9,149.6Z"/><path d="M93.5,156a29.6,29.6,0,0,1,4.1.2c.6,0,.5.3.6.7s-.3.9-.8.9l-3.2.3a8.2,8.2,0,0,0-2.7,0c-.5.1-.8,0-.9-.6s.1-.7-.3-1,.3-.5.6-.5Z"/><path d="M98.2,162.6c-.8-1.3-2.2-1.9-2.6-3.3s-.3-.3-.1-.5,2.4-.2,2.5.3A6.7,6.7,0,0,1,98.2,162.6Z"/><path d="M95.7,155.2a10.1,10.1,0,0,1,2.1-3.4c.1,1.1.2,1.9.2,2.7s-.1.8-.7.7Z"/><path d="M92.5,155.4c-2.1.2-2.2.1-1.9-2.3Z"/><path d="M118.8,148.2a17.2,17.2,0,0,0-.2-3.2c-.3-1.3,0-1.6,1.3-1.5l.8.2c.3-.1.7-.1.7-.5s-.4-.4-.7-.4a3.4,3.4,0,0,0-1,0c-.9.1-1.2-.2-1.2-1.1s.3-1.1,1.2-1,3.7.2,5.5.3,1.2-.1,1.3.8-.2,1.2-1.2,1h-1.6a1.7,1.7,0,0,0-2,1.4c-.2.7-.5,1-1.2.7S120.6,146.7,118.8,148.2Z"/><path d="M126.5,147.8a12.4,12.4,0,0,1-1.2-2.2c-.3-.7-1-1.1-1.2-2h2.5C126.2,144.9,127,146.2,126.5,147.8Z"/><path d="M125.7,137c.8.2.9.5.8,2.7s-.5.7-1,.7-.8.2-1-.3.2-.7.3-1a4.3,4.3,0,0,0,.9-2.1Z"/><path d="M81.8,160.5a6.6,6.6,0,0,0,.1,1.4c.1,1.1-.3,1.6-1.3,1.6a5.7,5.7,0,0,1-2.6-.1c-1-.3-.4-1.2-.1-1.9a10.6,10.6,0,0,1,2.6-3l.6-.6c.1-.2.2-.5.5-.3s.2.4.2.6Z"/><path d="M80.9,166H78.5c-.9.1-1.3-.4-1.2-1.2s.6-.6,1.2-.5a7.5,7.5,0,0,0,2.1-.2c.8,0,1.2.3,1.3,1.1S81.3,166,80.9,166Z"/><path d="M74.8,165.7a1,1,0,0,1-1.2-.4c-.3-.4.1-.8.2-1.1s.7-.4,1.2-.2h.5a1,1,0,0,1,1.3.3,1.5,1.5,0,0,1-.1,1.3c-.2.5-.7.1-1.1.2S75.1,165.5,74.8,165.7Z"/><path d="M170.8,153.3c.1,1.3-1.1,2-1.4,3.1s-.4.3-.5-.1a17.4,17.4,0,0,0-.5-2.2c0-.2.2-.5.3-.4S170,153,170.8,153.3Z"/><path d="M167.1,147.9l2.5,1.7a.6.6,0,0,1,.2.6c-.1.3-.3.2-.6.1a.1.1,0,0,0-.1-.1c-.5.3-1.4.4-1.5.1S166.8,148.9,167.1,147.9Z"/><path d="M173.4,147.1c.4-.1.8-.3.9.3s.3,1-.2,1.3a6.7,6.7,0,0,1-2.5.8c.5-1,1.6-1.4,1.9-2.5Z"/><path d="M125,65.3c.8-.3.7.5.8,1.2s-.4.9-.9,1a27,27,0,0,0-4.9.4c-.6.2-.7-.3-.7-.8s-.4-1,.4-1.1Z"/><path d="M119.8,72.6a14.2,14.2,0,0,0-.3-3.1.7.7,0,0,1,.8-1,5.3,5.3,0,0,0,2.1-.3C121.6,69.7,121.3,71.4,119.8,72.6Z"/><path d="M125.2,62.4c.2.5-.2,1.1.2,1.6a.3.3,0,0,1-.2.5c-.4.1-.7.3-1,0s-.2-.5,0-.6S124.2,62.5,125.2,62.4Z"/><path d="M111.3,148.1a34.1,34.1,0,0,0-5.5.2c-1,0-1-.7-1-1.3s.7-.6,1.1-.6h6.4c.6-.1.4.5.5.8a.9.9,0,0,1-.8,1.1C111.8,148.2,111.6,147.9,111.3,148.1Z"/><path d="M112.4,143.2c.3,2.4.4,2.3-2,2.3A10.7,10.7,0,0,1,112.4,143.2Z"/><path d="M107.3,148.8c-.3.8-1,1.1-1.4,1.6s-.5.3-.7.4a1.2,1.2,0,0,1-.3-1c.1-.3.1-.8.7-.8A5.6,5.6,0,0,0,107.3,148.8Z"/><path d="M112.9,151.4c-.5-1.1-1.5-1.6-1.9-2.6C113.2,148.7,113.2,148.7,112.9,151.4Z"/><path d="M106.1,89.7a11.4,11.4,0,0,1-1-1.9,25.3,25.3,0,0,0-2-3.6c-.7-.9-.5-1.2.6-1.4s2.1-.2,2.1,2-.2,1.6.2,2.4-.1,1.6.4,2.4Z"/><path d="M104.4,87.9c-.9,0-1.5.6-2.2.6a1.3,1.3,0,0,1-1.3-.2c-.1-.1-.4-.3-.3-.6l.6-.3c.8.5,1.6,0,2.3-.1S104.1,87.6,104.4,87.9Z"/><path d="M191.5,167.8a15.5,15.5,0,0,0,3.1-.6c.5-.2.6-.1.8.3a.5.5,0,0,1-.4.8l-3.9.8c-.5.1-.7-.3-.6-.7S191,167.7,191.5,167.8Z"/><path d="M192.3,169.7a11.9,11.9,0,0,0-.8,3C190.5,170.3,190.7,169.6,192.3,169.7Z"/><path d="M195.8,171.1a14.7,14.7,0,0,0-1-1.3c-.2-.2-.4-.5,0-.8s.8.2.8.3S196.2,170.4,195.8,171.1Z"/><path d="M22.8,241.9a3.3,3.3,0,0,0,1.6-1.7,1.3,1.3,0,0,1,.3,1.9c-.3.5-1.1.6-1.8.9s.3-.8,0-1.2Z"/><path d="M25.4,238.5c.4-.1.5.3.7.5s0,.7.3,1h-.3c-.4,0-.5-.4-.5-.6S25.2,238.8,25.4,238.5Z"/><path d="M91.9,135.8c0,.7.2,1.3-.8,1.2s-1.2-.1-1.1-.8-.1-1.6,1-1.7S92.1,135.1,91.9,135.8Z"/><path d="M91,130.2c.9,1,.6,2.1.7,3.1s-.1.3-.3.3-.7.1-.8-.3a1.2,1.2,0,0,1-.1-.8A8.6,8.6,0,0,0,91,130.2Z"/><path d="M112.3,85.4h-.1c-.4-.3-1.3.6-1.3-.5s.9-.8,1.5-.9a5.7,5.7,0,0,0,2.6-.4h.9c.5,0,.7.3.7.8a.7.7,0,0,1-.7.9C114.7,85,113.5,85.5,112.3,85.4Z"/><path d="M178.6,125.4c.4.2.7,0,1-.1s.9.1,1.1.7-.3.7-.6.9a22.9,22.9,0,0,1-2.8.7.6.6,0,0,1-.7-.7c.1-.4-.8-.9.2-1.2S178.1,125.7,178.6,125.4Z"/><path d="M114.2,200.9a2.2,2.2,0,0,1-2.1,2h-.2a3.2,3.2,0,0,1,.4-3.6c.7-.5,1.2-.4,1.5.4A10.4,10.4,0,0,0,114.2,200.9Z"/><path d="M114.1,198.9l2.4-.4a.6.6,0,0,1,.8.5l.3,2.1a.4.4,0,0,1-.4.4h-.6c-.8,0-1.9.6-1.6-1.1S114.6,199.3,114.1,198.9Z"/><path d="M108.7,199.7c.8-.6,1.7-.3,2.5-.7s.3.1.2.4-.8,1.1-1.7.7Z"/><path d="M78.5,114.5a4.4,4.4,0,0,0-1.7.2c-.4.1-.7.1-.9-.1s.2-.8.3-1.1.4-.1.6,0S78,113.8,78.5,114.5Z"/><path d="M108.2,128.9c-.6-.1-1.3.2-1.3-.7s.3-2.3,1.6-2.2.5,1.3.8,2S108.9,129,108.2,128.9Z"/><path d="M108.9,125.4c-.6.1-1.4.7-1.6.2a2.9,2.9,0,0,1,.2-2.7A3.7,3.7,0,0,1,108.9,125.4Z"/><path d="M165.4,131.1c2,1.2,1.9,3.1,2.2,4.8s-.2.4-.5.4-1.2.2-1.2-.3-1.2-1.9.3-2.5.4-.5.1-.5S165.9,131.8,165.4,131.1Z"/><path d="M55.4,245.3c.8-2.7.2-5.6,1.1-8.4,1.9,2.5,2,4,.4,6.4Z"/><path d="M116.2,116.6a1.8,1.8,0,0,1,.2,2.7A2.6,2.6,0,0,1,116.2,116.6Z"/><path d="M64.3,20.7a1.6,1.6,0,0,1-2.7.5c0-.1-.1-.2-.1-.3s.3-.2.5-.2Z"/><path d="M59.5,88.6c0,1.2-.4,1.5-1.6,1.1s-.6-.4-.8-.3S56,90,55.9,89s.3-2.1,1.2-2.1a5.7,5.7,0,0,1,1.8.3C59.8,87.4,59.5,88.1,59.5,88.6Z"/><path d="M31,94.1c0-.8-.9-1.7.5-2.2a1.8,1.8,0,0,0-.2,1c-.1.8.3.8.8.5S31.3,93.8,31,94.1Z"/></svg>